<svg id="Layer_1" enable-background="new 0 0 140 140" height="512" viewBox="0 0 140 140" width="512" xmlns="http://www.w3.org/2000/svg"><g><g><path d="m126 124h-112c-4.42 0-8-3.58-8-8v-68c0-4.42 3.58-8 8-8h112c4.42 0 8 3.58 8 8v68c0 4.42-3.58 8-8 8z" fill="#f3b818"/><path d="m126 125h-112c-4.96 0-9-4.04-9-9v-68c0-4.96 4.04-9 9-9h112c4.96 0 9 4.04 9 9v68c0 4.96-4.04 9-9 9zm-112-84c-3.86 0-7 3.14-7 7v68c0 3.86 3.14 7 7 7h112c3.86 0 7-3.14 7-7v-68c0-3.86-3.14-7-7-7z" fill="#231f20"/></g><g><path d="m70 72-61.39 49.88c1.42 1.31 3.3 2.12 5.39 2.12h112c2.08 0 3.96-.82 5.39-2.12z" fill="#f3b818"/></g><g><path d="m126 121h-112c-1.21 0-2.34-.28-3.37-.77l-2.02 1.64c1.42 1.31 3.3 2.12 5.39 2.12h112c2.08 0 3.96-.82 5.39-2.12l-2.02-1.64c-1.03.49-2.16.77-3.37.77z" fill="#d5a115"/></g><g><path d="m126 125h-112c-2.23 0-4.39-.85-6.06-2.39-.21-.2-.33-.48-.32-.77s.14-.56.37-.75l61.39-49.88c.37-.3.89-.3 1.26 0l61.39 49.88c.23.18.36.46.37.75s-.11.57-.32.77c-1.69 1.54-3.85 2.39-6.08 2.39zm-115.78-3.14c1.13.74 2.44 1.14 3.78 1.14h112c1.34 0 2.65-.4 3.78-1.14l-59.78-48.57z" fill="#231f20"/></g><g><path d="m70 92 61.39-49.88c-1.42-1.31-3.3-2.12-5.39-2.12h-112c-2.08 0-3.96.82-5.39 2.12z" fill="#ffd23c"/></g><g><path d="m126 43h-112c-1.21 0-2.34.28-3.37.77l-2.02-1.64c1.43-1.31 3.31-2.13 5.39-2.13h112c2.08 0 3.96.82 5.39 2.12l-2.02 1.64c-1.03-.48-2.16-.76-3.37-.76z" fill="#ffe17d"/></g><g><path d="m70 93c-.22 0-.45-.07-.63-.22l-61.39-49.88c-.23-.18-.36-.46-.37-.75s.11-.57.32-.77c1.68-1.53 3.84-2.38 6.07-2.38h112c2.23 0 4.39.85 6.06 2.38.21.2.33.48.32.77s-.14.56-.37.75l-61.38 49.88c-.18.15-.41.22-.63.22zm-59.78-50.86 59.78 48.57 59.78-48.57c-1.13-.74-2.44-1.14-3.78-1.14h-112c-1.34 0-2.65.4-3.78 1.14z" fill="#231f20"/></g><g><g><path d="m80 16c-14.91 0-27 9.4-27 21 0 7.84 5.53 14.67 13.72 18.28-2.53 3.52-7.15 11.22-13.72 11.22 0 0 19.51 1.87 25.54-8.53.49.02.97.03 1.46.03 14.91 0 27-9.4 27-21s-12.09-21-27-21z" fill="#e85497"/></g><g><g><circle cx="67.16" cy="36" fill="#fafff5" r="3.78"/></g><g><circle cx="80" cy="36" fill="#fafff5" r="3.78"/></g><g><circle cx="92.84" cy="36" fill="#fafff5" r="3.78"/></g></g><g><path d="m99.16 22.2c2.43 3.15 3.83 6.84 3.83 10.78 0 11.6-12.09 21-27 21h-.01c-.85 0-1.65.37-2.15 1.06-2.75 3.76-7.42 5.69-11.97 6.65-2.38 2.59-5.33 4.8-8.85 4.8 0 0 19.51 1.87 25.54-8.53.48.03.96.04 1.45.04 14.91 0 27-9.4 27-21 0-5.77-3-11-7.84-14.8z" fill="#cb4a84"/></g><g><path d="m56.61 67.64c-2.09 0-3.49-.13-3.7-.15-.53-.05-.93-.51-.9-1.04s.47-.95 1-.95c5.38 0 9.56-6.01 12.06-9.6.05-.07.1-.15.15-.22-8.19-4-13.22-11.07-13.22-18.68 0-12.13 12.56-22 28-22s28 9.87 28 22-12.56 22-28 22c-.3 0-.61 0-.91-.01-4.89 7.61-16.49 8.65-22.48 8.65zm23.39-50.64c-14.34 0-26 8.97-26 20 0 7.15 5.03 13.8 13.12 17.37.28.12.48.36.56.65s.02.6-.15.85c-.25.35-.53.75-.83 1.18-1.79 2.57-4.37 6.28-7.75 8.52 6.05-.3 15.1-1.84 18.73-8.09.19-.32.53-.5.91-.5.46.01.93.02 1.41.02 14.34 0 26-8.97 26-20s-11.66-20-26-20z" fill="#231f20"/></g></g></g></svg>