<svg clip-rule="evenodd" fill-rule="evenodd" height="512" image-rendering="optimizeQuality" shape-rendering="geometricPrecision" text-rendering="geometricPrecision" viewBox="0 0 1.70666 1.70666" width="512" xmlns="http://www.w3.org/2000/svg"><g id="Layer_x0020_1"><g id="_532214488"><path id="_531360016" d="m.581406.903213h-.144012c-.0110394 0-.02-.00897244-.02-.02v-.0934331c0-.0110394.00896063-.02.02-.02l.144012.00000787c.0110394 0 .02.00895669.02.0199961v.0934331c0 .0110236-.00896063.0199961-.02.0199961z" fill="#fbd131"/><g fill="#dd636e"><path id="_531359176" d="m.474783 1.03319h-.144024c-.0110394 0-.02-.0089685-.02-.02v-.0934409c0-.0110394.00896063-.02.02-.02h.144024c.0110354 0 .0199961.00897244.0199961.02v.0934409c0 .0110394-.00894488.02-.0199961.02z"/><path id="_531358984" d="m.688043 1.03319h-.144012c-.0110394 0-.02-.0089685-.02-.02v-.0934409c0-.0110394.00896063-.02.02-.02h.144012c.0110394 0 .02.00897244.02.02v.0934409c0 .0110394-.00894488.02-.02.02z"/></g><path id="_531358960" d="m1.17687.896953c-.0110394 0-.0199961-.00897244-.0199961-.02v-.072c0-.0110394.0089685-.02.0199961-.02.0110315 0 .02.00896063.02.02v.072c0 .0110276-.00896063.02-.02.02z" fill="#685d67"/><path id="_531358792" d="m1.29558 1.03319h-.412583c-.0110394 0-.02-.0089685-.02-.02v-.136248c0-.0110394.00897244-.02.02-.02h.412583c.0110394 0 .02.00896063.02.02v.136248c0 .0110394-.00895276.02-.02.02z" fill="#7b6c79"/><g fill="#b96751"><path id="_531358744" d="m.217469 1.03319h-.103154c-.0110394 0-.02-.0089685-.02-.02v-.432091c0-.00729134.00397638-.014.0103465-.0175118.00638976-.00351181.0141693-.00327559.0203386.00061024.0101929.00644488.0219567.00984646.0340118.00984646h.0137323c.0120591 0 .0238228-.00340157.0340276-.00984646.00614961-.00388976.0139567-.00411024.0203346-.00059843.00637402.00351181.0103465.0102205.0103465.0175118v.432075c.00001575.0110433-.00892913.0200039-.0199843.0200039z"/><path id="_531359464" d="m1.59233 1.03319h-.10315c-.0110394 0-.02-.0089685-.02-.02v-.432075c0-.00729134.00397638-.014.0103465-.0175118.00637402-.00352756.0141811-.00329134.0203465.00061024.0101772.00644488.0219567.00984646.0340157.00984646h.0137323c.0120591 0 .0238189-.00341732.0340236-.00984646.00612598-.00391732.0139449-.0041378.0203386-.00061024.00637008.00351181.0103465.0102205.0103465.0175118v.432091c0 .0110236-.00895669.0199843-.02.0199843z"/><path id="_531359440" d="m1.60114 1.65399h-1.49561c-.0110394 0-.02-.0089685-.02-.02v-.519602c0-.0110354.00896063-.0199961.02-.0199961h1.49561c.0110394 0 .02.0089685.02.0199961v.519602c0 .0110394-.00896063.02-.02.02z"/></g><g fill="#cc9080"><path id="_531359320" d="m1.40221 1.65399h-.04v-.559598h.04zm-1.05776 0h-.04v-.559598h.04z"/><path id="_531358648" d="m1.1833 1.65399h-.0400157v-.559598h.0400157zm-.619921 0h-.04v-.559598h.04z"/><path id="_531358384" d="m.964358 1.65399h-.04v-.559598h.04zm-.182067 0h-.0399961v-.559598h.0399961z"/></g><path id="_531358504" d="m1.68665 1.65399h-1.66664c-.0110394 0-.0199961-.0089685-.0199961-.02 0-.0110276.00895669-.0199961.0199961-.0199961h1.66664c.0110394 0 .0199961.0089685.0199961.0199961 0 .0110315-.00895669.02-.0199961.02z" fill="#fbd131"/><path id="_531358240" d="m1.62691 1.13439h-1.54717c-.0110394 0-.0199961-.0089685-.0199961-.02v-.101205c0-.0110394.00895669-.02.0199961-.02h1.54717c.0110354 0 .0199961.00897244.0199961.02v.101205c.00001575.0110472-.00895276.02-.0199961.02z" fill="#fbd131"/><path id="_531358408" d="m1.26444.824937h-.175146c-.0110394 0-.02-.00896063-.02-.02v-.0880669c0-.0110394.00897244-.02.02-.02h.175146c.0110394 0 .02.00896063.02.02v.0880669c0 .0110551-.00895276.02-.02.02z" fill="#d5ecff"/><path id="_531358576" d="m1.64778.412988-.0967638-.031252-.0847756.031252v.122799c0 .0430394.0352126.078252.078252.078252h.0242441c.0434764 0 .0790433-.035563.0790433-.0790433v-.122008z" fill="#ea596a"/><path id="_531357616" d="m.240398.412988-.0921772-.0208346-.0893622.0208346v.122799c0 .0430394.0352126.078252.078252.078252h.0242441c.0434764 0 .0790433-.035563.0790433-.0790433v-.122008z" fill="#ea596a"/><path id="_531357352" d="m1.30711.412988.0728898-.0164961.0862323.0164961v.132457c0 .0377283-.0308622.0685945-.0685906.0685945h-.021252c-.0381063 0-.0692795-.0311772-.0692795-.0692795z" fill="#c5daeb"/><path id="_531357664" d="m1.30711.412988-.0842283-.0138898-.0894803.0138898v.126173c0 .041185.0336929.074878.074878.074878h.0231969c.0416024 0 .0756339-.0340354.0756339-.0756378v-.125413z" fill="#ea596a"/><path id="_531357280" d="m.963634.412988.0752205-.0173622.0945512.0173622v.127874c0 .0402441-.0329291.0731772-.0731811.0731772h-.0226732c-.0406575 0-.0739173-.0332598-.0739173-.0739213v-.12713z" fill="#c5daeb"/><path id="_531356560" d="m.963634.412988-.104476-.0225709-.118921.0225709v.114386c0 .0476693.0389961.0866654.0866654.0866654h.0491929c.0481496 0 .0875394-.0393858.0875394-.0875394v-.113512z" fill="#ea596a"/><path id="_531357088" d="m.573264.412988.0871063-.015626.0826654.015626v.127874c0 .0402441-.0329291.0731772-.0731811.0731772h-.0226732c-.0406575 0-.0739173-.0332598-.0739173-.0739213v-.12713z" fill="#c5daeb"/><path id="_531349816" d="m.57326.412988-.0882402-.0164961-.0854685.0164961v.126173c0 .041185.0336929.074878.074878.074878h.0231969c.0416024 0 .0756339-.0340354.0756339-.0756378v-.125413z" fill="#ea596a"/><path id="_531349600" d="m.240409.412988.0857559-.0173583.0733661.0173583v.132457c0 .0377283-.0308622.0685945-.0685906.0685945h-.021252c-.0381063 0-.0692795-.0311772-.0692795-.0692795v-.131772z" fill="#c5daeb"/><path id="_531349768" d="m.0588583.412988.176512-.349327c.00340157-.00673622.0103031-.0109882.0178465-.0109882h1.20019c.00754331 0 .0144488.00425197.0178504.0109882l.176524.349327h-.181539l-.134528-.347524c-.00298031-.00769291-.0103858-.0127756-.0186496-.0127756h-.123177c.00896063 0 .0168031.00594094.019248.0145394l.0979843.34576h-.173709l-.0584252-.34365c-.00163386-.00959055-.00992126-.0166063-.0196299-.0166496h-.131854-.140331-.389579c-.00826378 0-.0156811.00508268-.0186496.0127756l-.134528.347524h-.181551zm.514406 0h-.173713l.0979843-.345752c.00243307-.00861024.0102953-.0145433.0192362-.0145433h.134264c-.00959055.00017323-.0177205.00715748-.0193386.0166457l-.0584331.34365z" fill="#f55e74"/><path id="_531350008" d="m.240409.412988.134528-.347524c.0029685-.00769291.0103858-.0127756.0186496-.0127756h.389579c-.0105984 0-.0193504.00825197-.0199764.0188189l-.0201772.34148h-.169748l.0584331-.34365c.00161811-.00948819.00974803-.0164724.0193386-.0166457h-.134264c-.00894094 0-.0168031.00593307-.0192362.0145433l-.0979843.345752h-.159142zm.683087-.360299h.131854c.00970866.00004331.0179961.00705906.0196299.0166496l.0584252.34365h-.169772l-.0201614-.34148c-.00062598-.0105669-.00937795-.0188189-.0199764-.0188189zm.266386 0h.123177c.00826378 0 .0156693.00508268.0186496.0127756l.134528.347524h-.159122l-.0979843-.34576c-.00244488-.00859843-.0102874-.0145394-.019248-.0145394z" fill="#d5ecff"/><path id="_531348784" d="m.399551.412988.0979843-.345752c.00243307-.00861024.0102953-.0145433.0192362-.0145433h.134264c-.00959055.00017323-.0177205.00715748-.0193386.0166457l-.0584331.34365h-.173713zm.655799-.360299h.134531c.00896063 0 .0168031.00594094.019248.0145394l.0979843.34576h-.173709l-.0584252-.34365c-.00163386-.00959055-.00992126-.0166063-.0196299-.0166496z" fill="#f55e74"/><path id="_531348760" d="m.573264.412988.0584331-.34365c.0016378-.00961024.00995669-.0166496.0197047-.0166496h.131764c-.0105984 0-.0193504.00825197-.0199764.0188189l-.0201772.34148h-.169748zm.350232-.360299h.131764c.00974803 0 .0180827.00702756.0197205.0166496l.0584252.34365h-.169772l-.0201614-.34148c-.00062598-.0105669-.00937795-.0188189-.0199764-.0188189z" fill="#d5ecff"/><path id="_531349480" d="m.743012.412988.0201772-.34148c.00062598-.0105669.00937795-.0188189.0199764-.0188189h.140331c.0105984 0 .0193504.00825197.0199764.0188189l.0201614.34148h-.220622z" fill="#f55e74"/><path id="_531348928" d="m.782291 1.614h-.0399961-.178917-.04-.178925-.04-.218929-.0655118c-.0110394 0-.0199961.0089685-.0199961.0199961 0 .0110315.00895669.02.0199961.02h.0855118.198929.04.178925.04.178917.0399961.140193c-.0261772-.0131496-.0517795-.0264882-.0768268-.0399961h-.0633661z" fill="#fbbc28"/><path id="_531349384" d="m.782291 1.57879c-.0135039-.00772835-.0268346-.0155-.0399961-.0233228v.0585276h.0399961v-.0352047z" fill="#c5866f"/><path id="_531349096" d="m.742295 1.55547c-.0635236-.0377362-.123079-.0765118-.178917-.115921v.174449h.178917v-.0585276z" fill="#b45846"/><path id="_531349024" d="m.523378 1.614v-.203252c-.0647559-.047563-.12426-.0959016-.178925-.144331v.347583z" fill="#b45846"/><path id="_531349432" d="m.304453 1.614v-.383823c-.0345748-.0320276-.0670748-.0640236-.0976339-.0957835h-.121295v.479606h.218929z" fill="#b45846"/><path id="_532197520" d="m.344453 1.614v-.347583c-.0136339-.0120787-.0269646-.0241614-.04-.0362402v.383823h.04z" fill="#c5866f"/><path id="_532206568" d="m.169236 1.09439c-.0188622-.0205551-.0369213-.0409764-.0542087-.0612087-.0070315-.00822835-.0139331-.0164291-.0207126-.0245945-.00427559-.00514961-.0085-.0102835-.0126772-.0154055h-.00188976c-.0110394 0-.0199961.00896063-.0199961.02v.101205c0 .0110315.00895669.02.0199961.02h.00577559.121295c-.0128701-.013378-.0253937-.0267165-.0375827-.0399961z" fill="#fbbc28"/><path id="_532195864" d="m.845657 1.614-.063366-.03521v.03521z" fill="#b45846"/><path id="_532217728" d="m.563378 1.614v-.17445l-.04-.02881v.20326z" fill="#c5866f"/></g></g></svg>