<svg id="Start_Up" height="512" viewBox="0 0 1000 1000" width="512" xmlns="http://www.w3.org/2000/svg"><g><path d="m890.823 617.729c-6.265-1.402-12.489-2.352-18.268-3.025-2.962-9.08-6.739-18.025-11.3-26.764 3.641-4.598 7.404-9.711 10.879-15.174 5.828-9.193 4.967-20.873-2.197-29.756-11.511-14.273-24.08-26.848-38.43-38.434-4.82-3.898-10.715-6.045-16.592-6.045-4.666 0-9.225 1.328-13.189 3.846-5.403 3.432-10.449 7.143-14.984 10.73-8.521-4.33-17.516-7.986-26.914-10.938-.678-5.842-1.635-12.139-3.052-18.483-2.366-10.586-11.229-18.213-22.577-19.424-9.224-.988-18.105-1.471-27.15-1.471-9.041 0-17.939.482-27.211 1.471-11.352 1.211-20.215 8.838-22.583 19.43-1.401 6.272-2.35 12.487-3.024 18.253-9.078 2.965-18.019 6.736-26.762 11.303-3.141-2.492-6.593-5.006-10.161-7.471 7.257-2.189 13.229-7.695 16.345-15.471 9.649-24.083 16.468-48.282 20.846-74.003 1.902-11.23-3.067-21.83-12.66-27.002-10.038-5.414-20.456-9.885-29.896-13.541-.187-17.94-2.467-36.141-6.81-54.391 8.426-5.829 17.639-12.705 26.299-20.459 8.072-7.231 10.361-18.723 5.84-29.269-10.203-23.831-22.492-45.765-37.582-67.068-4.943-6.966-12.771-11.122-20.942-11.122-2.422 0-4.837.355-7.155 1.057-10.854 3.252-21.338 7.443-30.577 11.527-12.806-12.598-27.304-23.867-43.321-33.676 1.835-10.098 3.486-21.471 4.12-33.024.594-10.808-5.878-20.54-16.49-24.794-24.064-9.651-48.27-16.469-73.992-20.846-1.561-.265-3.144-.399-4.707-.399-9.567 0-17.912 4.88-22.319 13.056-5.408 10.033-9.876 20.449-13.535 29.889-17.895.18-36.124 2.465-54.388 6.814-5.827-8.42-12.703-17.63-20.468-26.297-4.697-5.243-11.212-8.135-18.34-8.135-3.684 0-7.358.773-10.925 2.298-23.828 10.195-45.762 22.486-67.053 37.575-9.269 6.57-13.225 17.598-10.078 28.095 3.252 10.848 7.443 21.335 11.524 30.577-12.6 12.813-23.87 27.313-33.676 43.322-10.077-1.834-21.438-3.484-33.004-4.114-.362-.022-1.01-.04-1.374-.04-10.373 0-19.356 6.336-23.442 16.531-9.649 24.07-16.467 48.274-20.847 74.004-1.905 11.248 3.073 21.853 12.662 27.006 10.047 5.415 20.46 9.886 29.894 13.542.187 17.935 2.464 36.136 6.809 54.386-8.435 5.838-17.651 12.719-26.3 20.468-8.073 7.231-10.362 18.722-5.838 29.272 10.202 23.831 22.493 45.761 37.564 67.028 4.936 6.98 12.771 11.148 20.961 11.148 2.411 0 4.814-.355 7.146-1.053 10.85-3.252 21.338-7.443 30.584-11.525 12.807 12.596 27.306 23.867 43.32 33.67-1.834 10.098-3.484 21.467-4.119 33.025-.592 10.807 5.878 20.539 16.489 24.793 24.088 9.66 48.295 16.479 73.993 20.846h.008c-1.043.777-2.122 1.484-3.15 2.297-2.727-1.168-5.342-2.18-7.91-3.076-2.521-.881-5.199-1.326-7.958-1.326-7.727 0-15.034 3.467-19.55 9.27-8.484 10.906-15.334 21.865-20.936 33.504-4.915 10.205-3.018 21.771 4.844 29.473 1.961 1.92 3.974 3.727 5.943 5.41-.679 3.408-1.219 6.875-1.621 10.389-2.746 1.102-5.313 2.234-7.768 3.426-9.232 4.461-15.019 14.99-13.762 25.027 1.719 13.727 4.631 26.338 8.91 38.578 3.688 10.529 13.092 17.334 24.238 17.334h.004c2.784-.031 5.51-.176 8.12-.387 1.911 2.869 3.96 5.676 6.137 8.414-1.167 2.73-2.186 5.355-3.085 7.938-3.378 9.715-.031 21.273 7.951 27.482 10.91 8.492 21.875 15.346 33.519 20.945 3.632 1.75 7.625 2.672 11.552 2.672 6.807 0 13.168-2.672 17.917-7.525 1.814-1.857 3.593-3.809 5.407-5.941 3.407.68 6.873 1.221 10.383 1.619 1.104 2.748 2.237 5.313 3.427 7.768 4.027 8.334 12.952 13.934 22.208 13.934.812 0 2.015-.072 2.822-.176 13.721-1.713 26.334-4.629 38.56-8.904 10.492-3.666 17.464-13.412 17.347-24.242-.029-2.783-.174-5.508-.385-8.121 2.867-1.912 5.676-3.957 8.416-6.135 2.719 1.16 5.334 2.178 7.914 3.076 2.521.881 5.198 1.326 7.955 1.326h.002c7.727 0 15.036-3.467 19.553-9.273 8.479-10.9 15.329-21.865 20.938-33.51 4.922-10.213 3.016-21.783-4.853-29.471-1.961-1.916-3.972-3.729-5.938-5.4.679-3.414 1.221-6.881 1.621-10.395 2.714-1.092 5.257-2.217 7.701-3.395-.931 6.832.979 13.973 5.748 19.879 11.511 14.273 24.08 26.848 38.436 38.443 4.824 3.889 10.713 6.035 16.589 6.035 4.664 0 9.222-1.328 13.173-3.838 5.395-3.422 10.449-7.137 15.001-10.734 8.522 4.326 17.515 7.979 26.911 10.93.678 5.846 1.636 12.146 3.052 18.488 2.366 10.586 11.229 18.213 22.577 19.424 9.215.988 18.09 1.465 27.135 1.465 9.039 0 17.941-.477 27.227-1.465 11.352-1.211 20.215-8.838 22.583-19.43 1.401-6.27 2.351-12.488 3.024-18.254 9.08-2.963 18.021-6.736 26.76-11.297 4.603 3.646 9.716 7.41 15.178 10.873 3.958 2.51 8.514 3.838 13.176 3.838 5.873 0 11.762-2.146 16.581-6.031 14.286-11.527 26.858-24.102 38.437-38.439 7.176-8.891 8.037-20.58 2.189-29.781-3.431-5.396-7.139-10.438-10.728-14.977 4.329-8.521 7.982-17.516 10.935-26.916 5.829-.674 12.116-1.633 18.455-3.039 10.603-2.354 18.239-11.221 19.456-22.586 1.949-18.232 1.951-36.016 0-54.363-1.216-11.347-8.839-20.206-19.419-22.578zm-160.285 72.016c-6.953 6.314-14.286 9.518-21.808 9.518-13.577 0-27.268-10.768-31.841-25.047-2.957-9.229-2.946-22.76 13.9-34.791 5.744-4.096 11.419-6.18 16.867-6.18 10.228 0 20.432 7.674 25.997 19.541 2.295 4.895 8.727 21.809-3.115 36.959zm-360.106-411.337c34.487 0 68.159 18.942 85.784 48.26 26.646 44.335 11.185 104.352-34.437 134.079-15.514 8.626-32.738 13.182-49.848 13.182-33.078 0-64.02-16.941-82.771-45.323-14.104-21.35-18.662-46.831-12.831-71.756 6.466-27.645 24.716-51.971 50.067-66.74 13.333-7.767 28.15-11.702 44.036-11.702zm1.993 338.53c2.033-.021 4.086-.166 6.125-.238-2.208.436-4.421.873-6.584 1.385.148-.377.314-.773.459-1.147zm54.39-6.812c4.088 5.904 8.711 12.188 13.755 18.389-1.298.9-2.532 1.912-3.661 3.066-1.913 1.957-3.721 3.967-5.395 5.934-3.413-.68-6.878-1.219-10.393-1.619-1.104-2.748-2.24-5.316-3.434-7.785-3.238-6.684-9.639-11.545-16.813-13.227 8.62-1.129 17.275-2.694 25.941-4.758zm-23.402 148.258c.241-.26 1.5-.977 3.447-.977.264 0 .518.014.731.014.198 0 .359-.014.456-.059.549.627 1.001 2.91.518 4.877-.85.889-1.455.889-1.754.889-1.07 0-2.291-.611-2.973-1.492-.269-.356-.906-1.174-.425-3.252zm106.338-132.41c-3.234 3.887-5.365 8.807-5.957 14.328-.369 3.455-.603 6.877-.832 10.305-.936-1.066-1.943-2.07-3.068-2.947-4.576-3.557-9.17-6.768-13.812-9.777 8.06-3.724 15.976-7.636 23.669-11.909zm14.225-8.387c6.606-4.08 13.152-8.316 19.602-12.881.85-.598 1.604-1.277 2.361-1.947-1.531 3.898-2.962 7.861-4.234 11.918-5.614.652-11.646 1.582-17.729 2.91zm37.44-93.922c5.089-6.68 9.923-13.65 14.411-20.98 2.456.445 4.99.881 7.58 1.295-.28.207-.591.369-.867.59-7.484 6.029-14.476 12.38-21.124 19.095zm-9.213 224.123c-.024-.256 0-.512-.031-.77-.074-.584-.181-1.141-.259-1.727.295.58.563 1.166.863 1.74-.191.24-.384.515-.573.757z" fill="#fff"/><g><path d="m632.544 406.537c-12.869-6.939-26.67-12.35-40.47-17.238 1.394-25.986-2.094-51.486-9.467-76.419 12.433-8.077 24.718-16.667 35.761-26.558 2.084-1.865 1.891-4.663.899-6.975-9.71-22.685-21.282-43.301-35.547-63.439-1.484-2.092-3.875-3.436-6.503-2.645-13.977 4.191-27.524 10.119-40.717 16.411-17.27-19.37-37.924-35.048-60.747-47.349 3.074-14.504 5.694-29.268 6.506-44.06.15-2.748-1.916-4.624-4.226-5.55-22.9-9.184-45.668-15.578-69.991-19.717-2.51-.427-5.195.221-6.501 2.645-6.938 12.871-12.348 26.67-17.238 40.467-25.983-1.389-51.483 2.096-76.419 9.473-8.077-12.44-16.665-24.719-26.559-35.759-1.869-2.087-4.662-1.89-6.976-.899-22.685 9.705-43.296 21.277-63.431 35.547-2.094 1.484-3.434 3.872-2.646 6.498 4.189 13.974 10.119 27.523 16.406 40.71-19.367 17.278-35.048 37.931-47.35 60.755-14.5-3.081-29.267-5.698-44.057-6.508-2.747-.152-4.625 1.916-5.552 4.228-9.179 22.896-15.576 45.661-19.716 69.987-.425 2.51.221 5.194 2.646 6.498 12.871 6.939 26.672 12.354 40.469 17.243-1.396 25.981 2.092 51.481 9.467 76.414-12.435 8.081-24.721 16.672-35.762 26.565-2.085 1.867-1.892 4.664-.9 6.976 9.713 22.684 21.284 43.295 35.552 63.43 1.481 2.096 3.872 3.432 6.501 2.645 13.976-4.188 27.525-10.119 40.717-16.41 17.27 19.369 37.921 35.047 60.745 47.348-3.074 14.504-5.693 29.268-6.505 44.061-.151 2.748 1.915 4.623 4.225 5.549 22.9 9.184 45.666 15.584 69.992 19.717 2.51.428 5.194-.217 6.501-2.645 6.937-12.871 12.347-26.67 17.238-40.467 25.983 1.398 51.479-2.088 76.411-9.467 8.084 12.436 16.672 24.721 26.566 35.762 1.866 2.088 4.664 1.895 6.975.9 22.681-9.715 43.294-21.281 63.431-35.547 2.094-1.48 3.434-3.873 2.646-6.5-4.187-13.98-10.116-27.531-16.408-40.723 19.37-17.273 35.048-37.926 47.348-60.744 14.502 3.076 29.273 5.693 44.063 6.503 2.748.152 4.626-1.916 5.552-4.228 9.175-22.896 15.574-45.665 19.715-69.987.427-2.51-.218-5.189-2.644-6.498zm-200.649 70.99c-55.889 31.466-123.775 15.294-159.073-38.129-38.554-58.357-13.762-132.725 43.719-166.207 54.132-31.531 125.248-8.527 156.458 43.39 33.696 56.06 11.851 126.852-41.104 160.946z" fill="#68182b"/><path d="m890.769 642.39c-.266-2.482-1.552-4.951-4.225-5.551-9.558-2.141-19.413-3.174-29.201-3.857-3.893-16.785-10.733-32.535-19.834-47.154 6.494-7.457 12.797-15.225 18.088-23.549 1.489-2.348.697-4.992-.901-6.975-10.692-13.26-22.243-24.795-35.495-35.498-1.98-1.602-4.63-2.389-6.975-.9-8.242 5.236-15.928 11.459-23.313 17.887-14.623-9.117-30.596-15.426-47.37-19.32-.682-9.891-1.721-19.852-3.877-29.511-.599-2.676-3.067-3.963-5.552-4.229-16.935-1.812-33.26-1.803-50.197 0-2.484.266-4.953 1.553-5.552 4.229-2.134 9.556-3.173 19.413-3.856 29.2-16.784 3.891-32.536 10.73-47.156 19.834-7.455-6.5-15.217-12.805-23.546-18.084-2.348-1.49-4.992-.703-6.976.898-13.258 10.691-24.794 22.24-35.493 35.494-1.601 1.982-2.39 4.631-.901 6.975 5.232 8.244 11.459 15.926 17.881 23.309-9.109 14.627-15.416 30.602-19.315 47.371-9.89.684-19.856 1.723-29.514 3.881-2.677.6-3.96 3.068-4.226 5.551-1.814 16.936-1.803 33.262 0 50.199.266 2.482 1.552 4.955 4.226 5.549 9.557 2.127 19.413 3.17 29.198 3.854 3.895 16.789 10.735 32.539 19.838 47.156-6.496 7.455-12.801 15.219-18.088 23.547-1.491 2.348-.701 4.992.899 6.977 10.692 13.258 22.243 24.793 35.495 35.496 1.983 1.602 4.63 2.389 6.976.9 8.241-5.227 15.927-11.459 23.31-17.883 14.625 9.107 30.598 15.418 47.37 19.313.684 9.895 1.723 19.859 3.879 29.516.599 2.676 3.067 3.963 5.552 4.229 16.936 1.813 33.26 1.799 50.197 0 2.484-.266 4.953-1.553 5.552-4.229 2.134-9.553 3.173-19.41 3.856-29.197 16.781-3.895 32.536-10.734 47.152-19.836 7.457 6.498 15.219 12.803 23.551 18.088 2.348 1.488 4.991.701 6.975-.9 13.256-10.693 24.794-22.244 35.495-35.496 1.602-1.984 2.391-4.633.901-6.977-5.236-8.238-11.461-15.924-17.883-23.309 9.109-14.621 15.419-30.596 19.313-47.371 9.892-.684 19.855-1.727 29.517-3.877 2.676-.594 3.959-3.066 4.225-5.549 1.813-16.94 1.802-33.266 0-50.201zm-145.88 60.75c-53.916 51.211-127.351-35.467-65.477-79.648 50.769-36.249 101.548 36.302 65.477 79.648z" fill="#68182b"/><path d="m524.785 714.927c-.848-2.424-2.862-4.254-5.552-4.229-6.238.064-12.5.832-18.685 1.813-4.92-9.695-11.408-18.43-19.024-26.178 2.964-5.703 5.721-11.559 7.83-17.617.601-1.723.009-4.438-1.482-5.598-9.478-7.371-19.153-13.537-29.983-18.75-2.336-1.125-5.062-1.057-6.976.898-4.333 4.436-8.21 9.369-11.872 14.4-10.371-3.359-21.146-4.938-32.044-5.045-1.938-6.125-4.138-12.201-6.931-17.971-.785-1.619-3.144-3.082-4.972-2.852-11.938 1.492-23.163 3.984-34.53 7.959-2.42.846-4.255 2.861-4.226 5.551.067 6.238.832 12.498 1.811 18.682-9.692 4.924-18.428 11.41-26.177 19.023-5.703-2.963-11.559-5.721-17.611-7.826-1.728-.602-4.443-.008-5.602 1.48-7.373 9.477-13.537 19.15-18.75 29.979-1.126 2.34-1.057 5.061.9 6.977 4.43 4.334 9.365 8.211 14.402 11.873-3.359 10.371-4.942 21.146-5.053 32.043-6.123 1.938-12.201 4.137-17.972 6.936-1.618.781-3.08 3.139-2.851 4.969 1.492 11.936 3.984 23.166 7.957 34.531.848 2.418 2.865 4.258 5.553 4.227 6.237-.066 12.498-.836 18.684-1.816 4.92 9.695 11.408 18.43 19.026 26.178-2.968 5.703-5.726 11.559-7.832 17.617-.601 1.727-.009 4.439 1.481 5.6 9.479 7.375 19.152 13.541 29.984 18.754 2.336 1.123 5.062 1.057 6.975-.9 4.336-4.434 8.21-9.373 11.875-14.404 10.371 3.359 21.145 4.938 32.042 5.045 1.938 6.125 4.135 12.201 6.933 17.973.782 1.619 3.141 3.08 4.969 2.85 11.938-1.492 23.164-3.984 34.531-7.959 2.419-.846 4.254-2.861 4.225-5.551-.064-6.236-.832-12.498-1.81-18.682 9.691-4.92 18.428-11.41 26.175-19.023 5.702 2.969 11.558 5.721 17.613 7.83 1.727.604 4.444.01 5.602-1.48 7.373-9.48 13.537-19.152 18.754-29.982 1.124-2.334 1.055-5.064-.902-6.977-4.434-4.334-9.37-8.211-14.404-11.873 3.361-10.369 4.942-21.146 5.051-32.043 6.125-1.938 12.201-4.143 17.973-6.934 1.619-.783 3.081-3.141 2.852-4.971-1.494-11.937-3.983-23.162-7.957-34.527zm-98.997 56.959c-14.711 22.432-47.908 6.957-41.205-18.65 3.189-12.184 16.803-17.311 28.017-14.779 14.892 3.355 19.077 21.353 13.188 33.429z" fill="#68182b"/><path d="m584.602 398.819c-.193-.067-.349-.162-.526-.243-2.181-.58-3.917-2.33-3.701-5.307 2.018-27.695-1.704-54.634-9.961-81.096-.715-2.289-.036-4.143 1.272-5.383.418-.59.96-1.139 1.678-1.598 11.704-7.51 23.32-15.457 33.905-24.523-8.653-19.455-18.768-37.477-30.854-55.021-13.193 4.286-25.961 9.966-38.419 16.007-.173.085-.342.121-.513.188-1.965 1.197-4.484 1.225-6.463-1.088-18.031-21.043-39.899-37.575-64.447-50.334-2.233-1.16-3.018-3.066-2.854-4.951-.086-.656-.086-1.35.079-2.105 2.963-13.568 5.545-27.365 6.615-41.24-19.869-7.65-39.772-13.244-60.719-17.099-6.316 12.382-11.322 25.455-15.866 38.56-.067.193-.165.352-.245.531-.58 2.182-2.332 3.912-5.307 3.697-27.693-2.016-54.632 1.709-81.094 9.957-2.27.705-4.113.049-5.354-1.232-.603-.423-1.16-.977-1.63-1.709-7.506-11.707-15.455-23.323-24.524-33.906-19.455 8.648-37.474 18.764-55.011 30.848 4.281 13.195 9.961 25.963 16.001 38.421.083.171.124.342.188.513 1.194 1.965 1.219 4.479-1.09 6.458-21.043 18.038-37.578 39.9-50.336 64.451-1.158 2.23-3.061 3.013-4.941 2.852-.658.09-1.357.09-2.115-.077-13.566-2.968-27.364-5.545-41.236-6.615-7.652 19.869-13.247 39.774-17.099 60.714 12.381 6.319 25.452 11.324 38.56 15.876.193.067.349.162.526.242 2.182.58 3.915 2.33 3.699 5.307-2.021 27.695 1.702 54.635 9.962 81.096.715 2.295.033 4.152-1.282 5.393-.416.585-.956 1.129-1.671 1.588-11.706 7.511-23.32 15.462-33.905 24.528 8.653 19.451 18.771 37.471 30.854 55.012 13.195-4.287 25.963-9.967 38.42-16.008.174-.084.342-.121.514-.188 1.965-1.197 4.483-1.225 6.462 1.088 18.032 21.043 39.896 37.574 64.446 50.334 2.233 1.16 3.019 3.066 2.854 4.951.085.656.085 1.35-.079 2.105-2.964 13.568-5.545 27.365-6.615 41.24 19.869 7.65 39.771 13.244 60.719 17.1 6.316-12.383 11.321-25.455 15.866-38.561.065-.189.161-.342.24-.521.575-2.182 2.327-3.922 5.31-3.707 27.694 2.025 54.633-1.699 81.094-9.957 2.281-.715 4.135-.045 5.374 1.26.598.418 1.149.967 1.614 1.691 7.504 11.701 15.455 23.322 24.521 33.904 19.451-8.652 37.475-18.768 55.012-30.846-4.279-13.201-9.962-25.969-16-38.426-.082-.172-.121-.338-.186-.504-1.201-1.969-1.23-4.488 1.083-6.471 21.046-18.035 37.577-39.9 50.337-64.451 1.162-2.239 3.078-3.022 4.965-2.852.654-.081 1.347-.081 2.096.081 13.566 2.964 27.364 5.541 41.236 6.611 7.647-19.869 13.244-39.774 17.096-60.715-12.376-6.318-25.45-11.324-38.555-15.87zm-122.713 129.166c-82.123 47.227-194.228 23.076-241.432-62.175-46.189-83.425-23.249-191.652 61.82-240.426 80.761-46.305 193.36-24.326 240.512 59.841 48.04 85.755 21.733 190.332-60.9 242.76z" fill="#ff801d"/><path d="m330.516 535.173c3.202-11.379 6.406-22.756 9.613-34.131 30.089 7.074 62.908 3.787 91.457-10.352 5.82 10.393 11.646 20.781 17.47 31.174-37.962 19.561-80.036 23.373-118.54 13.309z" fill="#ff8e5b"/><path d="m456.079 518.048c-.314.18-.636.342-.953.516-5.809-10.361-11.619-20.727-17.425-31.093 0-.005.002-.005.002-.005 28.12-18.097 47.235-43.93 56.19-72.839 11.405 3.211 22.815 6.427 34.222 9.643-11.915 37.646-36.88 71.471-72.036 93.778z" fill="#a2603f"/><path d="m530.068 417.636c-11.437-3.22-22.873-6.44-34.309-9.665 7.385-29.313 4.529-61.344-9.811-91.512 10.47-5.869 20.943-11.732 31.411-17.602 20.078 37.723 23.277 79.998 12.709 118.779z" fill="#ff8e5b"/><path d="m509.839 286.071c1.461 2.226 2.837 4.479 4.168 6.745-10.397 5.834-20.8 11.658-31.203 17.49-15.966-29.074-42.825-48.085-73.014-56.566 3.225-11.451 6.449-22.892 9.674-34.342 36.231 11 68.942 34 90.375 66.673z" fill="#a2603f"/><path d="m412.815 217.527c-3.242 11.504-6.483 23.004-9.721 34.508-30.185-6.831-63.037-3.391-91.334 10.722-5.807-10.366-11.619-20.737-17.432-31.104 36.708-20.589 79.338-24.303 118.487-14.126z" fill="#ff8e5b"/><path d="m288.089 235.328c.094-.059.191-.108.285-.166 5.766 10.28 11.529 20.561 17.29 30.847-29.048 16.546-47.976 42.886-56.468 72.511-11.32-3.189-22.636-6.378-33.955-9.566 11.944-37.599 37.227-71.337 72.848-93.626z" fill="#a2603f"/><path d="m213.289 335.587c11.39 3.202 22.779 6.413 34.169 9.624-6.856 29.759-3.45 62.221 10.517 91.098-10.411 5.834-20.815 11.666-31.226 17.5-20.543-37.675-23.966-79.694-13.46-118.222z" fill="#ff8e5b"/><path d="m234.062 466.027c-1.365-2.056-2.64-4.133-3.896-6.215 10.328-5.789 20.654-11.581 30.984-17.365 16.067 29.08 42.519 48.188 72.293 56.847-3.193 11.328-6.387 22.662-9.575 33.99-35.525-10.892-67.558-33.771-89.806-67.257z" fill="#a2603f"/><path d="m879.645 647.206c-8.882-1.688-17.948-2.496-26.955-3.035-.214-.014-.397-.064-.601-.096-2.244.004-4.366-1.227-4.953-4.133-3.773-18.637-11.252-35.727-21.639-51.621-1.433-2.189-1.109-4.313.064-5.891.238-.5.531-.99.949-1.461 5.99-6.752 11.816-13.74 16.908-21.215-8.786-10.461-18.215-19.883-28.673-28.674-7.473 5.094-14.462 10.918-21.212 16.914-.178.156-.364.266-.547.395-1.605 1.543-3.975 2.133-6.429.504-15.849-10.514-33.23-17.291-51.813-21.186-2.586-.541-3.841-2.303-4.084-4.27-.166-.498-.294-1.029-.33-1.623-.535-9.004-1.348-18.074-3.035-26.957-13.614-1.188-26.946-1.182-40.56 0-1.688 8.883-2.501 17.953-3.038 26.957-.014.211-.065.396-.097.598.005 2.244-1.226 4.367-4.129 4.953-18.642 3.773-35.731 11.256-51.624 21.637-2.184 1.426-4.298 1.109-5.874-.051-.504-.242-1.003-.535-1.479-.957-6.748-5.996-13.734-11.824-21.209-16.91-10.461 8.783-19.883 18.209-28.671 28.67 5.089 7.475 10.917 14.463 16.907 21.215.16.18.272.373.405.557 1.533 1.605 2.116 3.971.492 6.418-10.51 15.85-17.285 33.23-21.18 51.809-.544 2.592-2.31 3.846-4.282 4.088-.496.168-1.025.293-1.616.33-9.006.539-18.075 1.348-26.955 3.035-1.187 13.613-1.181 26.947 0 40.561 8.882 1.682 17.949 2.502 26.955 3.037.214.012.4.066.603.094 2.242 0 4.362 1.232 4.949 4.133 3.773 18.641 11.255 35.73 21.639 51.625 1.433 2.189 1.109 4.309-.061 5.887-.238.5-.533.994-.951 1.467-5.99 6.75-11.818 13.738-16.91 21.209 8.788 10.461 18.217 19.883 28.678 28.674 7.473-5.09 14.459-10.918 21.207-16.908.18-.158.366-.266.551-.4 1.605-1.539 3.974-2.123 6.425-.5 15.851 10.506 33.232 17.283 51.813 21.178 2.595.545 3.85 2.313 4.086 4.287.164.498.292 1.025.328 1.613.537 9.004 1.352 18.07 3.038 26.957 13.613 1.184 26.945 1.174 40.56-.004 1.686-8.879 2.498-17.949 3.035-26.953.014-.215.065-.4.097-.602-.005-2.24 1.228-4.363 4.128-4.947 18.645-3.773 35.732-11.258 51.625-21.641 2.193-1.432 4.313-1.111 5.892.063.499.238.992.529 1.462.949 6.75 5.994 13.737 11.822 21.209 16.908 10.461-8.787 19.883-18.217 28.676-28.674-5.092-7.471-10.918-14.459-16.908-21.209-.155-.176-.264-.361-.394-.545-1.545-1.602-2.136-3.975-.508-6.432 10.51-15.852 17.288-33.23 21.18-51.813.542-2.592 2.31-3.846 4.282-4.088.496-.168 1.025-.293 1.618-.328 9.007-.535 18.073-1.355 26.955-3.037 1.185-13.614 1.179-26.948.001-40.561zm-88.483 98.244c-.239.377-.522.75-.88 1.105-43.533 43.471-119.154 49.605-163.36 2.514-42.981-45.781-47.722-119.236.701-164.004 42.68-39.459 114.322-45.387 157.384-2.203 45.559 45.684 47.722 113.932 6.155 162.588z" fill="#a9ff1d"/><path d="m776.865 591.003c.311.279.597.57.902.85-9.503 9.494-18.999 18.992-28.493 28.49-10.863-9.287-24.706-14.994-38.805-16.117 0-13.215 0-26.432 0-39.645 24.164 1.057 48.137 10.096 66.396 26.422z" fill="#b1d045"/><path d="m769.901 670.938h39.575c-1.24 24.105-10.531 48.041-27.021 67.1-9.427-9.418-18.851-18.84-28.269-28.266 8.929-11.293 14.514-24.964 15.715-38.834z" fill="#b1d045"/><path d="m710.469 730.245c13.56-.684 26.997-5.869 38.755-15.664 9.385 9.389 18.772 18.775 28.163 28.162-19.496 17.398-43.073 26.52-66.918 27.227 0-13.241 0-26.485 0-39.725z" fill="#73ffd8"/><path d="m703.561 604.058c-12.914.379-25.642 4.691-36.039 13.902-.911.805-1.745 1.686-2.61 2.541-9.391-9.404-18.79-18.805-28.191-28.193 18.065-18.391 42.266-27.336 66.841-27.84-.001 13.195-.001 26.394-.001 39.59z" fill="#73ffd8"/><path d="m632.001 597.362c9.413 9.398 18.822 18.807 28.226 28.221-9.123 10.951-14.934 24.568-16.229 38.447-13.132 0-26.267 0-39.399 0 1.401-23.922 10.98-47.672 27.402-66.668z" fill="#b1d045"/><path d="m604.419 670.938h39.327c.241 13.914 5.151 27.645 16.112 38.664.026.025.056.049.082.076-9.365 9.363-18.729 18.73-28.094 28.09-18.565-18.871-27.235-42.706-27.427-66.83z" fill="#73ffd8"/><path d="m636.902 742.481c9.377-9.373 18.752-18.75 28.129-28.127 11.589 9.732 24.971 14.994 38.53 15.84v39.686c-23.672-.901-47.146-10.008-66.659-27.399z" fill="#b1d045"/><path d="m809.628 664.03c-13.162 0-26.323 0-39.484 0-.29-13.799-5.077-27.406-15.521-38.627-.104-.113-.22-.207-.323-.32 9.46-9.463 18.92-18.924 28.387-28.383 17.942 18.889 26.629 42.949 26.941 67.33z" fill="#73ffd8"/><path d="m496.782 800.214c-2.049-1.102-3.342-3.287-2.275-6.176 4.398-11.904 6.184-24.131 5.887-36.801-.049-2.141.884-3.643 2.225-4.547.02-.018.045-.031.064-.045.102-.068.191-.145.297-.207.52-.377 1.113-.711 1.84-.926 5.341-1.602 10.724-3.334 15.875-5.527-1.216-8.068-3.098-15.85-5.588-23.607-5.435.32-10.855 1.084-16.206 2.006-.156.027-.297.018-.45.031-2.244.756-4.754.168-6.054-2.676-5.277-11.539-12.707-21.514-21.893-30.244-1.743-1.654-2.058-3.619-1.522-5.355.105-.617.29-1.246.636-1.889 2.643-4.895 5.197-9.895 7.277-15.072-6.532-4.82-13.332-8.98-20.535-12.691-3.643 4.098-7.029 8.424-10.182 12.895-.104.145-.223.252-.33.383-1.107 2.041-3.288 3.322-6.171 2.262-11.904-4.395-24.13-6.18-36.8-5.883-2.127.051-3.625-.877-4.53-2.203-.515-.584-.929-1.322-1.198-2.223-1.593-5.342-3.324-10.721-5.521-15.871-8.072 1.215-15.855 3.1-23.608 5.586.317 5.438 1.081 10.857 2.008 16.209.027.158.019.307.034.459.744 2.24.155 4.744-2.681 6.039-11.54 5.285-21.518 12.715-30.247 21.898-1.666 1.754-3.643 2.059-5.385 1.51-.607-.107-1.224-.291-1.854-.629-4.891-2.641-9.896-5.193-15.07-7.271-4.823 6.529-8.983 13.33-12.691 20.529 4.093 3.643 8.424 7.029 12.894 10.182.146.104.255.227.387.334 2.038 1.105 3.319 3.287 2.258 6.166-4.394 11.904-6.182 24.133-5.887 36.801.05 2.137-.882 3.639-2.218 4.543-.04.035-.094.063-.137.094-.076.055-.144.113-.225.158-.52.381-1.115.715-1.844.93-5.341 1.602-10.725 3.328-15.876 5.527 1.217 8.074 3.097 15.854 5.588 23.607 5.435-.32 10.856-1.084 16.206-2.006.155-.027.295-.018.445-.031 2.244-.756 4.756-.166 6.056 2.676 5.28 11.539 12.71 21.52 21.897 30.244 1.747 1.66 2.058 3.635 1.516 5.369-.107.617-.29 1.238-.634 1.877-2.643 4.893-5.197 9.893-7.276 15.07 6.531 4.824 13.334 8.984 20.536 12.695 3.641-4.098 7.029-8.428 10.18-12.898.104-.148.228-.256.338-.391 1.106-2.037 3.287-3.314 6.165-2.254 11.902 4.395 24.131 6.18 36.798 5.883 2.13-.049 3.624.877 4.533 2.203.513.59.927 1.322 1.196 2.223 1.592 5.342 3.326 10.721 5.522 15.871 8.073-1.215 15.854-3.1 23.608-5.586-.316-5.438-1.081-10.857-2.01-16.209-.027-.156-.018-.301-.033-.453-.75-2.24-.158-4.746 2.68-6.045 11.543-5.279 21.518-12.709 30.247-21.898 1.661-1.748 3.636-2.059 5.374-1.516.611.109 1.234.293 1.869.635 4.889 2.641 9.894 5.199 15.07 7.277 4.822-6.531 8.981-13.336 12.69-20.535-4.093-3.643-8.422-7.029-12.893-10.182-.14-.101-.243-.218-.372-.325zm-26.918-4.61c-.155.512-.362 1.033-.704 1.564-.288.58-.642 1.029-1.019 1.43-23.82 35.332-67.451 44.313-103.637 21.367-31.801-20.166-41.09-68.049-19.615-98.838 20.98-30.086 64.931-46.053 97.916-23.943 34.039 22.811 44.565 61.7 27.059 98.42z" fill="#ff5671"/><path d="m464.28 743.21c-8.725 2.047-17.447 4.092-26.17 6.148-2.051-5.977-5.826-11.428-11.229-15.926 4.965-8.014 9.928-16.027 14.896-24.037 11.673 8.032 19.157 20.256 22.503 33.815z" fill="#ffa0b9"/><path d="m459.936 789.718c-7.727-4.785-15.455-9.57-23.182-14.361 2.731-6.502 3.667-13.061 2.898-19.266 8.648-2.037 17.299-4.07 25.949-6.094 1.919 13.406.01 27.51-5.665 39.721z" fill="#ff7cc4"/><path d="m426.292 702.042c3.427.975 6.552 2.33 9.538 3.836-4.88 7.865-9.75 15.732-14.623 23.598-6.188-3.467-12.999-4.281-19.563-3.1-2.035-8.652-4.067-17.305-6.101-25.957 10.155-1.715 20.778-1.219 30.749 1.623z" fill="#ff7cc4"/><path d="m388.8 701.894c2.062 8.787 4.126 17.574 6.192 26.359-6.114 2.387-11.68 6.412-15.868 11.404-7.801-4.83-15.6-9.66-23.398-14.494 7.839-11.797 19.768-19.592 33.074-23.269z" fill="#ffa0b9"/><path d="m351.073 733.622c.369-.855.816-1.637 1.222-2.461 7.656 4.746 15.313 9.49 22.975 14.23-3.054 5.91-3.982 12.785-3.063 19.451-8.609 2.027-17.222 4.047-25.832 6.07-2.18-11.317-1.042-23.964 4.698-37.29z" fill="#ff7cc4"/><path d="m348.13 777.597c8.557-2.01 17.115-4.021 25.669-6.035 2.154 6.359 6.063 12.057 11.464 15.938-4.428 7.152-8.855 14.297-13.283 21.443-10.983-7.534-19.652-18.362-23.85-31.346z" fill="#ffa0b9"/><path d="m377.852 812.577c4.469-7.209 8.935-14.424 13.4-21.633 6.325 2.91 12.912 3.932 19.208 3.139 2.023 8.609 4.046 17.217 6.064 25.824-13.334 1.844-26.951-.967-38.672-7.33z" fill="#ff7cc4"/><path d="m423.294 818.532c-2.035-8.676-4.072-17.352-6.111-26.027 6.001-2.072 11.494-5.883 15.927-11.283 7.708 4.775 15.421 9.553 23.13 14.328-9.263 12.426-20.808 19.779-32.946 22.982z" fill="#ffa0b9"/><path d="m772.469 714.229c-2.125 2.465-4.417 4.789-6.793 7.029 5.592 5.594 11.185 11.189 16.779 16.779 16.489-19.059 25.78-42.994 27.021-67.1-5.572 0-11.147 0-16.72 0-2.309 15.292-8.623 29.783-20.287 43.292z" fill="#abab38"/><path d="m615.74 634.96c.663-7.674 2.507-14.846 4.868-21.848-9.438 15.645-14.972 33.23-16.009 50.918h11.968c-1.442-9.584-1.671-19.324-.827-29.07z" fill="#abab38"/><path d="m703.561 747.896c-5.89.199-11.799-.205-17.641-1.299-13.278-2.486-25.11-9.08-35.126-18.008-4.631 4.633-9.261 9.266-13.893 13.893 19.514 17.391 42.987 26.498 66.659 27.398.001-7.326.001-14.652.001-21.984z" fill="#abab38"/><path d="m267.963 250.065c-25.072 21.25-43.17 48.823-52.722 78.888 4.623 1.305 9.244 2.604 13.865 3.904 6.822-29.939 20.258-58.447 38.857-82.792z" fill="#81391c"/><path d="m323.869 533.284c1.521-5.396 3.04-10.799 4.563-16.195-3.197-.881-6.37-1.826-9.487-2.883-27.662-9.367-54.264-26.075-71.129-50.292-2.334-3.352-4.396-6.863-6.337-10.439-3.771 2.114-7.54 4.224-11.312 6.338 1.256 2.082 2.53 4.159 3.896 6.215 22.247 33.485 54.28 56.364 89.806 67.256z" fill="#81391c"/><path d="m515.186 420.627c-6.807 21.637-18.125 41.965-33.804 59.396-9.674 10.757-20.982 19.333-33.299 25.976 2.348 4.188 4.695 8.379 7.043 12.564.317-.174.639-.336.953-.516 35.156-22.307 60.122-56.132 72.037-93.778-4.308-1.214-8.62-2.428-12.93-3.642z" fill="#81391c"/><path d="m509.839 286.071c-9.52-14.513-21.274-27.105-34.563-37.593 12.683 14.697 22.979 32.24 30.629 48.881 2.701-1.516 5.401-3.027 8.102-4.543-1.331-2.265-2.707-4.519-4.168-6.745z" fill="#81391c"/><path d="m480.635 764.522c1.979-19.158-3.757-41.043-16.147-56.027-27.584-33.361-74.59-33.842-107.432-7.992-31.486 24.781-39.111 73.621-9.996 102.715-16.874-23.553-18.958-58.02-2.17-82.09 20.98-30.086 64.931-46.053 97.916-23.943 30.377 20.355 41.963 53.518 31.675 86.52 3.199-5.847 5.432-12.202 6.154-19.183z" fill="#df3f58"/><path d="m496.782 800.214c-2.049-1.102-3.342-3.287-2.275-6.176 4.398-11.904 6.184-24.131 5.887-36.801-.049-2.141.884-3.643 2.225-4.547.02-.018.045-.031.064-.045.102-.068.191-.145.297-.207.52-.377 1.113-.711 1.84-.926 5.341-1.602 10.724-3.334 15.875-5.527-.562-3.732-1.302-7.395-2.143-11.027 1.08 9.273-5.567 11.949-11.614 13.379-4.067.953-9.294 2.15-8.923 10.074.475 10.174-.528 20.666-6.6 34.932-2.505 5.895.637 9.326 4.072 11.414 1.318.799 2.64 1.596 3.906 2.463 4.532 3.104 4.67 6.549 1.577 10.996-2.416 3.473-5.207 6.971-9.821 5.416-2.232-.756-4.036-2.23-5.768-3.818-4.93-4.52-5.685-4.951-10.865.439-9.741 10.139-22.993 19.389-33.813 24.197-4.536 2.023-5.116 1.73-3.596 7.928.877 3.57 1.728 7.543 1.617 8.941-.364 4.596-4.084 5.631-8.087 6.502-4.67 1.021-7.584-.273-9.35-4.779-.816-2.082-1.549-4.197-2.174-6.338-1.555-5.348-3.039-6.467-8.384-6.561-11.238-.193-22.666-2.654-33.444-6.846-6.813-2.648-7.682-1.111-12.486 3.963-1.889 1.992-3.836 3.877-5.683 5.656-4.481 4.332-7.767 2.406-11.565-.336-4.117-2.965-5.23-4.584-2.543-9.957.587-1.174 1.186-2.354 1.813-3.514 3.566-6.592 4.262-9.73-2.68-15.893-7.783-6.908-14.104-14.725-18.201-22.963-.762-1.535-1.478-3.09-2.147-4.668-1.9-4.477-3.299-5.807-9.485-4.004-1.929.563-4.366.994-6.536 1.287-4.938.652-9.454 1.285-11.093-7.744-1.393-7.623 2.471-8.123 6.548-9.363 1.885-.586 3.769-1.17 5.648-1.764 6.672-2.092 7.583-6.221 7.255-13.223-.477-10.209.48-20.471 2.855-30.285.409-1.682.814-3.098 1.162-4.313 1.451-5.041 1.937-6.521-2.242-8.783-2.66-1.439-13.717-5.428-11.063-15.553-1.629 2.734-3.238 5.479-4.709 8.334 4.093 3.643 8.424 7.029 12.894 10.182.146.104.255.227.387.334 2.038 1.105 3.319 3.287 2.258 6.166-4.394 11.904-6.182 24.133-5.887 36.801.05 2.137-.882 3.639-2.218 4.543-.04.035-.094.063-.137.094-.076.055-.144.113-.225.158-.52.381-1.115.715-1.844.93-5.341 1.602-10.725 3.328-15.876 5.527 1.217 8.074 3.097 15.854 5.588 23.607 5.435-.32 10.856-1.084 16.206-2.006.155-.027.295-.018.445-.031 2.244-.756 4.756-.166 6.056 2.676 5.28 11.539 12.71 21.52 21.897 30.244 1.747 1.66 2.058 3.635 1.516 5.369-.107.617-.29 1.238-.634 1.877-2.643 4.893-5.197 9.893-7.276 15.07 6.531 4.824 13.334 8.984 20.536 12.695 3.641-4.098 7.029-8.428 10.18-12.898.104-.148.228-.256.338-.391 1.106-2.037 3.287-3.314 6.165-2.254 11.902 4.395 24.131 6.18 36.798 5.883 2.13-.049 3.624.877 4.533 2.203.513.59.927 1.322 1.196 2.223 1.592 5.342 3.326 10.721 5.522 15.871 8.073-1.215 15.854-3.1 23.608-5.586-.316-5.438-1.081-10.857-2.01-16.209-.027-.156-.018-.301-.033-.453-.75-2.24-.158-4.746 2.68-6.045 11.543-5.279 21.518-12.709 30.247-21.898 1.661-1.748 3.636-2.059 5.374-1.516.611.109 1.234.293 1.869.635 4.889 2.641 9.894 5.199 15.07 7.277 4.822-6.531 8.981-13.336 12.69-20.535-4.093-3.643-8.422-7.029-12.893-10.182-.139-.097-.242-.214-.371-.321z" fill="#df3f58"/><path d="m458.418 751.683c-.263 11.127-3.72 21.875-9.781 31.037 3.767 2.328 7.532 4.664 11.3 6.998 5.675-12.211 7.584-26.314 5.666-39.721-2.395.563-4.79 1.123-7.185 1.686z" fill="#f55091"/><path d="m413.568 807.315c-.562.135-1.093.328-1.661.453-10.331 2.254-20.126.576-28.817-3.646-1.745 2.82-3.489 5.639-5.237 8.455 11.721 6.363 25.338 9.174 38.673 7.33-.986-4.199-1.973-8.396-2.958-12.592z" fill="#f55091"/><path d="m346.895 746.552c-1.906 8.586-1.98 16.775-.521 24.361 2.042-.48 4.086-.961 6.127-1.439-2.763-7.065-4.772-15.03-5.606-22.922z" fill="#f55091"/><path d="m879.645 647.206c-8.882-1.688-17.948-2.496-26.955-3.035-.214-.014-.397-.064-.601-.096-2.244.004-4.366-1.227-4.953-4.133-2.04-10.064-5.192-19.672-9.268-28.891 2.006 9.408 3.355 18.924 4.025 28.469.72 10.154 4.859 9.988 11.714 10.537 8.599.688 15.937 3.508 17.2 11.512 1.198 7.598.915 15.08-7.5 17.504-3.339.959-6.752 1.498-10.199 1.795-9.746.822-13.031 4.119-15.415 14.49-3.254 14.113-8.243 27.879-15.118 40.971-7.083 13.496-9.329 15.975-1.322 23.045 3.808 3.363 8.836 7.24 10.389 12.377 1.957 6.467-7.265 15.744-12.637 18.334-6.042 2.92-14.452-.557-21.392-5.908-5.698-4.391-9.971-7.84-18.576-2.648-13.276 8.004-28.048 13.721-43.345 16.941-14.338 3.021-13.773 3.322-14.419 13.793-.29 4.689 1.21 10.986-.773 15.381-3.026 6.701-12.388 6.895-18.797 6.332-10.587-.936-12.313-12.07-12.147-22.865.145-9.184-5.219-10.783-16.275-13.68-14.378-3.77-27.604-10.408-39.621-18.871-8.66-6.104-15.516-4.008-20.803 2.77-1.938 2.482-3.926 4.912-6.357 6.783-7.313 5.625-9.852 2.85-15.806-2.744-6.215-5.846-8.711-11.648-3.667-19.33 1.664-2.531 3.519-4.889 5.493-7.141 5.619-6.41 5.961-12.711-.567-22.893-7.782-12.133-13.08-25.283-16.03-39.152-2.008-9.428-4.088-12.521-11.808-12.125-10.904.557-20.986-1.342-22.143-12.484-.616-5.938-.202-15.238 6.917-17.09 4.452-1.162 9.073-1.705 13.728-1.916 10.072-.465 11.396-2.367 13.288-12.242 2.574-13.469 6.926-26.723 12.979-38.678 3.793-7.492 9.115-16.459 4.771-24.893-4.336-8.41-10.627-17.014-17.097-24.447-2.011 2.217-4.001 4.467-5.943 6.777 5.089 7.475 10.917 14.463 16.907 21.215.16.18.272.373.405.557 1.533 1.605 2.116 3.971.492 6.418-10.51 15.85-17.285 33.23-21.18 51.809-.544 2.592-2.31 3.846-4.282 4.088-.496.168-1.025.293-1.616.33-9.006.539-18.075 1.348-26.955 3.035-1.187 13.613-1.181 26.947 0 40.561 8.882 1.682 17.949 2.502 26.955 3.037.214.012.4.066.603.094 2.242 0 4.362 1.232 4.949 4.133 3.773 18.641 11.255 35.73 21.639 51.625 1.433 2.189 1.109 4.309-.061 5.887-.238.5-.533.994-.951 1.467-5.99 6.75-11.818 13.738-16.91 21.209 8.788 10.461 18.217 19.883 28.678 28.674 7.473-5.09 14.459-10.918 21.207-16.908.18-.158.366-.266.551-.4 1.605-1.539 3.974-2.123 6.425-.5 15.851 10.506 33.232 17.283 51.813 21.178 2.595.545 3.85 2.313 4.086 4.287.164.498.292 1.025.328 1.613.537 9.004 1.352 18.07 3.038 26.957 13.613 1.184 26.945 1.174 40.56-.004 1.686-8.879 2.498-17.949 3.035-26.953.014-.215.065-.4.097-.602-.005-2.24 1.228-4.363 4.128-4.947 18.645-3.773 35.732-11.258 51.625-21.641 2.193-1.432 4.313-1.111 5.892.063.499.238.992.529 1.462.949 6.75 5.994 13.737 11.822 21.209 16.908 10.461-8.787 19.883-18.217 28.676-28.674-5.092-7.471-10.918-14.459-16.908-21.209-.155-.176-.264-.361-.394-.545-1.545-1.602-2.136-3.975-.508-6.432 10.51-15.852 17.288-33.23 21.18-51.813.542-2.592 2.31-3.846 4.282-4.088.496-.168 1.025-.293 1.618-.328 9.007-.535 18.073-1.355 26.955-3.037 1.184-13.615 1.178-26.949 0-40.562z" fill="#95b418"/><path d="m824.161 675.255c2.484-25.904-3.27-52.348-17.394-74.246-31.587-48.967-95.577-64.811-148.009-42.998-47.261 19.662-73.68 67.168-66.269 117.672.899 6.125 2.303 12.004 4.043 17.684-9.399-37.895-.418-79.17 31.09-108.301 42.68-39.459 114.322-45.387 157.384-2.203 38.219 38.326 45.774 92.488 22.717 137.682 8.766-13.341 14.788-28.087 16.438-45.29z" fill="#95b418"/><path d="m529.322 327.955c3.389 28.293-.875 57.439-10.518 84.091-.268.737-.592 1.438-.868 2.172 4.043 1.138 8.087 2.28 12.132 3.418 7.92-29.062 8.106-60.084-.746-89.681z" fill="#ff564d"/><path d="m241.087 445.775c-19.203-32.183-23.482-70.504-18.835-107.666-2.988-.841-5.975-1.682-8.963-2.522-10.506 38.528-7.083 80.547 13.46 118.222 4.779-2.682 9.559-5.358 14.338-8.034z" fill="#ff564d"/><path d="m449.056 521.864c-3.764-6.713-7.526-13.432-11.29-20.146-11.552 5.746-23.789 10.23-36.505 13.209-22.156 5.184-44.211 4.893-65.054.035-1.896 6.736-3.796 13.475-5.691 20.211 38.504 10.064 80.578 6.252 118.54-13.309z" fill="#ff564d"/><path d="m282.278 225.385c80.761-46.305 193.36-24.326 240.512 59.841 30.14 53.802 31 115.001 7.066 166.095 20.926-35.047 25.932-81.721 17.215-120.172-10.967-48.374-38.078-92.259-82.391-116.234-43.534-23.561-99.596-28.197-146.981-15.246-44.135 12.066-80.985 42.303-102.762 82.297-18.298 33.609-23.616 72.407-17.245 108.764-5.388-64.979 23.656-130.411 84.586-165.345z" fill="#ef6200"/><path d="m584.602 398.819c-.193-.067-.349-.162-.526-.243-2.181-.58-3.917-2.33-3.701-5.307 2.018-27.695-1.704-54.634-9.961-81.096-.715-2.289-.036-4.143 1.272-5.383.418-.59.96-1.139 1.678-1.598 11.704-7.51 23.32-15.457 33.905-24.523-2.8-6.297-5.817-12.399-8.941-18.43 1.132 18.025-16.631 22.747-27.17 32.614-4.588 4.295-8.921 9.206-7.908 15.542 3.995 25.033 9.723 37.887 6.977 76.199-1.061 14.814 2.865 20.76 14.925 23.503 14.44 3.282 26.836 7.744 21.097 27.2-1.443 4.896-4.616 22.455-11.508 22.972-7.3.544-15.049-.261-22.703-1.772-13.453-2.662-16.064-2.838-24.843 12.606-10.524 18.523-24.479 35.109-40.144 49.426-13.377 12.232-13.783 18.096-6.557 32.596 4.707 9.445 11.221 21.025 1.7 29.84-9.193 8.504-25.037 18.25-37.058 10.344-5.019-3.301-8.448-9.084-11.536-14.504-7.135-12.533-9.74-17.355-29.951-11.514-21.207 6.145-43.387 8.906-65.648 7.902-16.077-.719-19.602 3.021-21.816 15.246-1.142 6.314-4.033 12.592-6.91 18.412-4.483 9.07-16.788 5.258-24.609 2.955-9.512-2.803-19.063-5.541-18.065-17.09.488-5.645 1.633-11.141 3.007-16.586 3.092-12.266.793-17.684-8.559-22.109-24.326-11.508-46.149-27.902-63.34-48.545-8.57-10.299-11.77-10.307-26.125-2.096-3.918 2.24-7.979 4.346-12.116 5.492-10.813 2.994-15.567-4.277-19.914-13.461-4.264-9.007-8.237-17.845-1.714-26.655 3.344-4.52 8.075-7.798 13.211-10.609 11.027-6.025 13.613-12.074 9.23-27.491-2.396-8.415-4.409-16.933-6.096-25.464-2.449-12.399-3.775-24.996-4.131-37.625-.189-6.729.641-13.784-1.055-20.377-2.348-9.139-21.324-12.629-27.639-16.461-10.197-6.188-12.768-16.1-13.651-26.781-3.063 10.658-5.63 21.447-7.67 32.538 12.381 6.319 25.452 11.324 38.56 15.876.193.067.349.162.526.242 2.182.58 3.915 2.33 3.699 5.307-2.021 27.695 1.702 54.635 9.962 81.096.715 2.295.033 4.152-1.282 5.393-.416.585-.956 1.129-1.671 1.588-11.706 7.511-23.32 15.462-33.905 24.528 8.653 19.451 18.771 37.471 30.854 55.012 13.195-4.287 25.963-9.967 38.42-16.008.174-.084.342-.121.514-.188 1.965-1.197 4.483-1.225 6.462 1.088 18.032 21.043 39.896 37.574 64.446 50.334 2.233 1.16 3.019 3.066 2.854 4.951.085.656.085 1.35-.079 2.105-2.964 13.568-5.545 27.365-6.615 41.24 19.869 7.65 39.771 13.244 60.719 17.1 6.316-12.383 11.321-25.455 15.866-38.561.065-.189.161-.342.24-.521.575-2.182 2.327-3.922 5.31-3.707 27.694 2.025 54.633-1.699 81.094-9.957 2.281-.715 4.135-.045 5.374 1.26.598.418 1.149.967 1.614 1.691 7.504 11.701 15.455 23.322 24.521 33.904 19.451-8.652 37.475-18.768 55.012-30.846-4.279-13.201-9.962-25.969-16-38.426-.082-.172-.121-.338-.186-.504-1.201-1.969-1.23-4.488 1.083-6.471 21.046-18.035 37.577-39.9 50.337-64.451 1.162-2.239 3.078-3.022 4.965-2.852.654-.081 1.347-.081 2.096.081 13.566 2.964 27.364 5.541 41.236 6.611 7.647-19.869 13.244-39.774 17.096-60.715-12.38-6.315-25.454-11.321-38.559-15.867z" fill="#ef6200"/><path d="m447.397 713.95c1.055 1.656 2.068 3.342 2.979 5.092 4.095 7.869 6.083 16.852 6.759 25.846 2.382-.559 4.764-1.119 7.145-1.678-2.768-11.221-8.416-21.488-16.883-29.26z" fill="#ed7490"/><path d="m423.294 818.532c12.139-3.203 23.684-10.557 32.945-22.982-3.211-1.988-6.425-3.98-9.638-5.973-6.283 8.402-15.138 14.463-26.069 17.193.92 3.922 1.842 7.84 2.762 11.762z" fill="#ed7490"/><path d="m362.09 774.313c-4.652 1.098-9.308 2.189-13.96 3.283 4.198 12.984 12.867 23.813 23.85 31.346 2.334-3.768 4.67-7.537 7.005-11.305-7.391-6.113-13.189-14.32-16.895-23.324z" fill="#ed7490"/><path d="m372.908 708.792c-6.732 4.125-12.655 9.557-17.183 16.371 2.107 1.309 4.215 2.611 6.321 3.916 2.792-6.978 6.628-13.654 10.862-20.287z" fill="#ed7490"/><path d="m635.029 722.05c-11.768-13.666-17.977-31.66-19.211-49.461-.038-.539-.061-1.102-.094-1.65-3.77 0-7.535 0-11.305 0 .191 24.123 8.862 47.959 27.428 66.83 3.107-3.107 6.217-6.215 9.324-9.322-2.138-2.048-4.216-4.157-6.142-6.397z" fill="#6db4a6"/><path d="m731.835 752.7c-6.998 1.947-14.178 2.908-21.366 3.049v14.221c23.845-.707 47.422-9.828 66.918-27.227-3.663-3.662-7.324-7.326-10.987-10.988-9.445 9.701-20.989 17.166-34.565 20.945z" fill="#6db4a6"/><path d="m809.628 664.03c-.313-24.381-8.999-48.441-26.941-67.33-1.102 1.102-2.203 2.205-3.306 3.307.461.633.944 1.25 1.395 1.893 11.495 16.461 15.322 35.139 15.134 54.918-.023 2.393-.138 4.803-.32 7.213 4.679-.001 9.358-.001 14.038-.001z" fill="#6db4a6"/><g fill="#68182b"><path d="m320.653 198.396c18.134-5.108 36.629-4.776 55.25-5.675.68-.032.846-1.013.162-1.201-34.097-9.395-78.42 3.211-103.459 27.965-.299.297.079.755.437.566 15.65-8.317 30.397-16.807 47.61-21.655z"/><path d="m390.405 194.236c.335-.068.359-.473.182-.693-1.848-2.303-6.948-3.611-9.156-1.088-.121.139-.121.318 0 .459.854.98 2.104 1.223 3.368 1.322 1.985.161 3.636.391 5.606 0z"/><path d="m426.432 553.729c-12.264 2.369-24.411 5.131-36.849 6.471-12.446 1.34-24.825.145-37.282.148-.207 0-.238.293-.048.355 22.926 7.375 52.855 3.85 74.553-6.09.531-.241.132-.983-.374-.884z"/><path d="m438.544 548.058c-2.771.494-6.194 1.732-7.953 4.074-.316.428.119.994.576 1.004 3.031.059 6.381-1.889 7.825-4.498.18-.319-.112-.639-.448-.58z"/><path d="m467.793 810.724c-19.013 19.842-42.143 28.01-69.438 27.955-.521 0-.648.801-.124.918 23.496 5.244 58.758-5.193 70.041-28.504.146-.297-.227-.635-.479-.369z"/><path d="m474.653 800.128c-1.322.846-1.569 2.23-2.182 3.59-.649 1.434-1.508 2.9-2.379 4.219-.101.152.031.391.219.377 3.083-.203 6.892-5.051 5.055-7.996-.144-.235-.468-.346-.713-.19z"/><path d="m737.259 549.587c.641.148 1.066-.752.457-1.084-19.582-10.676-52.369-8.393-71.278 3.094-.331.203-.114.725.263.625 24.103-6.328 46.043-8.346 70.558-2.635z"/><path d="m748.355 552.884c.299-.037.532-.324.357-.621-1.473-2.5-5.296-3.445-7.922-2.393-.223.09-.336.428-.074.563 2.277 1.156 5.032 2.779 7.639 2.451z"/><path d="m709.349 790.288c-29.3-4.543-55.913-6.953-78.876-27.83-.146-.135-.407.045-.284.217 16.33 22.707 52.417 32.119 79.021 28.639.524-.069.776-.926.139-1.026z"/><path d="m714.546 790.374c-.441.355-.037.975.42 1.012 1.421.111 2.672.055 4.104-.037 1.451-.09 2.543.176 3.725-.791.161-.131.182-.414.074-.584-1.704-2.721-6.329-1.215-8.323.4z"/></g></g></g></svg>