<?xml version="1.0" encoding="UTF-8" standalone="no"?>
<!-- Created with Inkscape (http://www.inkscape.org/) -->

<svg
   version="1.1"
   id="svg837"
   xml:space="preserve"
   width="682.66669"
   height="682.66669"
   viewBox="0 0 682.66669 682.66669"
   xmlns="http://www.w3.org/2000/svg"
   xmlns:svg="http://www.w3.org/2000/svg"><defs
     id="defs841"><clipPath
       clipPathUnits="userSpaceOnUse"
       id="clipPath851"><path
         d="M 0,512 H 512 V 0 H 0 Z"
         id="path849" /></clipPath></defs><g
     id="g843"
     transform="matrix(1.3333333,0,0,-1.3333333,0,682.66667)"><g
       id="g845"><g
         id="g847"
         clip-path="url(#clipPath851)"><g
           id="g853"
           transform="translate(7.5,7.5)"><path
             d="M 0,0 H 497 V 17.5 C 497,27.165 489.165,35 479.5,35 H 17.5 C 7.835,35 0,27.165 0,17.5 Z"
             style="fill:#688ea6;fill-opacity:1;fill-rule:nonzero;stroke:none"
             id="path855" /></g><g
           id="g857"
           transform="translate(487,42.5)"><path
             d="m 0,0 h -40 c 9.665,0 17.5,-7.835 17.5,-17.5 V -35 h 40 v 17.5 C 17.5,-7.835 9.665,0 0,0"
             style="fill:#5685a2;fill-opacity:1;fill-rule:nonzero;stroke:none"
             id="path859" /></g><g
           id="g861"
           transform="translate(333.5,42.5)"><path
             d="m 0,0 h 155 v 161 c 0,11.046 -8.954,20 -20,20 H 0 Z"
             style="fill:#ff9d00;fill-opacity:1;fill-rule:nonzero;stroke:none"
             id="path863" /></g><g
           id="g865"
           transform="translate(468.5,223.5)"><path
             d="m 0,0 h -40 c 11.046,0 20,-8.954 20,-20 V -181 H 20 V -20 C 20,-8.954 11.046,0 0,0"
             style="fill:#f78c00;fill-opacity:1;fill-rule:nonzero;stroke:none"
             id="path867" /></g><g
           id="g869"
           transform="translate(178.5,42.5)"><path
             d="m 0,0 h 155 v 242.19 c 0,11.045 -8.954,20 -20,20 H 20 c -11.046,0 -20,-8.955 -20,-20 z"
             style="fill:#ffee03;fill-opacity:1;fill-rule:nonzero;stroke:none"
             id="path871" /></g><g
           id="g873"
           transform="translate(313.5,304.6899)"><path
             d="m 0,0 h -40 c 11.046,0 20,-8.955 20,-20 V -262.19 H 20 V -20 C 20,-8.955 11.046,0 0,0"
             style="fill:#ffe203;fill-opacity:1;fill-rule:nonzero;stroke:none"
             id="path875" /></g><g
           id="g877"
           transform="translate(23.5,42.5)"><path
             d="M 0,0 H 155 V 214.129 H 20 c -11.046,0 -20,-8.954 -20,-20 z"
             style="fill:#ff9d00;fill-opacity:1;fill-rule:nonzero;stroke:none"
             id="path879" /></g><path
           d="m 138.5,42.5 h 40 v 214.129 h -40 z"
           style="fill:#f78c00;fill-opacity:1;fill-rule:nonzero;stroke:none"
           id="path881" /><g
           id="g883"
           transform="translate(266.1367,496.9336)"><path
             d="m 0,0 15.346,-31.094 c 1.646,-3.336 4.829,-5.649 8.51,-6.184 l 34.315,-4.986 c 9.271,-1.347 12.974,-12.741 6.265,-19.28 L 39.605,-85.748 c -2.664,-2.597 -3.879,-6.338 -3.251,-10.005 l 5.862,-34.175 c 1.584,-9.235 -8.109,-16.276 -16.402,-11.917 l -30.691,16.136 c -3.293,1.731 -7.227,1.731 -10.519,0 l -30.692,-16.136 c -8.293,-4.359 -17.985,2.682 -16.401,11.917 l 5.861,34.175 c 0.629,3.667 -0.587,7.408 -3.251,10.005 l -24.83,24.204 c -6.709,6.539 -3.007,17.933 6.265,19.28 l 34.314,4.986 c 3.682,0.535 6.864,2.848 8.511,6.184 L -20.273,0 C -16.127,8.401 -4.146,8.401 0,0"
             style="fill:#ffee03;fill-opacity:1;fill-rule:nonzero;stroke:none"
             id="path885" /></g><g
           id="g887"
           transform="translate(324.3076,454.6699)"><path
             d="m 0,0 -34.314,4.986 c -3.682,0.535 -6.865,2.847 -8.511,6.183 l -15.346,31.095 c -2.073,4.2 -6.105,6.3 -10.137,6.3 V -82.147 c 1.807,0 3.614,-0.433 5.26,-1.298 l 30.692,-16.136 c 8.293,-4.359 17.985,2.682 16.401,11.916 l -5.861,34.176 c -0.629,3.667 0.587,7.408 3.251,10.005 l 24.83,24.203 C 12.974,-12.741 9.271,-1.347 0,0"
             style="fill:#ffe203;fill-opacity:1;fill-rule:nonzero;stroke:none"
             id="path889" /></g><g
           id="g891"
           transform="translate(119.1094,373.4897)"><path
             d="M 0,0 V 41"
             style="fill:none;stroke:#000000;stroke-width:15;stroke-linecap:round;stroke-linejoin:round;stroke-miterlimit:10;stroke-dasharray:none;stroke-opacity:1"
             id="path893" /></g><g
           id="g895"
           transform="translate(98.6094,393.9897)"><path
             d="M 0,0 H 41"
             style="fill:none;stroke:#000000;stroke-width:15;stroke-linecap:round;stroke-linejoin:round;stroke-miterlimit:10;stroke-dasharray:none;stroke-opacity:1"
             id="path897" /></g><g
           id="g899"
           transform="translate(49.1846,463.5)"><path
             d="M 0,0 V 41"
             style="fill:none;stroke:#000000;stroke-width:15;stroke-linecap:round;stroke-linejoin:round;stroke-miterlimit:10;stroke-dasharray:none;stroke-opacity:1"
             id="path901" /></g><g
           id="g903"
           transform="translate(28.6846,484)"><path
             d="M 0,0 H 41"
             style="fill:none;stroke:#000000;stroke-width:15;stroke-linecap:round;stroke-linejoin:round;stroke-miterlimit:10;stroke-dasharray:none;stroke-opacity:1"
             id="path905" /></g><g
           id="g907"
           transform="translate(28,299.8779)"><path
             d="M 0,0 V 41"
             style="fill:none;stroke:#000000;stroke-width:15;stroke-linecap:round;stroke-linejoin:round;stroke-miterlimit:10;stroke-dasharray:none;stroke-opacity:1"
             id="path909" /></g><g
           id="g911"
           transform="translate(7.5,320.3779)"><path
             d="M 0,0 H 41"
             style="fill:none;stroke:#000000;stroke-width:15;stroke-linecap:round;stroke-linejoin:round;stroke-miterlimit:10;stroke-dasharray:none;stroke-opacity:1"
             id="path913" /></g><g
           id="g915"
           transform="translate(392.8906,373.4897)"><path
             d="M 0,0 V 41"
             style="fill:none;stroke:#000000;stroke-width:15;stroke-linecap:round;stroke-linejoin:round;stroke-miterlimit:10;stroke-dasharray:none;stroke-opacity:1"
             id="path917" /></g><g
           id="g919"
           transform="translate(413.3906,393.9897)"><path
             d="M 0,0 H -41"
             style="fill:none;stroke:#000000;stroke-width:15;stroke-linecap:round;stroke-linejoin:round;stroke-miterlimit:10;stroke-dasharray:none;stroke-opacity:1"
             id="path921" /></g><g
           id="g923"
           transform="translate(462.8154,463.5)"><path
             d="M 0,0 V 41"
             style="fill:none;stroke:#000000;stroke-width:15;stroke-linecap:round;stroke-linejoin:round;stroke-miterlimit:10;stroke-dasharray:none;stroke-opacity:1"
             id="path925" /></g><g
           id="g927"
           transform="translate(483.3154,484)"><path
             d="M 0,0 H -41"
             style="fill:none;stroke:#000000;stroke-width:15;stroke-linecap:round;stroke-linejoin:round;stroke-miterlimit:10;stroke-dasharray:none;stroke-opacity:1"
             id="path929" /></g><g
           id="g931"
           transform="translate(484,299.8779)"><path
             d="M 0,0 V 41"
             style="fill:none;stroke:#000000;stroke-width:15;stroke-linecap:round;stroke-linejoin:round;stroke-miterlimit:10;stroke-dasharray:none;stroke-opacity:1"
             id="path933" /></g><g
           id="g935"
           transform="translate(504.5,320.3779)"><path
             d="M 0,0 H -41"
             style="fill:none;stroke:#000000;stroke-width:15;stroke-linecap:round;stroke-linejoin:round;stroke-miterlimit:10;stroke-dasharray:none;stroke-opacity:1"
             id="path937" /></g><g
           id="g939"
           transform="translate(120.333,7.5)"><path
             d="m 0,0 h 384.167 v 17.5 c 0,9.665 -7.835,17.5 -17.5,17.5"
             style="fill:none;stroke:#000000;stroke-width:15;stroke-linecap:round;stroke-linejoin:round;stroke-miterlimit:10;stroke-dasharray:none;stroke-opacity:1"
             id="path941" /></g><g
           id="g943"
           transform="translate(25,42.5)"><path
             d="M 0,0 C -9.665,0 -17.5,-7.835 -17.5,-17.5 V -35 h 71.167"
             style="fill:none;stroke:#000000;stroke-width:15;stroke-linecap:round;stroke-linejoin:round;stroke-miterlimit:10;stroke-dasharray:none;stroke-opacity:1"
             id="path945" /></g><g
           id="g947"
           transform="translate(389.9922,223.5)"><path
             d="m 0,0 h -56.492 v -181 h 155 v 161 c 0,11.046 -8.954,20 -20,20 H 39.963"
             style="fill:none;stroke:#000000;stroke-width:15;stroke-linecap:round;stroke-linejoin:round;stroke-miterlimit:10;stroke-dasharray:none;stroke-opacity:1"
             id="path949" /></g><g
           id="g951"
           transform="translate(178.5,42.5)"><path
             d="m 0,0 h 155 v 242.19 c 0,11.045 -8.954,20 -20,20 H 20 c -11.046,0 -20,-8.955 -20,-20 z"
             style="fill:none;stroke:#000000;stroke-width:15;stroke-linecap:round;stroke-linejoin:round;stroke-miterlimit:10;stroke-dasharray:none;stroke-opacity:1"
             id="path953" /></g><g
           id="g955"
           transform="translate(23.5,42.5)"><path
             d="M 0,0 H 155 V 214.129 H 20 c -11.046,0 -20,-8.954 -20,-20 z"
             style="fill:none;stroke:#000000;stroke-width:15;stroke-linecap:round;stroke-linejoin:round;stroke-miterlimit:10;stroke-dasharray:none;stroke-opacity:1"
             id="path957" /></g><g
           id="g959"
           transform="translate(243.9541,256)"><path
             d="M 0,0 H 14.092 V -65.929"
             style="fill:none;stroke:#000000;stroke-width:15;stroke-linecap:round;stroke-linejoin:round;stroke-miterlimit:10;stroke-dasharray:none;stroke-opacity:1"
             id="path961" /></g><g
           id="g963"
           transform="translate(119.1094,147.3413)"><path
             d="m 0,0 c 0,0 -34.699,-0.403 -36.219,0.104 0,0 33.424,32.342 33.424,50.093 0,9.318 -7.553,16.87 -16.87,16.87 -8.198,0 -15.03,-5.848 -16.554,-13.6"
             style="fill:none;stroke:#000000;stroke-width:15;stroke-linecap:round;stroke-linejoin:round;stroke-miterlimit:10;stroke-dasharray:none;stroke-opacity:1"
             id="path965" /></g><g
           id="g967"
           transform="translate(394.4463,167.3291)"><path
             d="m 0,0 c 1.522,7.752 8.355,13.6 16.554,13.6 9.317,0 16.87,-7.553 16.87,-16.87 0,-9.317 -7.553,-16.87 -16.87,-16.87"
             style="fill:none;stroke:#000000;stroke-width:15;stroke-linecap:round;stroke-linejoin:round;stroke-miterlimit:10;stroke-dasharray:none;stroke-opacity:1"
             id="path969" /></g><g
           id="g971"
           transform="translate(411,147.189)"><path
             d="m 0,0 c 9.317,0 16.87,-7.553 16.87,-16.87 0,-9.317 -7.553,-16.87 -16.87,-16.87 -8.519,0 -15.563,6.314 -16.707,14.517 -0.107,0.769 -0.163,1.555 -0.163,2.353"
             style="fill:none;stroke:#000000;stroke-width:15;stroke-linecap:round;stroke-linejoin:round;stroke-miterlimit:10;stroke-dasharray:none;stroke-opacity:1"
             id="path973" /></g><g
           id="g975"
           transform="translate(65.0215,81.2598)"><path
             d="M 0,0 H 71.957"
             style="fill:none;stroke:#000000;stroke-width:15;stroke-linecap:round;stroke-linejoin:round;stroke-miterlimit:10;stroke-dasharray:none;stroke-opacity:1"
             id="path977" /></g><g
           id="g979"
           transform="translate(375.0215,81.2598)"><path
             d="M 0,0 H 71.957"
             style="fill:none;stroke:#000000;stroke-width:15;stroke-linecap:round;stroke-linejoin:round;stroke-miterlimit:10;stroke-dasharray:none;stroke-opacity:1"
             id="path981" /></g><g
           id="g983"
           transform="translate(65.0215,115)"><path
             d="M 0,0 H 71.957"
             style="fill:none;stroke:#000000;stroke-width:15;stroke-linecap:round;stroke-linejoin:round;stroke-miterlimit:10;stroke-dasharray:none;stroke-opacity:1"
             id="path985" /></g><g
           id="g987"
           transform="translate(220.0215,81.2598)"><path
             d="M 0,0 H 71.957"
             style="fill:none;stroke:#000000;stroke-width:15;stroke-linecap:round;stroke-linejoin:round;stroke-miterlimit:10;stroke-dasharray:none;stroke-opacity:1"
             id="path989" /></g><g
           id="g991"
           transform="translate(220.0215,115)"><path
             d="M 0,0 H 71.957"
             style="fill:none;stroke:#000000;stroke-width:15;stroke-linecap:round;stroke-linejoin:round;stroke-miterlimit:10;stroke-dasharray:none;stroke-opacity:1"
             id="path993" /></g><g
           id="g995"
           transform="translate(220.0215,148.7402)"><path
             d="M 0,0 H 71.957"
             style="fill:none;stroke:#000000;stroke-width:15;stroke-linecap:round;stroke-linejoin:round;stroke-miterlimit:10;stroke-dasharray:none;stroke-opacity:1"
             id="path997" /></g><g
           id="g999"
           transform="translate(266.1367,496.9336)"><path
             d="m 0,0 15.346,-31.094 c 1.646,-3.336 4.829,-5.649 8.51,-6.184 l 34.315,-4.986 c 9.271,-1.347 12.974,-12.741 6.265,-19.28 L 39.605,-85.748 c -2.664,-2.597 -3.879,-6.338 -3.251,-10.005 l 5.862,-34.175 c 1.584,-9.235 -8.109,-16.276 -16.402,-11.917 l -30.691,16.136 c -3.293,1.731 -7.227,1.731 -10.519,0 l -30.692,-16.136 c -8.293,-4.359 -17.985,2.682 -16.401,11.917 l 5.861,34.175 c 0.629,3.667 -0.587,7.408 -3.251,10.005 l -24.83,24.204 c -6.709,6.539 -3.007,17.933 6.265,19.28 l 34.314,4.986 c 3.682,0.535 6.864,2.848 8.511,6.184 L -20.273,0 C -16.127,8.401 -4.146,8.401 0,0 Z"
             style="fill:none;stroke:#000000;stroke-width:15;stroke-linecap:round;stroke-linejoin:round;stroke-miterlimit:10;stroke-dasharray:none;stroke-opacity:1"
             id="path1001" /></g></g></g></g></svg>
