<svg id="Layer_1" viewBox="0 0 64 64" xmlns="http://www.w3.org/2000/svg" data-name="Layer 1"><path d="m54.874 21.631c.019-.268.038-.518.038-.787a9.947 9.947 0 0 0 -9.945-9.944 7.363 7.363 0 0 0 -1.593.154 10.711 10.711 0 0 0 -2.474-2.245 3.832 3.832 0 0 0 -5.861 3.274v39.863a3.852 3.852 0 0 0 6.021 3.178 10.856 10.856 0 0 0 3.424-3.792 8.057 8.057 0 0 0 3.648.864 8.321 8.321 0 0 0 8.333-8.313 8.185 8.185 0 0 0 -1.165-4.243 10.712 10.712 0 0 0 -.422-18.009z" fill="#de0a56"/><path d="m60 30.77a10.718 10.718 0 0 0 -5.126-9.139c.019-.268.038-.518.038-.787a9.941 9.941 0 0 0 -8.323-9.8 9.941 9.941 0 0 1 5.323 8.8c0 .269-.019.519-.038.787a10.691 10.691 0 0 1 1.718 16.955 10.576 10.576 0 0 1 -1.3 1.054 8.185 8.185 0 0 1 1.172 4.243 8.321 8.321 0 0 1 -8.329 8.317c-.192 0-.38-.021-.569-.034a8.023 8.023 0 0 1 -3.079-.83 10.856 10.856 0 0 1 -3.424 3.792 3.816 3.816 0 0 1 -1.785.648 3.842 3.842 0 0 0 4.785.352 10.856 10.856 0 0 0 3.424-3.792 8.057 8.057 0 0 0 3.648.864 8.321 8.321 0 0 0 8.333-8.313 8.185 8.185 0 0 0 -1.168-4.247 10.689 10.689 0 0 0 4.7-8.87z" fill="#aa0b5b"/><path d="m35.917 4-19.451 35 17.668-4-6.051 25 19.451-35-17.668 4z" fill="#1174e9"/><path d="m30.296 27.223 5.621-23.223-5.743 10.334-3.308 13.666z" fill="#154ece"/><path d="m47.534 25-4.067.921-12.641 22.745-2.743 11.334z" fill="#154ece"/><path d="m23.1 8.809a10.711 10.711 0 0 0 -2.471 2.244 7.363 7.363 0 0 0 -1.593-.154 9.947 9.947 0 0 0 -9.945 9.945c0 .269.019.519.038.787a10.712 10.712 0 0 0 -.429 18.009 8.185 8.185 0 0 0 -1.172 4.243 8.321 8.321 0 0 0 8.337 8.317 8.057 8.057 0 0 0 3.648-.864 10.856 10.856 0 0 0 3.424 3.792 3.852 3.852 0 0 0 6.021-3.178v-39.867a3.832 3.832 0 0 0 -5.858-3.274z" fill="#ffa10b"/><path d="m24.7 8.231a3.827 3.827 0 0 1 1.263 2.852v39.863a3.847 3.847 0 0 1 -3.47 3.831c.15.115.292.24.449.347a3.852 3.852 0 0 0 6.021-3.178v-39.863a3.881 3.881 0 0 0 -4.263-3.852z" fill="#f77208"/><path d="m28.939 21.56a1.005 1.005 0 1 0 -1-1 1 1 0 0 0 1 1z"/><path d="m55.91 21.11v-.26a10.958 10.958 0 0 0 -10.94-10.95 8.815 8.815 0 0 0 -1.2.07 12.012 12.012 0 0 0 -2.32-2 4.679 4.679 0 0 0 -2.55-.77 4.783 4.783 0 0 0 -2.986 1.065l.976-4.03a1 1 0 0 0 -1.846-.721l-5.1 9.183v-.607a4.9 4.9 0 0 0 -4.854-4.89 4.615 4.615 0 0 0 -2.56.78 11.826 11.826 0 0 0 -2.31 1.99 10.916 10.916 0 0 0 -12.151 10.88c0 .09.011.18.011.26a11.725 11.725 0 0 0 -.68 18.83 9.308 9.308 0 0 0 -.67 5.91 1.007 1.007 0 0 0 .981.79.749.749 0 0 0 .21-.02 1 1 0 0 0 .76-1.19 7.3 7.3 0 0 1 .319-4.117c.069-.179.143-.355.223-.53.1-.2.193-.4.311-.6l.014-.027c.005-.007.012-.013.017-.021a7.284 7.284 0 0 1 5.006-3.479.983.983 0 0 0 .789-1.173 1.024 1.024 0 0 0 -1.173-.79 9.19 9.19 0 0 0 -5.721 3.51 9.68 9.68 0 0 1 1.174-15.713 1 1 0 0 0 .469-.92l-.009-.07c-.01-.24-.031-.45-.031-.65a8.986 8.986 0 0 1 7.552-8.827v.008a8.8 8.8 0 0 1 1.2-.12h.009a12.055 12.055 0 0 0 -1.1 9.207 11.825 11.825 0 0 0 2.589 4.558 1 1 0 0 0 1.477-1.35 10.215 10.215 0 0 1 -2.151-3.784c-.593-1.862-.7-6.148 1.746-8.844.016-.018.011-.027.02-.042a9.864 9.864 0 0 1 2.217-2 2.666 2.666 0 0 1 1.46-.45 2.927 2.927 0 0 1 2.849 2.89v5.47a1 1 0 0 0 1 1h.019v.024l.015-.027a.992.992 0 0 0 .966-.993v-.745l3.273-5.889-3.283 13.564a.989.989 0 0 0 -1.977.062l-.011 27.39a2.878 2.878 0 0 1 -2.859 2.848 2.773 2.773 0 0 1 -1.59-.5 9.9 9.9 0 0 1 -2.6-2.621h.01c-.176-.258-.348-.518-.5-.791-.007-.014-.006-.029-.014-.042a9.64 9.64 0 0 1 -1-6.219 1 1 0 0 0 -1.972-.334 11.651 11.651 0 0 0 .74 6.516 7.437 7.437 0 0 1 -5.925-.559 1.027 1.027 0 0 0 -1.37.37 1 1 0 0 0 .381 1.36c0 .01 0 .01.01.01a9.372 9.372 0 0 0 7.84.62 11.834 11.834 0 0 0 3.269 3.34 4.761 4.761 0 0 0 2.721.85 4.981 4.981 0 0 0 3.005-1.057l-.974 4.022a1 1 0 0 0 1.846.721l5.083-9.146v.61a4.889 4.889 0 0 0 4.87 4.85 4.751 4.751 0 0 0 2.71-.85 11.6 11.6 0 0 0 3.27-3.35 8.916 8.916 0 0 0 3.25.59 9.309 9.309 0 0 0 8.45-13.26c.26-.21.53-.44.78-.68a.968.968 0 0 0 .31-.7 1.016 1.016 0 0 0 -.27-.72 1.037 1.037 0 0 0 -1.42-.03c-.146.138-.3.271-.461.4a9.191 9.191 0 0 0 -5.717-3.5 1.024 1.024 0 0 0 -1.173.79.983.983 0 0 0 .789 1.173 7.284 7.284 0 0 1 5.006 3.479v.005a7.38 7.38 0 0 1 .387.756c.04.093.08.186.118.28a7.19 7.19 0 0 1 .526 2.694 7.358 7.358 0 0 1 -7.33 7.32 7.143 7.143 0 0 1 -2.3-.385 11.652 11.652 0 0 0 .741-6.518 1 1 0 0 0 -1.972.334 9.609 9.609 0 0 1 -.993 6.208c0 .006-.009.009-.012.015a9.908 9.908 0 0 1 -3.099 3.449 2.82 2.82 0 0 1 -1.59.5 2.881 2.881 0 0 1 -2.87-2.85v-4.209l12.368-22.255a1 1 0 0 0 -1.095-1.461l-2.807.636a11.805 11.805 0 0 0 1.762-3.544 12.052 12.052 0 0 0 -1.095-9.206h.021a8.8 8.8 0 0 1 1.189.119v-.006a8.978 8.978 0 0 1 7.53 8.825c0 .22-.011.45-.03.71a.978.978 0 0 0 .47.92 9.794 9.794 0 0 1 4.647 8.291 9.419 9.419 0 0 1 -.12 1.51 1.021 1.021 0 0 0 .18.74.981.981 0 0 0 .66.4.752.752 0 0 0 .15.01.99.99 0 0 0 .98-.83c.009 0 .009-.01.009-.01a11.954 11.954 0 0 0 .141-1.82 11.712 11.712 0 0 0 -5.09-9.66zm-21.87-5.105v10.565a.974.974 0 0 0 .111.435l-2.934.664zm-4.1 20.97 2.844-.644-2.845 11.749zm.849 16.1 4.311-17.84a1 1 0 0 0 -.966-1.235.979.979 0 0 0 -.221.025l-3.974.9v-4.936a.916.916 0 0 0 .148-.014l15.486-3.506zm13.564-32.534a10.215 10.215 0 0 1 -2.153 3.784.985.985 0 0 0 -.215.906l-5.948 1.346v-14.497a2.913 2.913 0 0 1 2.863-2.88 2.653 2.653 0 0 1 1.451.44 9.676 9.676 0 0 1 2.24 2.04c0 .006.012.009.017.015 2.446 2.698 2.338 6.984 1.745 8.846z"/><path d="m9.444 50.21a1.006 1.006 0 1 0 -1-1 1 1 0 0 0 1 1z"/><path d="m59 36.3a1.005 1.005 0 1 0 -1-1 1 1 0 0 0 1 1z"/></svg>