<svg id="Layer_1" enable-background="new 0 0 512 512" viewBox="0 0 512 512" xmlns="http://www.w3.org/2000/svg"><g id="Layer_2_00000183959623340730607260000014605069072489251259_"><g id="Layer_2_copy_3"><g id="_61"><path d="m108.9 512c-43.6 0-79-35.3-79.1-78.9 0-12.1 2.8-24.1 8.1-35 59.7-120.5 205.7-169.7 326.1-110.1 47.8 23.6 86.4 62.3 110.1 110.1 19.3 39.1 3.2 86.5-35.9 105.8-10.9 5.4-22.9 8.2-35 8.1z"/><path d="m403.1 506c54.1 0 89.6-56.8 65.6-105.3-58.2-117.5-200.6-165.5-318-107.3-46.6 23.1-84.3 60.8-107.3 107.3-24.1 48.5 11.4 105.3 65.5 105.3z" fill="#4898fd"/><circle cx="256" cy="115.8" r="115.8"/><circle cx="256" cy="115.8" fill="#4898fd" r="109.8"/></g></g></g></svg>