<svg version="1.1" id="Capa_1" xmlns="http://www.w3.org/2000/svg" xmlns:xlink="http://www.w3.org/1999/xlink" x="0px" y="0px" viewBox="0 0 509.991 509.991" style="enable-background:new 0 0 509.991 509.991;" xml:space="preserve">
<g>
	<g>
		<g>
			<g>
				<path style="fill:#FD7DA0;" d="M208.394,107.009c-23.512,0-42.947,17.416-46.133,40.049l-0.035-0.141&#10;&#9;&#9;&#9;&#9;&#9;c-21.734-3.956-45.017,5.019-57.889,24.657c-15.228,23.233-11.185,53.514,8.209,72.034&#10;&#9;&#9;&#9;&#9;&#9;c-13.624,11.888-22.231,29.377-22.231,48.878c0,32.78,24.323,59.875,55.905,64.231c4.062,26.205,26.718,46.265,54.062,46.265&#10;&#9;&#9;&#9;&#9;&#9;c30.217,0,54.713-24.496,54.713-54.712V153.61C254.996,127.873,234.132,107.009,208.394,107.009z"/>
				<path style="fill:#DB4B86;" d="M157.005,146.226c-20.159-1.757-40.821,7.276-52.667,25.348&#10;&#9;&#9;&#9;&#9;&#9;c-15.228,23.233-11.185,53.514,8.209,72.034c-13.624,11.888-22.231,29.377-22.231,48.878c0,32.78,24.323,59.875,55.905,64.231&#10;&#9;&#9;&#9;&#9;&#9;c4.062,26.205,26.718,46.265,54.061,46.265c30.217,0,54.713-24.496,54.713-54.712v-66.296&#10;&#9;&#9;&#9;&#9;&#9;C205.072,253.562,168.501,204.403,157.005,146.226z"/>
			</g>
			<g>
				<path style="fill:#FD7DA0;" d="M301.597,107.009c23.512,0,42.947,17.416,46.133,40.049l0.035-0.141&#10;&#9;&#9;&#9;&#9;&#9;c21.734-3.956,45.017,5.019,57.889,24.657c15.228,23.233,11.185,53.514-8.209,72.034c13.624,11.888,22.231,29.377,22.231,48.878&#10;&#9;&#9;&#9;&#9;&#9;c0,32.78-24.323,59.875-55.905,64.231c-4.062,26.205-26.718,46.265-54.062,46.265c-30.217,0-54.713-24.496-54.713-54.712V153.61&#10;&#9;&#9;&#9;&#9;&#9;C254.996,127.873,275.86,107.009,301.597,107.009z"/>
				<path style="fill:#DB4B86;" d="M354.354,308.191c-36.138,0-70.046-9.536-99.358-26.218v66.296&#10;&#9;&#9;&#9;&#9;&#9;c0,30.217,24.496,54.712,54.713,54.712c27.344,0,50-20.059,54.061-46.265c29.984-4.136,53.41-28.773,55.705-59.306&#10;&#9;&#9;&#9;&#9;&#9;C399.049,304.395,377.146,308.191,354.354,308.191z"/>
			</g>
		</g>
	</g>
	<g>
		<g>
			<path style="fill:none;stroke:#052A75;stroke-width:20;stroke-linecap:round;stroke-linejoin:round;stroke-miterlimit:10;" d="&#10;&#9;&#9;&#9;&#9;M254.996,348.27V153.61c0-25.737-20.864-46.601-46.601-46.601s-46.601,20.864-46.601,46.601c0,10.135,3.236,19.515,8.73,27.162"/>
			<path style="fill:none;stroke:#052A75;stroke-width:20;stroke-linecap:round;stroke-linejoin:round;stroke-miterlimit:10;" d="&#10;&#9;&#9;&#9;&#9;M164.114,307.217c-11.37,10.026-18.543,24.701-18.543,41.052c0,30.217,24.496,54.713,54.713,54.713s54.713-24.496,54.713-54.713"/>
			<path style="fill:none;stroke:#052A75;stroke-width:20;stroke-linecap:round;stroke-linejoin:round;stroke-miterlimit:10;" d="&#10;&#9;&#9;&#9;&#9;M156.674,279.34c-2.641,9.477-0.236,20.064,7.217,27.517c6.878,6.878,16.426,9.457,25.307,7.737"/>
			<path style="fill:none;stroke:#052A75;stroke-width:20;stroke-linecap:round;stroke-linejoin:round;stroke-miterlimit:10;" d="&#10;&#9;&#9;&#9;&#9;M254.996,202.648c0,23.308-18.895,42.203-42.203,42.203"/>
			<path style="fill:none;stroke:#052A75;stroke-width:20;stroke-linejoin:round;stroke-miterlimit:10;" d="M146.401,356.746&#10;&#9;&#9;&#9;&#9;c-31.67-4.277-56.085-31.417-56.085-64.26c0-19.501,8.607-36.991,22.231-48.878c-19.395-18.52-23.437-48.801-8.209-72.034&#10;&#9;&#9;&#9;&#9;c12.872-19.638,36.155-28.613,57.888-24.657"/>
			<path style="fill:none;stroke:#052A75;stroke-width:20;stroke-linecap:round;stroke-linejoin:round;stroke-miterlimit:10;" d="&#10;&#9;&#9;&#9;&#9;M254.996,348.27V153.61c0-25.737,20.864-46.601,46.601-46.601s46.601,20.864,46.601,46.601c0,10.135-3.236,19.515-8.73,27.162"/>
			<path style="fill:none;stroke:#052A75;stroke-width:20;stroke-linecap:round;stroke-linejoin:round;stroke-miterlimit:10;" d="&#10;&#9;&#9;&#9;&#9;M345.878,307.217c11.37,10.026,18.543,24.701,18.543,41.052c0,30.217-24.496,54.713-54.713,54.713&#10;&#9;&#9;&#9;&#9;c-30.217,0-54.713-24.496-54.713-54.713"/>
			<path style="fill:none;stroke:#052A75;stroke-width:20;stroke-linecap:round;stroke-linejoin:round;stroke-miterlimit:10;" d="&#10;&#9;&#9;&#9;&#9;M353.317,279.34c2.641,9.477,0.236,20.064-7.217,27.517c-6.878,6.878-16.426,9.457-25.307,7.737"/>
			<path style="fill:none;stroke:#052A75;stroke-width:20;stroke-linecap:round;stroke-linejoin:round;stroke-miterlimit:10;" d="&#10;&#9;&#9;&#9;&#9;M254.996,202.648c0,23.308,18.895,42.203,42.203,42.203"/>
			<path style="fill:none;stroke:#052A75;stroke-width:20;stroke-linejoin:round;stroke-miterlimit:10;" d="M363.59,356.746&#10;&#9;&#9;&#9;&#9;c31.67-4.277,56.085-31.417,56.085-64.26c0-19.501-8.607-36.991-22.231-48.878c19.395-18.52,23.437-48.801,8.209-72.034&#10;&#9;&#9;&#9;&#9;c-12.872-19.638-36.155-28.613-57.888-24.657"/>
		</g>
		<g>
			<g>
				
					<polyline style="fill:none;stroke:#FDCB50;stroke-width:20;stroke-linecap:round;stroke-linejoin:round;stroke-miterlimit:10;" points="&#10;&#9;&#9;&#9;&#9;&#9;81.754,126.996 81.754,81.754 36.513,81.754 &#9;&#9;&#9;&#9;"/>
				<path style="fill:none;stroke:#FDCB50;stroke-width:20;stroke-linecap:round;stroke-linejoin:round;stroke-miterlimit:10;" d="&#10;&#9;&#9;&#9;&#9;&#9;M80.665,82.851C-0.403,164.926-11.716,290.004,46.71,384.09"/>
			</g>
			<g>
				
					<polyline style="fill:none;stroke:#67CCD1;stroke-width:20;stroke-linecap:round;stroke-linejoin:round;stroke-miterlimit:10;" points="&#10;&#9;&#9;&#9;&#9;&#9;382.996,81.754 428.237,81.754 428.237,36.513 &#9;&#9;&#9;&#9;"/>
				<path style="fill:none;stroke:#67CCD1;stroke-width:20;stroke-linecap:round;stroke-linejoin:round;stroke-miterlimit:10;" d="&#10;&#9;&#9;&#9;&#9;&#9;M427.141,80.665C345.065-0.403,219.987-11.716,125.901,46.71"/>
			</g>
			<g>
				
					<polyline style="fill:none;stroke:#B1D952;stroke-width:20;stroke-linecap:round;stroke-linejoin:round;stroke-miterlimit:10;" points="&#10;&#9;&#9;&#9;&#9;&#9;428.237,382.996 428.237,428.237 473.478,428.237 &#9;&#9;&#9;&#9;"/>
				<path style="fill:none;stroke:#B1D952;stroke-width:20;stroke-linecap:round;stroke-linejoin:round;stroke-miterlimit:10;" d="&#10;&#9;&#9;&#9;&#9;&#9;M429.326,427.141c81.068-82.076,92.381-207.153,33.955-301.24"/>
			</g>
			<g>
				
					<polyline style="fill:none;stroke:#BC9AF4;stroke-width:20;stroke-linecap:round;stroke-linejoin:round;stroke-miterlimit:10;" points="&#10;&#9;&#9;&#9;&#9;&#9;126.996,428.237 81.754,428.237 81.754,473.478 &#9;&#9;&#9;&#9;"/>
				<path style="fill:none;stroke:#BC9AF4;stroke-width:20;stroke-linecap:round;stroke-linejoin:round;stroke-miterlimit:10;" d="&#10;&#9;&#9;&#9;&#9;&#9;M82.851,429.326c82.076,81.068,207.153,92.381,301.24,33.955"/>
			</g>
		</g>
	</g>
</g>
<g>
</g>
<g>
</g>
<g>
</g>
<g>
</g>
<g>
</g>
<g>
</g>
<g>
</g>
<g>
</g>
<g>
</g>
<g>
</g>
<g>
</g>
<g>
</g>
<g>
</g>
<g>
</g>
<g>
</g>
</svg>