<svg enable-background="new 0 0 512 512" height="512" viewBox="0 0 512 512" width="512" xmlns="http://www.w3.org/2000/svg"><g id="_x31_7_Coins"><g><path d="m505.699 327.215c0 19.664-15.941 35.605-35.605 35.605h-277.918c-19.664 0-35.605-15.941-35.605-35.605 0-19.664 15.941-35.605 35.605-35.605h277.918c19.664.001 35.605 15.941 35.605 35.605z" fill="#fdcf17"/><path d="m463.847 256.006c0 19.664-15.941 35.605-35.605 35.605h-277.917c-19.664 0-35.605-15.941-35.605-35.605 0-19.664 15.941-35.605 35.605-35.605h277.918c19.663 0 35.604 15.941 35.604 35.605z" fill="#f78721"/><path d="m505.699 184.797c0 19.664-15.941 35.605-35.605 35.605h-277.918c-19.664 0-35.605-15.941-35.605-35.605 0-19.664 15.941-35.605 35.605-35.605h277.918c19.664 0 35.605 15.941 35.605 35.605z" fill="#fdcf17"/><path d="m505.699 469.634c0 19.664-15.941 35.605-35.605 35.605h-277.918c-19.664 0-35.605-15.941-35.605-35.605 0-19.664 15.941-35.605 35.605-35.605h277.918c19.664 0 35.605 15.941 35.605 35.605z" fill="#fdcf17"/><path d="m463.847 398.425c0 19.664-15.941 35.605-35.605 35.605h-277.917c-19.664 0-35.605-15.941-35.605-35.605 0-19.664 15.941-35.605 35.605-35.605h277.918c19.663 0 35.604 15.941 35.604 35.605z" fill="#f78721"/><path d="m505.668 469.601c0 19.728-15.91 35.638-35.532 35.638h-277.996c-15.592 0-28.85-10.076-33.623-24.183 3.5 1.167 7.319 1.804 11.244 1.804h277.997c19.623 0 35.533-15.91 35.533-35.638 0-3.924-.637-7.743-1.805-11.349 14 4.772 24.182 18.03 24.182 33.728z" opacity=".1"/><path d="m463.879 398.431c0 19.622-16.016 35.638-35.638 35.638h-277.891c-15.698 0-29.062-10.182-33.729-24.289 3.5 1.273 7.424 1.909 11.349 1.909h277.891c19.729 0 35.638-16.016 35.638-35.638 0-3.924-.636-7.849-1.91-11.349 14.107 4.773 24.29 18.137 24.29 33.729z" opacity=".1"/><path d="m505.668 327.261c0 19.622-15.91 35.532-35.532 35.532h-277.996c-15.592 0-28.85-10.076-33.623-24.183 3.5 1.167 7.319 1.803 11.244 1.803h277.997c19.623 0 35.533-15.91 35.533-35.532 0-4.031-.637-7.849-1.911-11.455 14.106 4.667 24.288 18.031 24.288 33.835z" opacity=".1"/><path d="m463.879 255.985c0 19.728-16.016 35.638-35.638 35.638h-277.891c-15.698 0-29.062-10.182-33.729-24.289 3.5 1.273 7.424 1.909 11.349 1.909h277.891c19.729 0 35.638-15.91 35.638-35.638 0-3.925-.636-7.743-1.804-11.244 14.107 4.774 24.184 18.032 24.184 33.624z" opacity=".1"/><path d="m505.668 184.815c0 19.622-15.91 35.638-35.532 35.638h-277.996c-15.592 0-28.85-10.182-33.623-24.183 3.5 1.167 7.319 1.803 11.244 1.803h277.997c19.623 0 35.533-16.016 35.533-35.638 0-4.031-.637-7.849-1.911-11.455 14.106 4.667 24.288 18.032 24.288 33.835z" opacity=".1"/><path d="m463.847 113.575c0 19.664-15.941 35.605-35.605 35.605h-277.917c-19.664 0-35.605-15.941-35.605-35.605 0-19.664 15.941-35.605 35.605-35.605h277.918c19.663.001 35.604 15.941 35.604 35.605z" fill="#f78721"/><path d="m505.699 42.366c0 19.664-15.941 35.605-35.605 35.605h-277.918c-19.664 0-35.605-15.941-35.605-35.605 0-19.664 15.941-35.605 35.605-35.605h277.918c19.664 0 35.605 15.941 35.605 35.605z" fill="#fdcf17"/><path d="m463.879 113.554c0 19.728-16.016 35.638-35.638 35.638h-277.891c-15.698 0-29.062-10.183-33.729-24.289 3.5 1.273 7.424 1.909 11.349 1.909h277.891c19.729 0 35.638-15.91 35.638-35.638 0-3.925-.636-7.743-1.804-11.244 14.107 4.774 24.184 18.032 24.184 33.624z" opacity=".1"/><path d="m505.668 42.384c0 19.622-15.91 35.638-35.532 35.638h-277.996c-15.592 0-28.85-10.182-33.623-24.183 3.5 1.167 7.319 1.803 11.244 1.803h277.997c19.623 0 35.533-16.016 35.533-35.638 0-4.031-.637-7.849-1.911-11.455 14.106 4.667 24.288 18.032 24.288 33.835z" opacity=".1"/><path d="m306.842 354.947c0 83.031-67.261 150.292-150.248 150.292s-150.292-67.261-150.292-150.292c0-82.987 67.304-150.248 150.291-150.248s150.249 67.261 150.249 150.248z" fill="#f78721"/><path d="m261.648 354.953c0 58.059-47.032 105.092-105.061 105.092s-105.092-47.032-105.092-105.092c0-58.029 47.062-105.061 105.091-105.061s105.062 47.033 105.062 105.061z" fill="#fdcf17"/><path d="m261.621 354.927c0 58.085-47.018 105.104-105.034 105.104-40.488 0-75.683-22.96-93.211-56.574 14.504 7.63 31.001 11.893 48.462 11.893 58.085 0 105.103-47.087 105.103-105.104 0-17.46-4.262-33.958-11.892-48.462 33.613 17.392 56.572 52.587 56.572 93.143z" opacity=".1"/><path d="m511 42.365c0-22.556-18.348-40.906-40.906-40.906h-277.918c-22.558 0-40.906 18.351-40.906 40.909 0 12.019 5.241 22.809 13.521 30.3h-14.464c-22.558 0-40.911 18.351-40.911 40.909 0 22.556 18.353 40.906 40.911 40.906h14.461c-9.154 8.303-13.493 19.185-13.493 30.287 0 5.084 1.032 10.022 2.821 14.69-84.653 1.333-153.116 70.548-153.116 155.486 0 85.795 69.798 155.596 155.593 155.596 218.473 0 312.8-.01 313.516-.01 22.543 0 40.886-18.34 40.886-40.886 0-22.574-18.343-40.94-40.886-40.94h-14.464c8.274-7.487 13.511-18.269 13.511-30.28s-5.237-22.793-13.511-30.28h14.464c22.543 0 40.886-18.366 40.886-40.94 0-22.545-18.343-40.886-40.886-40.886h-14.478c8.282-7.497 13.525-18.299 13.525-30.331 0-12.011-5.237-22.793-13.511-30.28h14.464c22.543 0 40.886-18.366 40.886-40.94 0-22.545-18.343-40.886-40.886-40.886h-14.491c8.287-7.491 13.533-18.285 13.533-30.308 0-12.02-5.243-22.812-13.524-30.303h14.467c22.558.001 40.906-18.349 40.906-40.907zm-354.407 457.571c-79.948 0-144.987-65.041-144.987-144.99 0-79.922 65.039-144.943 144.987-144.943 79.922 0 144.946 65.021 144.946 144.943 0 79.948-65.024 144.99-144.946 144.99zm313.516-60.624c16.696 0 30.28 13.607 30.28 30.334 0 16.696-13.584 30.28-30.28 30.28h-257.154c30.64-11.961 56.574-33.354 74.235-60.614zm-11.558-40.886c0 16.696-13.584 30.28-30.285 30.28h-134.747c9.891-18.3 16.189-38.804 18.026-60.559h116.721c16.701 0 30.285 13.583 30.285 30.279zm11.558-101.499c16.696 0 30.28 13.584 30.28 30.28 0 16.727-13.584 30.334-30.28 30.334-37.515 0-120.644 0-158.031 0 .014-.867.066-1.724.066-2.595 0-20.505-4.026-40.077-11.269-58.019zm-11.558-40.937c0 16.725-13.584 30.331-30.285 30.331h-132.125c-12.121-24.545-30.511-45.457-53.09-60.611h185.215c16.701 0 30.285 13.584 30.285 30.28zm11.558-101.5c16.696 0 30.28 13.584 30.28 30.28 0 16.727-13.584 30.334-30.28 30.334-36.916 0-210.173 0-245.467 0-17.936-8.764-37.796-14.164-58.76-15.405-2.562-4.56-3.981-9.648-3.981-14.929 0-16.826 13.629-30.28 30.28-30.28zm-11.564-40.914c0 16.706-13.594 30.3-30.306 30.3h-277.912c-16.712 0-30.306-13.594-30.306-30.3 0-16.709 13.594-30.303 30.306-30.303h277.913c16.711 0 30.305 13.594 30.305 30.303zm-266.369-40.908c-16.706 0-30.3-13.594-30.3-30.303 0-16.706 13.594-30.3 30.3-30.3h277.918c16.706 0 30.3 13.594 30.3 30.3v.003c0 16.706-13.594 30.3-30.3 30.3-63.182 0-220.785 0-277.918 0z"/><path d="m150.026 320.637h32.91c2.931 0 5.303-2.374 5.303-5.303s-2.372-5.303-5.303-5.303h-21.066v-11.168c0-2.929-2.372-5.303-5.303-5.303s-5.303 2.374-5.303 5.303v11.168h-1.238c-13.853 0-25.122 11.269-25.122 25.119 0 13.853 11.269 25.122 25.122 25.122h13.092c8.006 0 14.516 6.51 14.516 14.513 0 8.004-6.51 14.516-14.516 14.516h-32.91c-2.931 0-5.303 2.374-5.303 5.303s2.372 5.303 5.303 5.303h21.056v11.168c0 2.929 2.372 5.303 5.303 5.303s5.303-2.374 5.303-5.303v-11.168h1.248c13.853 0 25.122-11.269 25.122-25.122 0-13.85-11.269-25.119-25.122-25.119h-13.092c-8.006 0-14.516-6.512-14.516-14.516s6.51-14.513 14.516-14.513z"/><path d="m156.588 244.589c-60.668 0-110.394 49.499-110.394 110.365 0 60.87 49.524 110.394 110.394 110.394 60.854 0 110.363-49.524 110.363-110.394-.001-60.855-49.509-110.365-110.363-110.365zm0 210.153c-55.023 0-99.788-44.764-99.788-99.788 0-55.008 44.764-99.759 99.788-99.759 55.008 0 99.757 44.751 99.757 99.759-.001 55.023-44.749 99.788-99.757 99.788z"/></g></g></svg>