<svg id="Layer_1" height="512" viewBox="0 0 512 512" width="512" xmlns="http://www.w3.org/2000/svg" data-name="Layer 1"><circle cx="256" cy="256" fill="#6c27b3" r="256"/><path d="m185.359 326.634a9.375 9.375 0 0 1 0 13.26l-22.166 22.171a9.376 9.376 0 1 1 -13.26-13.259l22.173-22.172a9.377 9.377 0 0 1 13.253 0zm176.708 22.173a9.376 9.376 0 1 1 -13.261 13.259l-22.165-22.172a9.373 9.373 0 1 1 13.253-13.259zm-35.426-163.448a9.367 9.367 0 0 1 0-13.253l22.167-22.173a9.376 9.376 0 0 1 13.259 13.26l-22.172 22.166a9.364 9.364 0 0 1 -13.253 0zm-176.707-22.166a9.376 9.376 0 1 1 13.259-13.259l22.166 22.172a9.372 9.372 0 1 1 -13.254 13.253zm-3.2 102.181h-31.359a9.375 9.375 0 1 1 0-18.749h31.354a9.375 9.375 0 0 1 0 18.75zm118.647 99.9v31.354a9.376 9.376 0 0 1 -18.751 0v-31.357a9.376 9.376 0 0 1 18.751 0zm140.619-109.274a9.374 9.374 0 0 1 -9.375 9.376h-31.353a9.375 9.375 0 1 1 0-18.749h31.354a9.373 9.373 0 0 1 9.374 9.373zm-159.375-109.272v-31.354a9.375 9.375 0 0 1 18.75 0v31.353a9.376 9.376 0 0 1 -18.751 0zm18.751 170.4v-122.26a61.847 61.847 0 0 1 0 122.262zm-71.216-61.128a61.935 61.935 0 0 1 52.465-61.13v122.26a61.939 61.939 0 0 1 -52.465-61.13zm61.84-80.591a80.591 80.591 0 1 0 80.59 80.591 80.682 80.682 0 0 0 -80.59-80.591zm-9.375 141.721v-122.261a61.846 61.846 0 0 0 0 122.261z" fill="#fff" fill-rule="evenodd"/></svg>