<svg id="Layer_2_00000047026921326825890200000007633762155486751874_" enable-background="new 0 0 512 512" viewBox="0 0 512 512" xmlns="http://www.w3.org/2000/svg"><g id="Icon"><g id="_42"><g><path d="m205.2 375.8c-2.6 0-5.1-1-7.1-2.9l-68.9-68.9c-3.9-3.9-3.9-10.2 0-14.1l35.8-35.8v-31.1c0-5.5 4.5-10 10-10h31l45.4-45.4v-31.1c0-5.5 4.5-10 10-10h31.1l45.4-45.4v-31c0-2.8 1.1-5.4 3.2-7.3 1.9-1.7 4.3-2.7 6.8-2.7h.7l97.3 6.8c5 .4 8.9 4.3 9.3 9.3l6.8 97.3c.2 2.8-.8 5.5-2.7 7.5s-4.5 3.2-7.3 3.2h-31l-45.4 45.4v31.1c0 5.5-4.5 10-10 10h-31.1l-45.4 45.4v31.1c0 5.5-4.5 10-10 10h-31.1l-35.8 35.8c-1.9 1.8-4.5 2.8-7 2.8z"/><path d="m261.5 171.8-51.3 51.2h-35.2v35.2l-38.7 38.7 68.9 68.9 38.7-38.7h35.2v-35.2l51.2-51.3h35.2v-35.2l51.3-51.2h35.2l-6.8-97.3-97.3-6.8v35.2l-51.2 51.3h-35.2z" fill="#a3d9ef"/><path d="m347.9 50.1v35.2l-51.2 51.3h-35.2v35.2l-51.3 51.2h-35.2v35.2l-38.7 38.7 34.4 34.5 274.5-274.5z" fill="#ddf4ff"/><path d="m102.8 443.2c-2.7 0-5.2-1-7.1-2.9l-33.9-33.9c-3.9-3.9-3.9-10.2 0-14.1l57.6-57.6c1.9-2 4.5-2.9 7.1-2.9s5.1 1 7.1 2.9l33.9 33.9c1.9 1.9 2.9 4.4 2.9 7.1s-1.1 5.2-2.9 7.1l-57.6 57.6c-1.9 1.8-4.5 2.8-7.1 2.8z"/><path d="m73.9 363.5h81.5v47.9h-81.5z" fill="#c60051" transform="matrix(.707 -.707 .707 .707 -240.419 194.544)"/><path d="m82.4 384h81.5v24h-81.5z" fill="#a3004a" transform="matrix(.707 -.707 .707 .707 -243.928 203.017)"/><path d="m78.2 470.6c-12.5 0-24.2-4.9-33-13.7-18.2-18.2-18.2-47.9 0-66.1 8.8-8.8 20.6-13.7 33-13.7s24.2 4.9 33.1 13.7 13.7 20.6 13.7 33-4.9 24.2-13.7 33c-8.8 8.9-20.6 13.8-33.1 13.8z"/><ellipse cx="78.2" cy="423.9" fill="#ffbc00" rx="36.7" ry="36.7" transform="matrix(.033 -.999 .999 .033 -347.974 487.957)"/><path d="m52.3 449.8c14.3 14.3 37.6 14.3 52 0 14.3-14.4 14.3-37.6 0-52-.1.1-52 52-52 52z" fill="#ff9700"/><path d="m183.3 425.5c-3.9 0-7.7-1.5-10.5-4.3l-91.8-91.9c-4.1-4.1-5.4-10.2-3.4-15.6l18.5-49.6c2.2-5.8 7.7-9.6 13.9-9.6 3.9 0 7.7 1.5 10.4 4.3l122.9 122.9c3.6 3.6 5.1 8.7 4 13.6s-4.5 9-9.3 10.7l-49.6 18.5c-1.6.7-3.4 1-5.1 1z"/><path d="m234.5 396.6-49.5 18.6c-1.8.7-3.7.2-5.1-1.1l-91.9-91.9c-1.3-1.3-1.8-3.3-1.1-5.1l18.5-49.6c1.2-3.3 5.4-4.2 7.9-1.7l122.9 122.9c2.5 2.5 1.6 6.7-1.7 7.9z" fill="#ffbc00"/><path d="m234.5 396.6-49.5 18.6c-1.8.7-3.7.2-5.1-1.1l-45.9-46 40.8-40.8 61.4 61.4c2.5 2.5 1.6 6.7-1.7 7.9z" fill="#ff9700"/><path d="m203 309.1v36.4c0 5.5-4.5 10-10 10h-36.4c-5.5 0-10-4.5-10-10v-36.4c0-5.5 4.5-10 10-10h36.4c5.5 0 10 4.5 10 10z"/><path d="m156.6 309.1h36.4v36.4h-36.4z" fill="#c60051"/><path d="m156.6 345.5h36.4v-36.4z" fill="#a3004a"/></g><g><path d="m306.8 377.1c-2.6 0-5.1-1-7.1-2.9l-35.7-35.8h-31.1c-5.5 0-10-4.5-10-10v-31.1l-45.4-45.4h-31.1c-5.5 0-10-4.5-10-10v-31.1l-45.4-45.4h-31c-2.8 0-5.4-1.2-7.3-3.2s-2.9-4.8-2.7-7.5l6.8-97.3c.3-5 4.3-8.9 9.3-9.3l97.3-6.8h.7c2.5 0 5 1 6.8 2.7 2 1.9 3.2 4.5 3.2 7.3v31.1l45.4 45.4h31.1c5.5 0 10 4.5 10 10v31.1l45.4 45.4h31c5.5 0 10 4.5 10 10v31.1l35.8 35.8c3.9 3.9 3.9 10.2 0 14.1l-68.9 68.9c-1.9 1.9-4.5 2.9-7.1 2.9z"/><path d="m250.5 173.1 51.3 51.2h35.2v35.2l38.7 38.7-68.9 68.9-38.7-38.7h-35.2v-35.2l-51.2-51.3h-35.2v-35.2l-51.3-51.2h-35.2l6.8-97.3 97.3-6.8v35.2l51.2 51.3h35.2z" fill="#a3d9ef"/><path d="m164.1 51.4v35.2l51.2 51.3h35.2v35.2l51.3 51.2h35.2v35.2l38.7 38.7-34.4 34.5-274.5-274.5z" fill="#ddf4ff"/><path d="m409.2 444.5c-2.6 0-5.1-1-7.1-2.9l-57.5-57.6c-1.9-1.9-2.9-4.4-2.9-7.1 0-2.6 1-5.2 2.9-7.1l33.9-33.9c1.9-1.9 4.4-2.9 7.1-2.9 2.6 0 5.2 1 7.1 2.9l57.6 57.6c3.9 3.9 3.9 10.2 0 14.1l-33.9 33.9c-2 2.1-4.6 3-7.2 3z"/><path d="m373.4 348h47.9v81.5h-47.9z" fill="#007acc" transform="matrix(.707 -.707 .707 .707 -158.517 394.859)"/><path d="m376.9 356.5h24v81.5h-24z" fill="#0062ba" transform="matrix(.707 -.707 .707 .707 -166.992 391.355)"/><path d="m433.8 471.9c-12.5 0-24.2-4.9-33-13.7-18.2-18.2-18.2-47.9 0-66.1 8.8-8.8 20.6-13.7 33-13.7s24.2 4.9 33 13.7c18.2 18.2 18.2 47.9 0 66.1-8.8 8.8-20.6 13.7-33 13.7z"/><circle cx="433.8" cy="425.2" fill="#ffbc00" r="36.7"/><path d="m459.7 451.1c-14.4 14.3-37.6 14.3-52 0-14.4-14.4-14.4-37.6 0-52z" fill="#ff9700"/><path d="m328.7 426.8c-1.8 0-3.5-.3-5.2-.9l-49.5-18.6c-4.7-1.8-8.2-5.8-9.3-10.7s.4-10 4-13.6l122.9-122.9c2.8-2.8 6.5-4.3 10.5-4.3 6.1 0 11.7 3.9 13.9 9.6l18.5 49.6c2 5.4.7 11.6-3.4 15.6l-91.9 91.9c-2.8 2.7-6.5 4.3-10.5 4.3z"/><path d="m277.5 397.9 49.6 18.5c1.8.7 3.7.2 5.1-1.1l91.9-91.9c1.3-1.3 1.8-3.3 1.1-5.1l-18.5-49.6c-1.2-3.3-5.4-4.2-7.9-1.7l-123 123.1c-2.5 2.4-1.6 6.6 1.7 7.8z" fill="#ffbc00"/><path d="m277.5 397.9 49.6 18.5c1.8.7 3.7.2 5.1-1.1l45.9-45.9-40.8-40.8-61.4 61.4c-2.6 2.5-1.7 6.7 1.6 7.9z" fill="#ff9700"/><path d="m365.4 310.4v36.4c0 5.5-4.5 10-10 10h-36.4c-5.5 0-10-4.5-10-10v-36.4c0-5.5 4.5-10 10-10h36.4c5.6 0 10 4.5 10 10z"/><path d="m319 310.4h36.4v36.4h-36.4z" fill="#007acc"/><path d="m355.4 346.8h-36.4v-36.4z" fill="#0062ba"/></g></g></g></svg>