<svg id="Flat" height="512" viewBox="0 0 64 64" width="512" xmlns="http://www.w3.org/2000/svg"><path d="m47.01 11.964a4 4 0 0 1 -1.464-5.464l-9.527-5.5-27 46.765 9.527 5.5a4 4 0 0 1 6.928 4l9.526 5.5 27-46.765-9.526-5.5a4 4 0 0 1 -5.464 1.464z" fill="#ff415e"/><path d="m45.546 6.5-7.795-4.5-26 45.033 6.495 3.75.211-.172a5.771 5.771 0 0 1 6.553-.542 5.773 5.773 0 0 1 2.807 5.946l-.044.268 8.227 4.75 26-45.033-9.526-5.5a4 4 0 1 1 -6.928-4z" fill="#ee3052"/><path d="m41.011 8.5-3.528-2.036-9 15.589 19.053 11 9-15.589-3.528-2.037a8 8 0 0 1 -12-6.926z" fill="#e6f4ff"/><path d="m14.483 46.3 3.528 2.037a8 8 0 0 1 12 6.926l3.525 2.037 14-24.248-19.053-11z" fill="#f5fbff"/><g fill="#6e6e82"><path d="m43.876 19.392-3 5.2a1 1 0 0 1 -1.732-1l3-5.2a1 1 0 0 1 1.732 1z"/><path d="m39.546 16.892-3 5.2a1 1 0 0 1 -1.733-1l3-5.2a1 1 0 0 1 1.733 1z"/><path d="m48.206 21.892-3 5.2a1 1 0 1 1 -1.732-1l3-5.2a1 1 0 1 1 1.732 1z"/></g><path d="m52 48a4 4 0 0 1 4-4v-11h-54v11a4 4 0 0 1 0 8v11h54v-11a4 4 0 0 1 -4-4z" fill="#ff6a74"/><path d="m56 44v-9h-52v7.5l.255.1a5.77 5.77 0 0 1 3.745 5.4 5.77 5.77 0 0 1 -3.745 5.4l-.255.1v9.5h52v-11a4 4 0 0 1 0-8z" fill="#ff415e"/><path d="m52 41.074v-4.074h-18v22h18v-4.074a8 8 0 0 1 0-13.852z" fill="#e6f4ff"/><path d="m6 37v4.074a8 8 0 0 1 0 13.852v4.074h28v-22z" fill="#f5fbff"/><path d="m22 41.343 2.163 4.383 4.837.702-3.5 3.412.826 4.817-4.326-2.274-4.326 2.274.826-4.817-3.5-3.412 4.837-.702z" fill="#ffe440"/><path d="m44 49h-6a1 1 0 0 1 0-2h6a1 1 0 0 1 0 2z" fill="#6e6e82"/><path d="m44 44h-6a1 1 0 0 1 0-2h6a1 1 0 0 1 0 2z" fill="#6e6e82"/><path d="m44 54h-6a1 1 0 0 1 0-2h6a1 1 0 0 1 0 2z" fill="#6e6e82"/></svg>