<svg id="Layer_1" enable-background="new 0 0 464.021 464.021" height="512" viewBox="0 0 464.021 464.021" width="512" xmlns="http://www.w3.org/2000/svg"><path d="m381.46 54.55-326.9 326.9c-34.04-40.37-54.55-92.51-54.55-149.45 0-128.13 103.87-232 232-232 56.94 0 109.08 20.51 149.45 54.55z" fill="#ff6d7a"/><path d="m233.366.004c14.07.081 15.581 20.523 1.697 22.801-106.806 17.528-195.053 109.592-195.053 229.195 0 41.46 10.88 80.38 29.94 114.06l-15.39 15.39c-34.04-40.37-54.55-92.51-54.55-149.45 0-128.014 104.038-232.736 233.356-231.996z" fill="#ff8c95"/><path d="m120.01 188h-20c-4.418 0-8-3.582-8-8s3.582-8 8-8h20c6.617 0 12-5.383 12-12s-5.383-12-12-12h-20c-4.418 0-8-3.582-8-8v-32c0-4.418 3.582-8 8-8h40c4.418 0 8 3.582 8 8s-3.582 8-8 8h-32v16h12c15.439 0 28 12.561 28 28s-12.56 28-28 28z" fill="#fff"/><path d="m192.01 188c-15.439 0-28-12.561-28-28v-32c0-15.439 12.561-28 28-28s28 12.561 28 28v32c0 15.439-12.56 28-28 28zm0-72c-6.617 0-12 5.383-12 12v32c0 6.617 5.383 12 12 12s12-5.383 12-12v-32c0-6.617-5.383-12-12-12z" fill="#fff"/><path d="m35.51 408.5c-7.062 0-10.712-8.603-5.657-13.657l365-365c3.125-3.124 8.189-3.124 11.314 0 3.124 3.124 3.124 8.189 0 11.313l-365 365c-1.562 1.563-3.609 2.344-5.657 2.344z" fill="#fe4f60"/><path d="m409.46 82.55c34.04 40.37 54.55 92.51 54.55 149.45 0 128.13-103.87 232-232 232-56.94 0-109.08-20.51-149.45-54.55z" fill="#ffe773"/><path d="m293.565 422.546c19.661-2.875 26.113 25.244 7.132 31.118-72.968 22.585-155.737 8.401-218.136-44.214l34.06-34.06c51.876 40.836 116.043 56.061 176.944 47.156z" fill="#fff0a6"/><path d="m296.01 364h-20c-4.418 0-8-3.582-8-8s3.582-8 8-8h20c6.617 0 12-5.383 12-12s-5.383-12-12-12h-20c-4.418 0-8-3.582-8-8v-32c0-4.418 3.582-8 8-8h40c4.418 0 8 3.582 8 8s-3.582 8-8 8h-32v16h12c15.439 0 28 12.561 28 28s-12.56 28-28 28z" fill="#fff"/><path d="m368.01 364c-15.439 0-28-12.561-28-28v-32c0-15.439 12.561-28 28-28s28 12.561 28 28v32c0 15.439-12.56 28-28 28zm0-72c-6.617 0-12 5.383-12 12v32c0 6.617 5.383 12 12 12s12-5.383 12-12v-32c0-6.617-5.382-12-12-12z" fill="#fff"/><path d="m63.51 436.5c-7.062 0-10.712-8.603-5.657-13.657l365-365c3.125-3.124 8.189-3.124 11.314 0 3.124 3.124 3.124 8.189 0 11.313l-365 365c-1.562 1.563-3.609 2.344-5.657 2.344z" fill="#ffd947"/></svg>