<svg xmlns="http://www.w3.org/2000/svg" xmlns:xlink="http://www.w3.org/1999/xlink" version="1.1" id="Capa_1" x="0px" y="0px" viewBox="0 0 512 512" style="enable-background:new 0 0 512 512;" xml:space="preserve" width="300" height="300" xmlns:svgjs="http://svgjs.dev/svgjs"><g width="100%" height="100%" transform="matrix(1,0,0,1,0,0)"><g>
	<g>
		<rect x="164.883" y="31.807" style="" width="66.266" height="70.223" fill="#74727d" fill-opacity="1" data-original-color="#74727dff" stroke="none" stroke-opacity="1"/>
		<rect x="208.15" y="31.807" style="" width="22.998" height="70.223" fill="#63606b" fill-opacity="1" data-original-color="#63606bff" stroke="none" stroke-opacity="1"/>
		<path style="" d="M236.326,48.917h-76.62c-8.578,0-15.531-6.953-15.531-15.531v-18.12&#10;&#9;&#9;&#9;c0-4.289,3.477-7.766,7.766-7.766h92.152c4.289,0,7.766,3.477,7.766,7.766v18.12C251.857,41.963,244.904,48.917,236.326,48.917z" fill="#f1f6f7" fill-opacity="1" data-original-color="#f1f6f7ff" stroke="none" stroke-opacity="1"/>
		<path style="" d="M244.092,7.5h-23.233c4.418,0,8,3.582,8,8v17.417c0,8.836-7.163,16-16,16h23.467&#10;&#9;&#9;&#9;c8.578,0,15.531-6.953,15.531-15.531v-18.12C251.857,10.977,248.38,7.5,244.092,7.5z" fill="#e1ebf0" fill-opacity="1" data-original-color="#e1ebf0ff" stroke="none" stroke-opacity="1"/>
		
			<ellipse transform="matrix(0.9999 -0.0151 0.0151 0.9999 -4.1049 3.0297)" style="" cx="197.966" cy="272.517" rx="190.466" ry="190.467" fill="#a0d977" fill-opacity="1" data-original-color="#a0d977ff" stroke="none" stroke-opacity="1"/>
		<path style="" d="M186.467,429.416l13.903-0.081l61.802-14.408l66.715-73.101L348.044,256l-31.926-76.009l-72-54.826&#10;&#9;&#9;&#9;l-46.151-9.546h-11.499l0,0c-81.515,5.89-145.819,73.882-145.819,156.898S104.952,423.526,186.467,429.416L186.467,429.416z" fill="#f1f6f7" fill-opacity="1" data-original-color="#f1f6f7ff" stroke="none" stroke-opacity="1"/>
		<path style="" d="M173.206,271.185l-44.888-44.888c-6.47-6.469-6.47-16.959,0-23.428&#10;&#9;&#9;&#9;c6.469-6.469,16.959-6.469,23.428,0l44.888,44.888L173.206,271.185z" fill="#74727d" fill-opacity="1" data-original-color="#74727dff" stroke="none" stroke-opacity="1"/>
		
			<ellipse transform="matrix(0.9925 -0.1222 0.1222 0.9925 -31.8137 26.2299)" style="" cx="197.966" cy="272.517" rx="24.801" ry="24.801" fill="#ffe880" fill-opacity="1" data-original-color="#ffe880ff" stroke="none" stroke-opacity="1"/>
		<path style="" d="M197.967,115.198c-3.868,0-7.701,0.146-11.499,0.42c81.515,5.89,145.819,73.882,145.819,156.898&#10;&#9;&#9;&#9;s-64.304,151.009-145.819,156.898c3.798,0.274,7.631,0.42,11.499,0.42c86.884,0,157.318-70.434,157.318-157.319&#10;&#9;&#9;&#9;S284.851,115.198,197.967,115.198z" fill="#e1ebf0" fill-opacity="1" data-original-color="#e1ebf0ff" stroke="none" stroke-opacity="1"/>
		
			<ellipse transform="matrix(0.0192 -0.9998 0.9998 0.0192 -6.6069 687.4985)" style="" cx="347.117" cy="347.117" rx="157.383" ry="157.383" fill="#01d0fb" fill-opacity="1" data-original-color="#01d0fbff" stroke="none" stroke-opacity="1"/>
		<path style="" d="M448.657,386.611l-0.012-0.007c3.063-5.316,3.063-12.134-0.625-17.575&#10;&#9;&#9;&#9;c-5.132-7.57-15.586-9.314-23.217-4.275l-6.533,4.313l-16.717-9.651c-1.238-0.715-2-2.035-2-3.465l0.003-17.671&#10;&#9;&#9;&#9;c0-1.429,0.763-2.749,2-3.463l16.713-9.649l6.912,4.564c2.811,1.856,5.979,2.744,9.113,2.744c5.378,0,10.655-2.616,13.84-7.44&#10;&#9;&#9;&#9;c3.573-5.413,3.542-12.143,0.51-17.404l0.016-0.009c6.463-3.812,9.803-11.499,7.721-18.707&#10;&#9;&#9;&#9;c-3.139-10.862-15.175-15.249-24.291-9.984l-0.013,0.007c-3.041-5.257-8.857-8.65-15.327-8.261&#10;&#9;&#9;&#9;c-9.133,0.548-16.092,8.397-15.544,17.529l0.496,8.269l-16.716,9.651c-1.237,0.715-2.762,0.715-4,0l-15.303-8.834&#10;&#9;&#9;&#9;c-1.238-0.715-2-2.035-2-3.464v-19.303l7.004-3.502c8.179-4.09,11.895-14.016,7.905-22.244c-2.868-5.915-8.773-9.323-14.909-9.328&#10;&#9;&#9;&#9;v-0.019c0-7.145-4.509-13.668-11.341-15.762c-11.373-3.488-21.793,4.923-21.793,15.767v0.014&#10;&#9;&#9;&#9;c-6.136,0.005-12.042,3.415-14.909,9.33c-3.989,8.229-0.272,18.154,7.907,22.244l7.002,3.501v19.304c0,1.429-0.762,2.749-2,3.464&#10;&#9;&#9;&#9;l-15.3,8.835c-1.238,0.715-2.762,0.715-4,0l-16.718-9.652l0.496-8.268c0.549-9.133-6.411-16.981-15.544-17.53&#10;&#9;&#9;&#9;c-6.473-0.387-12.287,3.005-15.328,8.261l-0.013-0.008c-6.489-3.737-14.78-2.773-19.999,2.597&#10;&#9;&#9;&#9;c-7.918,8.147-5.709,20.82,3.432,26.098l0.013,0.007c-3.031,5.261-3.063,11.992,0.51,17.404c3.186,4.825,8.461,7.44,13.84,7.44&#10;&#9;&#9;&#9;c3.134,0,6.302-0.888,9.113-2.744l6.912-4.564l16.72,9.653c1.238,0.715,2,2.035,2,3.464l-0.001,17.667&#10;&#9;&#9;&#9;c0,1.429-0.763,2.749-2,3.464l-16.718,9.652l-6.533-4.314c-7.632-5.039-18.086-3.294-23.218,4.276&#10;&#9;&#9;&#9;c-3.688,5.441-3.688,12.259-0.625,17.575l-0.012,0.007c-6.651,3.923-9.933,11.931-7.551,19.276&#10;&#9;&#9;&#9;c2.401,7.405,9.013,11.64,15.849,11.64c2.811,0,5.66-0.716,8.268-2.222l0.005-0.003c2.882,4.982,8.259,8.287,14.326,8.287&#10;&#9;&#9;&#9;c0.683,0,1.374-0.042,2.068-0.127c8.748-1.078,14.986-9.068,14.458-17.867l-0.47-7.834l16.717-9.652c1.238-0.715,2.762-0.715,4,0&#10;&#9;&#9;&#9;l15.301,8.834c1.238,0.715,2,2.035,2,3.464v19.304l-7.003,3.501c-8.179,4.09-11.896,14.015-7.907,22.244&#10;&#9;&#9;&#9;c2.868,5.915,8.773,9.323,14.909,9.329v0.019c0,7.145,4.509,13.667,11.34,15.762c11.372,3.488,21.791-4.921,21.793-15.764&#10;&#9;&#9;&#9;c6.145-0.005,12.059-3.441,14.922-9.372c3.971-8.225,0.253-18.132-7.916-22.217l-7.006-3.503V400.41&#10;&#9;&#9;&#9;c0-1.429,0.763-2.75,2.001-3.465l15.309-8.833c1.237-0.714,2.762-0.714,3.999,0.001l16.709,9.647l-0.474,7.893&#10;&#9;&#9;&#9;c-0.55,9.155,6.47,17.419,15.628,17.911c0.302,0.016,0.602,0.024,0.901,0.024c6.066,0,11.444-3.306,14.326-8.287l0.006,0.003&#10;&#9;&#9;&#9;c2.609,1.507,5.457,2.222,8.268,2.222c7.121,0,14-4.596,16.127-12.581C458.382,397.824,455.02,390.331,448.657,386.611z&#10;&#9;&#9;&#9; M364.419,359.424l-15.299,8.828c-1.237,0.714-2.762,0.714-3.999-0.001l-15.303-8.835c-1.238-0.715-2-2.035-2-3.464l0.001-17.669&#10;&#9;&#9;&#9;c0-1.429,0.762-2.749,2-3.464l15.3-8.835c1.238-0.715,2.762-0.715,4,0l15.305,8.835c1.238,0.715,2.001,2.035,2,3.465&#10;&#9;&#9;&#9;l-0.003,17.676C366.419,357.389,365.656,358.709,364.419,359.424z" fill="#f1f6f7" fill-opacity="1" data-original-color="#f1f6f7ff" stroke="none" stroke-opacity="1"/>
		<path style="" d="M347.117,189.734c-3.868,0-7.702,0.146-11.5,0.42c81.55,5.89,145.883,73.911,145.883,156.963&#10;&#9;&#9;&#9;c0,83.052-64.333,151.073-145.883,156.963c3.798,0.274,7.632,0.42,11.5,0.42c86.92,0,157.383-70.463,157.383-157.383&#10;&#9;&#9;&#9;S434.037,189.734,347.117,189.734z" fill="#01c0fa" fill-opacity="1" data-original-color="#01c0faff" stroke="none" stroke-opacity="1"/>
	</g>
	<g>
		<g>
			<g>
				<path style="stroke-linecap: round; stroke-linejoin: round; stroke-miterlimit: 10;" d="&#10;&#9;&#9;&#9;&#9;&#9;M51.515,150.765C24.031,183.786,7.5,226.246,7.5,272.567c0,105.219,85.297,190.517,190.517,190.517&#10;&#9;&#9;&#9;&#9;&#9;c13.224,0,26.132-1.35,38.597-3.914" fill="none" fill-opacity="1" stroke="#000000" stroke-opacity="1" data-original-stroke-color="#000000ff" stroke-width="15" data-original-stroke-width="15"/>
				<path style="stroke-linecap: round; stroke-linejoin: round; stroke-miterlimit: 10;" d="&#10;&#9;&#9;&#9;&#9;&#9;M370.441,191.457C339.973,126.803,274.226,82.05,198.017,82.05c-46.033,0-88.254,16.326-121.186,43.505" fill="none" fill-opacity="1" stroke="#000000" stroke-opacity="1" data-original-stroke-color="#000000ff" stroke-width="15" data-original-stroke-width="15"/>
				<path style="stroke-linecap: round; stroke-linejoin: round; stroke-miterlimit: 10;" d="&#10;&#9;&#9;&#9;&#9;&#9;M332.288,190.434c-27.668-45.136-77.451-75.251-134.271-75.251c-86.92,0-157.383,70.463-157.383,157.383&#10;&#9;&#9;&#9;&#9;&#9;c0,86.92,70.463,157.383,157.383,157.383c5.002,0,9.946-0.244,14.828-0.7" fill="none" fill-opacity="1" stroke="#000000" stroke-opacity="1" data-original-stroke-color="#000000ff" stroke-width="15" data-original-stroke-width="15"/>
				<path style="stroke-linecap: round; stroke-linejoin: round; stroke-miterlimit: 10;" d="&#10;&#9;&#9;&#9;&#9;&#9;M217.754,257.474c-4.542-5.93-11.691-9.758-19.737-9.758c-13.724,0-24.85,11.126-24.85,24.85&#10;&#9;&#9;&#9;&#9;&#9;c0,13.636,10.984,24.701,24.586,24.843" fill="none" fill-opacity="1" stroke="#000000" stroke-opacity="1" data-original-stroke-color="#000000ff" stroke-width="15" data-original-stroke-width="15"/>
				<g>
					<path style="stroke-linecap: round; stroke-linejoin: round; stroke-miterlimit: 10;" d="&#10;&#9;&#9;&#9;&#9;&#9;&#9;M235.858,48.917h-75.683c-8.837,0-16-7.163-16-16V15.5c0-4.418,3.582-8,8-8h91.683c4.418,0,8,3.582,8,8v17.417&#10;&#9;&#9;&#9;&#9;&#9;&#9;C251.858,41.753,244.695,48.917,235.858,48.917z" fill="none" fill-opacity="1" stroke="#000000" stroke-opacity="1" data-original-stroke-color="#000000ff" stroke-width="15" data-original-stroke-width="15"/>
					
						<line style="stroke-linecap: round; stroke-linejoin: round; stroke-miterlimit: 10;" x1="164.883" y1="48.917" x2="164.883" y2="84.921" fill="none" fill-opacity="1" stroke="#000000" stroke-opacity="1" data-original-stroke-color="#000000ff" stroke-width="15" data-original-stroke-width="15"/>
					
						<line style="stroke-linecap: round; stroke-linejoin: round; stroke-miterlimit: 10;" x1="231.15" y1="84.921" x2="231.15" y2="48.917" fill="none" fill-opacity="1" stroke="#000000" stroke-opacity="1" data-original-stroke-color="#000000ff" stroke-width="15" data-original-stroke-width="15"/>
				</g>
				<path style="stroke-linecap: round; stroke-linejoin: round; stroke-miterlimit: 10;" d="&#10;&#9;&#9;&#9;&#9;&#9;M173.207,271.185l-44.888-44.888c-6.47-6.469-6.47-16.959,0-23.428c6.469-6.469,16.959-6.469,23.428,0l44.888,44.888" fill="none" fill-opacity="1" stroke="#000000" stroke-opacity="1" data-original-stroke-color="#000000ff" stroke-width="15" data-original-stroke-width="15"/>
			</g>
			
				<line style="stroke-linecap: round; stroke-linejoin: round; stroke-miterlimit: 10;" x1="198.017" y1="140.033" x2="198.017" y2="148.317" fill="none" fill-opacity="1" stroke="#000000" stroke-opacity="1" data-original-stroke-color="#000000ff" stroke-width="15" data-original-stroke-width="15"/>
			
				<line style="stroke-linecap: round; stroke-linejoin: round; stroke-miterlimit: 10;" x1="104.301" y1="178.852" x2="110.159" y2="184.709" fill="none" fill-opacity="1" stroke="#000000" stroke-opacity="1" data-original-stroke-color="#000000ff" stroke-width="15" data-original-stroke-width="15"/>
			
				<line style="stroke-linecap: round; stroke-linejoin: round; stroke-miterlimit: 10;" x1="65.483" y1="272.567" x2="73.767" y2="272.567" fill="none" fill-opacity="1" stroke="#000000" stroke-opacity="1" data-original-stroke-color="#000000ff" stroke-width="15" data-original-stroke-width="15"/>
			
				<line style="stroke-linecap: round; stroke-linejoin: round; stroke-miterlimit: 10;" x1="104.302" y1="366.282" x2="110.159" y2="360.425" fill="none" fill-opacity="1" stroke="#000000" stroke-opacity="1" data-original-stroke-color="#000000ff" stroke-width="15" data-original-stroke-width="15"/>
			
				<line style="stroke-linecap: round; stroke-linejoin: round; stroke-miterlimit: 10;" x1="291.732" y1="178.851" x2="285.875" y2="184.709" fill="none" fill-opacity="1" stroke="#000000" stroke-opacity="1" data-original-stroke-color="#000000ff" stroke-width="15" data-original-stroke-width="15"/>
		</g>
		<path style="stroke-linecap: round; stroke-linejoin: round; stroke-miterlimit: 10;" d="&#10;&#9;&#9;&#9;M272.098,208.729c22.3-12.114,47.856-18.995,75.018-18.995c86.92,0,157.383,70.463,157.383,157.383&#10;&#9;&#9;&#9;c0,86.92-70.463,157.383-157.383,157.383c-86.921,0-157.383-70.463-157.383-157.383c0-47.542,21.08-90.16,54.403-119.018" fill="none" fill-opacity="1" stroke="#000000" stroke-opacity="1" data-original-stroke-color="#000000ff" stroke-width="15" data-original-stroke-width="15"/>
		<path style="stroke-linecap: round; stroke-linejoin: round; stroke-miterlimit: 10;" d="&#10;&#9;&#9;&#9;M448.657,386.611l-0.012-0.007c3.031-5.261,3.063-11.992-0.511-17.404c-5.041-7.636-15.318-9.739-22.953-4.697l-6.912,4.564&#10;&#9;&#9;&#9;l-18.717-10.806l0.004-22.29l18.713-10.804l6.912,4.564c2.811,1.856,5.979,2.744,9.113,2.744c5.378,0,10.655-2.616,13.84-7.441&#10;&#9;&#9;&#9;c3.574-5.412,3.542-12.144,0.51-17.404l0.012-0.007c7.924-4.575,10.639-14.707,6.064-22.63&#10;&#9;&#9;&#9;c-4.575-7.923-14.706-10.64-22.631-6.064l-0.013,0.007c-3.041-5.257-8.857-8.65-15.327-8.261&#10;&#9;&#9;&#9;c-9.133,0.548-16.092,8.397-15.544,17.529l0.496,8.269l-18.715,10.805l-19.303-11.143v-21.612l7.409-3.704&#10;&#9;&#9;&#9;c8.184-4.092,11.501-14.043,7.409-22.227c-2.901-5.801-8.746-9.138-14.818-9.144v-0.014c0-9.149-7.417-16.567-16.567-16.567&#10;&#9;&#9;&#9;c-9.149,0-16.567,7.417-16.567,16.567v0.014c-6.072,0.005-11.918,3.343-14.818,9.144c-4.092,8.183-0.775,18.135,7.409,22.227&#10;&#9;&#9;&#9;l7.409,3.704v21.613l-19.3,11.144l-18.718-10.807l0.496-8.268c0.549-9.133-6.411-16.981-15.544-17.53&#10;&#9;&#9;&#9;c-6.473-0.387-12.287,3.005-15.328,8.261l-0.013-0.007c-7.925-4.574-18.056-1.859-22.63,6.064&#10;&#9;&#9;&#9;c-4.575,7.924-1.86,18.056,6.064,22.63l0.013,0.007c-3.032,5.261-3.064,11.992,0.51,17.404c3.186,4.825,8.461,7.441,13.84,7.441&#10;&#9;&#9;&#9;c3.134,0,6.303-0.888,9.113-2.744l6.912-4.564l18.72,10.808l-0.002,22.285l-18.718,10.807l-6.912-4.564&#10;&#9;&#9;&#9;c-7.635-5.041-17.912-2.938-22.953,4.697c-3.574,5.413-3.542,12.144-0.51,17.404l-0.012,0.007&#10;&#9;&#9;&#9;c-7.924,4.575-10.639,14.707-6.064,22.63c3.069,5.315,8.637,8.286,14.362,8.286c2.811,0,5.66-0.716,8.268-2.222l0.005-0.003&#10;&#9;&#9;&#9;c2.882,4.982,8.259,8.287,14.326,8.287c0.334,0,0.67-0.01,1.008-0.03c9.133-0.548,16.092-8.396,15.544-17.529l-0.496-8.269&#10;&#9;&#9;&#9;l18.717-10.807l19.301,11.143v21.613l-7.409,3.704c-8.184,4.092-11.501,14.043-7.409,22.227c2.9,5.801,8.746,9.138,14.818,9.144&#10;&#9;&#9;&#9;v0.014c0,9.149,7.417,16.567,16.567,16.567c9.148,0,16.565-7.416,16.566-16.564c6.072-0.005,11.918-3.36,14.818-9.161&#10;&#9;&#9;&#9;c4.092-8.183,0.775-18.134-7.409-22.227l-7.409-3.704V398.1l19.31-11.141l18.709,10.801l-0.496,8.269&#10;&#9;&#9;&#9;c-0.549,9.133,6.411,16.981,15.544,17.53c0.338,0.02,0.674,0.03,1.009,0.03c6.066,0,11.445-3.305,14.326-8.288l0.006,0.003&#10;&#9;&#9;&#9;c2.609,1.507,5.457,2.222,8.268,2.222c5.726,0,11.295-2.971,14.363-8.286C459.296,401.317,456.581,391.186,448.657,386.611z&#10;&#9;&#9;&#9; M366.418,358.269l-19.3,11.136l-19.303-11.144l0.001-22.287l19.3-11.144l19.305,11.144L366.418,358.269z" fill="none" fill-opacity="1" stroke="#000000" stroke-opacity="1" data-original-stroke-color="#000000ff" stroke-width="15" data-original-stroke-width="15"/>
	</g>
</g></g></svg>