<svg id="Icons" viewBox="0 0 60 60" xmlns="http://www.w3.org/2000/svg" width="300" height="300" version="1.1" xmlns:xlink="http://www.w3.org/1999/xlink" xmlns:svgjs="http://svgjs.dev/svgjs"><g width="100%" height="100%" transform="matrix(1,0,0,1,0,0)"><path d="m48.536 18.068c-2.186 4.659-9.935 11.957-18.536 14.932-8.601-2.975-16.349-10.272-18.536-14.932-1.738-3.703-2.117-8.061-.102-11.655 2.014-3.593 6.755-6.106 11.215-5.242 2.802.543 5.189 2.326 6.535 4.548.368.607.662 1.243.888 1.898.226-.655.52-1.291.888-1.898 1.347-2.222 3.733-4.005 6.535-4.548 4.46-.864 9.201 1.649 11.215 5.243 2.015 3.594 1.636 7.952-.102 11.655z" fill="#e5283f" fill-opacity="1" data-original-color="#e5283fff" stroke="none" stroke-opacity="1" style=""/><path d="m55.13 36.79c-2.5-2.44-5.8-3.79-9.31-3.79s-6.82 1.35-9.32 3.79l-6.5 6.41-6.5-6.41c-2.5-2.44-5.81-3.79-9.32-3.79s-6.81 1.35-9.31 3.79c-2.5 2.47-3.87 5.74-3.87 9.22s1.37 6.74 3.87 9.21c2.57 2.52 5.94 3.78 9.31 3.78s6.75-1.26 9.32-3.78l6.5-6.41 6.5 6.41c2.57 2.52 5.94 3.78 9.31 3.78s6.75-1.26 9.32-3.78c2.5-2.47 3.87-5.74 3.87-9.21s-1.37-6.75-3.87-9.22zm-34.43 15.57c-3.6 3.53-9.44 3.53-13.02.01-1.73-1.71-2.68-3.96-2.68-6.36s.95-4.66 2.67-6.36c1.74-1.71 4.06-2.65 6.51-2.65s4.78.94 6.51 2.64l6.46 6.37zm31.63 0c-3.59 3.53-9.43 3.53-13.02.01l-6.46-6.36 6.45-6.36c1.74-1.71 4.06-2.65 6.52-2.65s4.77.94 6.5 2.64c1.73 1.71 2.68 3.96 2.68 6.37s-.95 4.65-2.67 6.35z" fill="#ffc215" fill-opacity="1" data-original-color="#ffc215ff" stroke="none" stroke-opacity="1" style=""/><g fill="#161616"><path d="m10.49 5.925c-2.018 3.598-1.992 8.179.068 12.568 2.382 5.076 10.367 12.427 19.114 15.452.106.036.217.055.327.055s.221-.019.327-.055c8.747-3.025 16.732-10.376 19.114-15.452 2.061-4.39 2.086-8.971.068-12.568-2.337-4.173-7.618-6.645-12.276-5.736-2.953.572-5.645 2.445-7.2 5.011-.011.019-.021.036-.032.055-.011-.019-.021-.036-.032-.055-1.556-2.565-4.247-4.438-7.2-5.011-3.146-.612-6.653.294-9.382 2.419-.436.339-.514.968-.175 1.403s.967.515 1.403.175c2.279-1.774 5.183-2.535 7.772-2.034 2.408.467 4.603 1.994 5.87 4.085.323.532.592 1.106.798 1.705.139.404.519.675.945.675s.807-.271.945-.675c.206-.599.475-1.173.798-1.705 1.268-2.091 3.462-3.618 5.87-4.085 3.788-.729 8.248 1.353 10.152 4.751 1.697 3.027 1.648 6.942-.135 10.74-1.902 4.053-9.056 11.214-17.631 14.296-8.575-3.082-15.729-10.243-17.631-14.296-1.783-3.798-1.832-7.713-.135-10.74.271-.482.099-1.092-.383-1.361-.486-.272-1.092-.099-1.361.383z" fill="#161616" fill-opacity="1" data-original-color="#161616ff" stroke="none" stroke-opacity="1" style=""/><path d="m55.828 36.075c-2.692-2.628-6.246-4.075-10.008-4.075s-7.326 1.447-10.022 4.079l-5.798 5.72-5.802-5.724c-2.692-2.628-6.25-4.075-10.019-4.075s-7.315 1.447-10.013 4.08c-2.688 2.656-4.167 6.182-4.167 9.925s1.479 7.27 4.17 9.928c2.675 2.623 6.229 4.067 10.01 4.067s7.346-1.444 10.022-4.069l5.798-5.72 5.8 5.722c2.675 2.623 6.229 4.067 10.01 4.067s7.346-1.444 10.023-4.07c2.688-2.655 4.167-6.181 4.167-9.925s-1.479-7.269-4.167-9.925l-.005-.005zm-1.398 18.43c-2.299 2.254-5.359 3.495-8.62 3.495s-6.311-1.241-8.607-3.493l-6.5-6.413s0 0-.001 0-2.847-2.798-2.847-2.798-.001-.002-.002-.003l-6.461-6.362c-1.922-1.888-4.482-2.928-7.212-2.928s-5.283 1.043-7.213 2.939c-1.913 1.893-2.967 4.401-2.967 7.063s1.057 5.176 2.979 7.075c1.982 1.95 4.589 2.925 7.198 2.925s5.229-.979 7.224-2.934h.002l5.749-5.662 1.423 1.399-5.775 5.698c-2.299 2.254-5.359 3.495-8.62 3.495s-6.311-1.241-8.606-3.492c-2.305-2.277-3.573-5.297-3.573-8.503s1.269-6.225 3.568-8.498c2.316-2.262 5.375-3.507 8.611-3.507s6.306 1.245 8.618 3.503l6.5 6.413s0 0 .001 0 2.847 2.798 2.847 2.798.001.002.002.003l6.462 6.363c1.987 1.949 4.597 2.924 7.205 2.924s5.229-.979 7.217-2.935l.002-.002c1.913-1.892 2.967-4.399 2.967-7.063s-1.057-5.175-2.979-7.075c-1.922-1.888-4.479-2.928-7.201-2.928s-5.294 1.043-7.223 2.938l-5.749 5.662-1.423-1.399 5.773-5.696c2.316-2.262 5.379-3.507 8.622-3.507s6.293 1.245 8.609 3.505c2.303 2.278 3.57 5.297 3.57 8.5s-1.269 6.226-3.57 8.5zm-28.704-8.5-5.726 5.639c-3.211 3.148-8.422 3.155-11.617.013-1.536-1.52-2.383-3.526-2.383-5.651s.843-4.128 2.371-5.64c1.551-1.523 3.614-2.363 5.809-2.363s4.265.836 5.809 2.354l5.737 5.649zm8.549 0 5.727-5.64c1.551-1.523 3.618-2.363 5.819-2.363s4.254.836 5.797 2.352c1.536 1.521 2.383 3.527 2.383 5.651s-.842 4.127-2.371 5.64c-3.202 3.149-8.415 3.151-11.617.01l-5.737-5.649z" fill="#161616" fill-opacity="1" data-original-color="#161616ff" stroke="none" stroke-opacity="1" style=""/></g></g></svg>