<?xml version="1.0" encoding="iso-8859-1"?>
<!-- Generator: Adobe Illustrator 19.0.0, SVG Export Plug-In . SVG Version: 6.00 Build 0)  -->
<svg version="1.1" id="Layer_1" xmlns="http://www.w3.org/2000/svg" xmlns:xlink="http://www.w3.org/1999/xlink" x="0px" y="0px"
	 viewBox="0 0 503.344 503.344" style="enable-background:new 0 0 503.344 503.344;" xml:space="preserve">
<g transform="translate(1 1)">
	<path style="fill:#FDCC00;" d="M57.623,368.18H15.656l-7.554,46.164c-5.036,28.538,17.626,54.557,47.003,54.557H99.59v-38.61
		C75.249,420.22,57.623,396.718,57.623,368.18"/>
	<g>
		<path style="fill:#FFE100;" d="M452.954,172.613c-4.197-22.662-21.823-39.449-43.646-39.449H292.639v67.148h67.148v100.721
			h-67.148v159.475h109.115v-30.216c24.341-10.072,41.967-34.413,41.967-62.112h26.859L452.954,172.613z"/>
		<path style="fill:#FFE100;" d="M141.557,301.033V200.311h67.148v-67.148H92.875c-21.823,0-39.449,16.787-43.646,39.449
			L30.764,368.18h26.859c0,28.538,17.626,52.039,41.967,62.112v30.216h109.115V301.033H141.557z"/>
		<path style="fill:#FFE100;" d="M320.338,133.164h39.449v-10.072c0-7.554-0.839-15.108-3.357-21.823
			c-13.43-44.485-56.236-77.22-105.757-77.22s-92.328,32.734-105.757,77.22c-2.518,6.715-3.357,15.108-3.357,21.823v10.072h39.449
			c1.679-35.252,27.698-63.79,62.951-67.148c2.518,0,4.197,0,6.715,0s4.197,0,6.715,0
			C292.639,69.374,318.659,97.911,320.338,133.164"/>
	</g>
	<path style="fill:#FDCC00;" d="M271.656,200.311l5.036,24.341c0.839,5.036-3.357,9.233-8.393,9.233h-32.734
		c-5.036,0-9.233-4.197-8.393-9.233l5.036-24.341h-90.649v100.721h92.328v-33.574h33.574v33.574h92.328V200.311H271.656z"/>
	<g>
		<path style="fill:#00DA6C;" d="M267.459,233.885h-32.734c-5.036,0-9.233-4.197-8.393-9.233l6.715-33.574
			c0.839-4.197,4.197-7.554,8.393-7.554h19.305c4.197,0,8.393,3.357,8.393,7.554l6.715,33.574
			C276.692,229.689,272.495,233.885,267.459,233.885"/>
		<polygon style="fill:#00DA6C;" points="233.885,317.82 267.459,317.82 267.459,267.459 233.885,267.459 		"/>
	</g>
	<path style="fill:#FDCC00;" d="M494.082,414.344l-7.554-46.164h-41.967c0,28.538-17.626,52.039-41.967,62.112v38.61h45.325
		C476.456,468.902,498.279,442.882,494.082,414.344"/>
	<g>
		<path style="fill:#FFA800;" d="M452.954,172.613c-4.197-22.662-22.662-39.449-43.646-39.449h-25.18
			c21.823,0,39.449,16.787,43.646,39.449l18.466,195.567h25.18L452.954,172.613z"/>
		<path style="fill:#FFA800;" d="M494.082,414.344l-7.554-46.164h-25.18l7.554,46.164c5.036,28.538-17.626,54.557-46.164,54.557
			h25.18C476.456,468.902,498.279,442.882,494.082,414.344"/>
	</g>
	<g>
		<path style="fill:#FFFFFF;" d="M49.23,172.613c3.357-22.662,21.823-39.449,43.646-39.449h25.18
			c-21.823,0-39.449,16.787-43.646,39.449L55.944,368.18h-25.18L49.23,172.613z"/>
		<path style="fill:#FFFFFF;" d="M8.102,414.344l7.554-46.164h25.18l-7.554,46.164c-5.036,28.538,17.626,54.557,47.003,54.557
			h-25.18C25.728,468.902,3.066,442.882,8.102,414.344"/>
	</g>
	<g>
		<path style="fill:#FDCC00;" d="M277.531,116.377h-52.879c-8.393,0-15.948,6.715-15.948,15.948v67.987h21.823l1.679-9.233
			c0.839-4.197,4.197-7.554,8.393-7.554h19.305c4.197,0,8.393,3.357,8.393,7.554l1.679,9.233h22.662v-67.987
			C292.639,123.092,285.925,116.377,277.531,116.377"/>
		<polygon style="fill:#FDCC00;" points="267.459,301.033 267.459,317.82 233.885,317.82 233.885,301.033 208.705,301.033 
			208.705,477.295 292.639,477.295 292.639,301.033 		"/>
	</g>
	<path d="M447.079,477.295h-45.325c-5.036,0-8.393-3.357-8.393-8.393v-38.61c0-3.357,1.679-6.715,5.036-7.554
		c22.662-9.233,36.931-30.216,36.931-54.557c0-5.036,3.357-8.393,8.393-8.393h41.967c4.197,0,7.554,3.357,8.393,6.715l7.554,46.164
		c2.518,15.948-1.679,32.734-12.59,45.325C478.974,469.741,463.866,477.295,447.079,477.295z M410.148,460.508h36.931
		c11.751,0,21.823-5.036,29.377-13.43c7.554-8.393,10.911-20.144,8.393-31.056l-5.875-39.449h-26.859
		c-2.518,25.18-18.466,47.843-41.128,59.593v24.341H410.148z"/>
	<path d="M99.59,477.295H55.105c-15.948,0-31.895-7.554-42.807-19.305C1.387,445.4-2.81,429.452-0.292,412.666l7.554-46.164
		c0.839-3.357,4.197-6.715,8.393-6.715h41.967c5.036,0,8.393,3.357,8.393,8.393c0,24.341,14.269,45.325,36.931,54.557
		c3.357,1.679,5.036,4.197,5.036,7.554v38.61C107.984,473.938,104.626,477.295,99.59,477.295z M23.21,376.574l-6.715,38.61
		c-1.679,10.911,1.679,22.662,8.393,31.056c7.554,9.233,18.466,14.269,30.216,14.269h36.092v-24.341
		c-23.502-11.751-38.61-33.574-41.128-59.593H23.21z"/>
	<path d="M401.754,468.902H292.639c-5.036,0-8.393-3.357-8.393-8.393V301.033c0-5.036,3.357-8.393,8.393-8.393h58.754v-83.934
		h-58.754c-5.036,0-8.393-3.357-8.393-8.393v-67.148c0-5.036,3.357-8.393,8.393-8.393h116.669c26.02,0,47.843,19.305,52.039,46.164
		l18.466,196.407c0,2.518-0.839,5.036-2.518,6.715c-1.679,1.679-4.197,2.518-5.875,2.518h-19.305
		c-2.518,25.18-18.466,47.843-41.128,59.593v24.341C410.148,465.544,406.79,468.902,401.754,468.902z M301.033,452.115h92.328
		v-21.823c0-3.357,1.679-6.715,5.036-7.554c22.662-9.233,36.931-30.216,36.931-54.557c0-5.036,3.357-8.393,8.393-8.393h17.626
		l-17.626-186.334c-2.518-18.466-16.787-31.895-34.413-31.895H301.033v50.361h58.754c5.036,0,8.393,3.357,8.393,8.393v100.721
		c0,5.036-3.357,8.393-8.393,8.393h-58.754V452.115z"/>
	<path d="M208.705,468.902H99.59c-5.036,0-8.393-3.357-8.393-8.393v-24.341c-23.502-11.751-38.61-33.574-41.128-59.593H30.764
		c-2.518,0-5.036-0.839-5.875-2.518c-1.679-1.679-2.518-4.197-2.518-6.715l18.466-195.567c4.197-27.698,26.02-47.003,52.039-47.003
		h115.83c5.036,0,8.393,3.357,8.393,8.393v67.148c0,5.036-3.357,8.393-8.393,8.393h-58.754v83.934h58.754
		c5.036,0,8.393,3.357,8.393,8.393v159.475C217.098,465.544,213.741,468.902,208.705,468.902z M107.984,452.115h92.328V309.426
		h-58.754c-5.036,0-8.393-3.357-8.393-8.393V200.311c0-5.036,3.357-8.393,8.393-8.393h58.754v-50.361H92.875
		c-17.626,0-31.895,13.43-35.252,32.734L39.997,359.787h17.626c5.036,0,8.393,3.357,8.393,8.393
		c0,24.341,14.269,45.325,36.931,54.557c3.357,1.679,5.036,4.197,5.036,7.554V452.115z"/>
	<path d="M359.787,141.557h-39.449c-4.197,0-8.393-3.357-8.393-8.393c-1.679-31.056-24.341-56.236-55.397-58.754
		c-4.197,0-7.554,0-11.751,0c-30.216,2.518-53.718,27.698-55.397,58.754c0,4.197-4.197,8.393-8.393,8.393h-39.449
		c-5.036,0-8.393-3.357-8.393-8.393v-10.072c0-5.036,0.839-15.108,3.357-24.341c15.948-48.682,62.951-83.095,114.151-83.095
		c52.039,0,99.043,34.413,114.151,83.095c3.357,9.233,3.357,19.305,3.357,24.341v10.072
		C368.18,138.2,364.823,141.557,359.787,141.557z M327.892,124.77h23.502v-1.679c0-6.715-0.839-14.269-2.518-19.305
		c-13.43-41.967-53.718-71.344-98.203-71.344s-84.774,29.377-98.203,71.344c-0.839,5.036-2.518,12.59-2.518,19.305v1.679h23.502
		c5.036-36.092,32.734-63.79,69.666-67.148c5.036-0.839,10.072-0.839,15.108,0C295.157,60.98,322.856,88.679,327.892,124.77z"/>
	<path d="M292.639,208.705h-21.823c-4.197,0-7.554-2.518-8.393-6.715l-1.679-9.233l-19.305-0.839l-2.518,10.072
		c-0.839,4.197-4.197,6.715-8.393,6.715h-21.823c-5.036,0-8.393-3.357-8.393-8.393v-67.987c0-13.43,10.911-24.341,24.341-24.341
		h52.879c13.43,0,24.341,10.911,24.341,24.341v67.987C301.033,205.348,297.675,208.705,292.639,208.705z M278.37,191.918h5.875
		v-59.593c0-4.197-3.357-7.554-7.554-7.554h-52.879c-4.197,0-7.554,3.357-7.554,7.554v59.593h5.875l0.839-2.518
		c0.839-7.554,8.393-14.269,16.787-14.269h19.305c8.393,0,15.948,6.715,16.787,14.269L278.37,191.918z"/>
	<path d="M292.639,485.689h-83.934c-5.036,0-8.393-3.357-8.393-8.393V301.033c0-5.036,3.357-8.393,8.393-8.393h25.18
		c5.036,0,8.393,3.357,8.393,8.393v8.393h16.787v-8.393c0-5.036,3.357-8.393,8.393-8.393h25.18c5.036,0,8.393,3.357,8.393,8.393
		v176.262C301.033,482.331,297.675,485.689,292.639,485.689z M217.098,468.902h67.148V309.426h-8.393v8.393
		c0,5.036-3.357,8.393-8.393,8.393h-33.574c-5.036,0-8.393-3.357-8.393-8.393v-8.393h-8.393V468.902z"/>
	<path d="M267.459,242.279h-32.734c-5.036,0-10.072-2.518-13.43-5.875c-3.357-3.357-4.197-8.393-4.197-13.43l6.715-34.413
		c0.839-7.554,8.393-14.269,16.787-14.269h19.305c8.393,0,15.948,6.715,16.787,14.269l6.715,32.734
		c0.839,5.036-0.839,10.072-4.197,13.43C277.531,239.761,272.495,242.279,267.459,242.279z M241.439,191.918l-7.554,34.413
		l33.574-0.839l0,0l-6.715-32.734L241.439,191.918z"/>
	<path d="M267.459,326.213h-33.574c-5.036,0-8.393-3.357-8.393-8.393v-50.361c0-5.036,3.357-8.393,8.393-8.393h33.574
		c5.036,0,8.393,3.357,8.393,8.393v50.361C275.852,322.856,272.495,326.213,267.459,326.213z M242.279,309.426h16.787v-33.574
		h-16.787V309.426z"/>
	<path d="M359.787,309.426h-92.328c-5.036,0-8.393-3.357-8.393-8.393v-25.18h-16.787v25.18c0,5.036-3.357,8.393-8.393,8.393h-92.328
		c-5.036,0-8.393-3.357-8.393-8.393V200.311c0-5.036,3.357-8.393,8.393-8.393h88.97c2.518,0,5.036,0.839,6.715,3.357
		c1.679,1.679,2.518,4.197,1.679,6.715l-5.036,24.341l33.574-0.839l-4.197-23.502c-0.839-2.518,0-5.036,1.679-6.715
		c1.679-1.679,4.197-3.357,6.715-3.357h88.131c5.036,0,8.393,3.357,8.393,8.393v100.721
		C368.18,306.069,364.823,309.426,359.787,309.426z M275.852,292.639h75.541v-83.934h-70.505l2.518,14.269
		c0.839,5.036-0.839,10.072-4.197,13.43c-3.357,3.357-8.393,5.875-13.43,5.875h-32.734c-5.036,0-10.072-2.518-13.43-5.875
		c-3.357-3.357-4.197-8.393-4.197-13.43l2.518-14.269h-67.987v83.934h75.541v-25.18c0-5.036,3.357-8.393,8.393-8.393h33.574
		c5.036,0,8.393,3.357,8.393,8.393V292.639z"/>
</g>
<g>
</g>
<g>
</g>
<g>
</g>
<g>
</g>
<g>
</g>
<g>
</g>
<g>
</g>
<g>
</g>
<g>
</g>
<g>
</g>
<g>
</g>
<g>
</g>
<g>
</g>
<g>
</g>
<g>
</g>
</svg>
