<svg id="Layer_1" enable-background="new 0 0 41 41" viewBox="0 0 41 41" xmlns="http://www.w3.org/2000/svg"><g><g><ellipse cx="20.5" cy="20.5" fill="#ffd766" rx="20" ry="20" transform="matrix(.924 -.383 .383 .924 -6.285 9.406)"/><path d="m20.5 38.8c-10.8 0-19.5-8.5-20-19.2v.8c0 11 9 20 20 20s20-9 20-20c0-.3 0-.6 0-.8-.5 10.7-9.2 19.2-20 19.2z" fill="#f7c74d"/></g><g fill="#f7c74d"><path d="m31 21.2c-.8 0-1.5.7-1.5 1.5v5.6c0 .7-.6 1.4-1.4 1.4h-15.2c-.7 0-1.4-.6-1.4-1.4v-15.2c0-.7.6-1.4 1.4-1.4h5.6c.8 0 1.5-.7 1.5-1.5s-.7-1.5-1.5-1.5h-5.6c-2.4 0-4.4 2-4.4 4.4v15.3c0 2.4 2 4.4 4.4 4.4h15.3c2.4 0 4.4-2 4.4-4.4v-5.6c-.1-.9-.8-1.6-1.6-1.6z"/><path d="m32.4 9.7c0-.1 0-.1 0 0-.2-.4-.5-.7-.8-.8-.2-.1-.4-.1-.5-.1h-6.9c-.8 0-1.5.7-1.5 1.5s.7 1.5 1.5 1.5h3.3l-7.9 7.9c-.6.6-.6 1.5 0 2.1.3.3.7.4 1.1.4s.8-.1 1.1-.4l7.9-7.9v3.3c0 .8.7 1.5 1.5 1.5s1.5-.7 1.5-1.5v-6.9c-.2-.3-.2-.5-.3-.6z"/></g><g fill="#fff"><path d="m31 19.3c-.8 0-1.5.7-1.5 1.5v5.6c0 .7-.6 1.4-1.4 1.4h-15.2c-.7 0-1.4-.6-1.4-1.4v-15.2c0-.7.6-1.4 1.4-1.4h5.6c.8 0 1.5-.7 1.5-1.5s-.7-1.5-1.5-1.5h-5.6c-2.4 0-4.4 2-4.4 4.4v15.3c0 2.4 2 4.4 4.4 4.4h15.3c2.4 0 4.4-2 4.4-4.4v-5.6c-.1-.9-.8-1.6-1.6-1.6z"/><path d="m32.4 7.8c0-.1 0-.1 0 0-.2-.4-.5-.7-.8-.8-.2-.1-.4-.1-.5-.1h-6.9c-.8 0-1.5.7-1.5 1.5s.7 1.5 1.5 1.5h3.3l-7.9 7.9c-.6.6-.6 1.5 0 2.1.3.3.7.4 1.1.4s.8-.1 1.1-.4l7.9-7.9v3.3c0 .8.7 1.5 1.5 1.5s1.5-.7 1.5-1.5v-7c-.2-.2-.2-.4-.3-.5z"/></g></g></svg>