<svg height="512" viewBox="0 0 64 64" width="512" xmlns="http://www.w3.org/2000/svg"><g id="Music_Sound" data-name="Music Sound"><g fill="#00b7f0"><path d="m6 37a.99974.99974 0 0 1 -1-1v-8a1 1 0 0 1 2 0v8a.99974.99974 0 0 1 -1 1z"/><path d="m10 41a.99974.99974 0 0 1 -1-1v-16a1 1 0 0 1 2 0v16a.99974.99974 0 0 1 -1 1z"/><path d="m14 48a.99974.99974 0 0 1 -1-1v-30a1 1 0 0 1 2 0v30a.99974.99974 0 0 1 -1 1z"/><path d="m18 53.5a.99974.99974 0 0 1 -1-1v-15a1 1 0 0 1 2 0v15a.99974.99974 0 0 1 -1 1z"/><path d="m18 27.5a.99974.99974 0 0 1 -1-1v-15a1 1 0 0 1 2 0v15a.99974.99974 0 0 1 -1 1z"/><path d="m22 57.5a.99974.99974 0 0 1 -1-1v-13a1 1 0 0 1 2 0v13a.99974.99974 0 0 1 -1 1z"/><path d="m22 21.5a.99974.99974 0 0 1 -1-1v-13a1 1 0 0 1 2 0v13a.99974.99974 0 0 1 -1 1z"/><path d="m26 60a.99974.99974 0 0 1 -1-1v-13a1 1 0 0 1 2 0v13a.99974.99974 0 0 1 -1 1z"/><path d="m26 19a.99974.99974 0 0 1 -1-1v-13a1 1 0 0 1 2 0v13a.99974.99974 0 0 1 -1 1z"/><path d="m30 58a.99974.99974 0 0 1 -1-1v-10a1 1 0 0 1 2 0v10a.99974.99974 0 0 1 -1 1z"/><path d="m30 18a.99974.99974 0 0 1 -1-1v-10a1 1 0 0 1 2 0v10a.99974.99974 0 0 1 -1 1z"/><path d="m34 58a.99974.99974 0 0 1 -1-1v-10a1 1 0 0 1 2 0v10a.99974.99974 0 0 1 -1 1z"/><path d="m34 18a.99974.99974 0 0 1 -1-1v-10a1 1 0 0 1 2 0v10a.99974.99974 0 0 1 -1 1z"/><path d="m38 60a.99974.99974 0 0 1 -1-1v-13a1 1 0 0 1 2 0v13a.99974.99974 0 0 1 -1 1z"/><path d="m38 19a.99974.99974 0 0 1 -1-1v-13a1 1 0 0 1 2 0v13a.99974.99974 0 0 1 -1 1z"/><path d="m42 57.5a.99974.99974 0 0 1 -1-1v-13a1 1 0 0 1 2 0v13a.99974.99974 0 0 1 -1 1z"/><path d="m42 21.5a.99974.99974 0 0 1 -1-1v-13a1 1 0 0 1 2 0v13a.99974.99974 0 0 1 -1 1z"/><path d="m46 53.5a.99974.99974 0 0 1 -1-1v-15a1 1 0 0 1 2 0v15a.99974.99974 0 0 1 -1 1z"/><path d="m46 27.5a.99974.99974 0 0 1 -1-1v-15a1 1 0 0 1 2 0v15a.99974.99974 0 0 1 -1 1z"/></g><path d="m48 32a16 16 0 0 1 -32 0c0-.15 0-.3.01-.45a15.98639 15.98639 0 0 1 15.54-15.54c.15-.01.3-.01.45-.01a15.99555 15.99555 0 0 1 16 16z" fill="#d2d2d2"/><path d="m46.25 31.12a15.123 15.123 0 0 1 -30.24.43 15.98639 15.98639 0 0 1 15.54-15.54 15.1123 15.1123 0 0 1 14.7 15.11z" fill="#f6f4e6"/><path d="m50 48a.99974.99974 0 0 1 -1-1v-30a1 1 0 0 1 2 0v30a.99974.99974 0 0 1 -1 1z" fill="#00b7f0"/><path d="m54 41a.99974.99974 0 0 1 -1-1v-16a1 1 0 0 1 2 0v16a.99974.99974 0 0 1 -1 1z" fill="#00b7f0"/><path d="m58 37a.99974.99974 0 0 1 -1-1v-8a1 1 0 0 1 2 0v8a.99974.99974 0 0 1 -1 1z" fill="#00b7f0"/><path d="m34.20685 39.09606c.00287-.03269.019-.06087.019-.09431v-16.77045a1.118 1.118 0 1 0 -2.23606 0v14.1587a6.41606 6.41606 0 0 0 -3.73391.31725c-2.46514.94347-3.87114 2.9858-3.14036 4.56178s3.3216 2.08867 5.78667 1.14526a5.18507 5.18507 0 0 0 3.18315-2.89907 1.09224 1.09224 0 0 0 .12058-.41469z" fill="#52575d"/><path d="m36.18244 33.69111a1.118 1.118 0 0 1 -.78721-1.91234c1.415-1.4019 1.67923-2.57125 1.61263-3.04073-.09717-.68458-.31226-1.35114-1.95764-2.58217a10.32127 10.32127 0 0 1 -2.9654-3.47255 1.11845 1.11845 0 0 1 2.04608-.904 8.31938 8.31938 0 0 0 2.259 2.586c1.8157 1.35877 2.60946 2.49591 2.83219 4.05722.07971.55792.15177 2.56361-2.25243 4.94488a1.11585 1.11585 0 0 1 -.78722.32369z" fill="#fb3d80"/></g></svg>