<svg id="Layer_1" enable-background="new 0 0 68 68" viewBox="0 0 68 68" xmlns="http://www.w3.org/2000/svg"><g><g><path d="m65.9999924 33.8649902c0 7.4199219-2.5798302 14.2900391-6.8898888 19.7402344-1.5 1.8999023-3.1999512 3.6298828-5.079834 5.1396484-1.5700684 1.2700195-3.2602539 2.3999023-5.050293 3.3603516-4.4799805 2.3999023-9.579834 3.7597656-14.9799805 3.7597656-2.8098145 0-5.5397949-.3701172-8.1398926-1.0600586-13.6699218-3.6396484-23.8601073-16.199707-23.8601073-30.9399414.0102539-7.409668 2.5700684-14.2099609 6.8601074-19.6000977 4.8898926-6.1396484 11.9899902-10.4399413 20.0800781-11.7197265 1.6499023-.2700195 3.3498535-.4101563 5.0700684-.4101563.3198242 0 .6499023 0 .9697266.0200195 2.4702148.0698242 4.8701172.4199219 7.1801758 1.0297852 13.659912 3.5703126 23.8500938 15.9204102 23.8398399 30.6801758z" fill="#ed524e"/><g fill="#e9e9ff"><path d="m14.2486382 42.6953583c-.2046022-.2125854-.3064041-.4740791-.3064041-.784977 0-.1307449.0409203-.294426.1227608-.4905472l6.2548504-14.7663136c.1307449-.2939281.3143883-.5354595.5519276-.7235928.2365398-.1876354.5269756-.2819538.8703079-.2819538h.2455235c.3433342 0 .6327705.0943184.8703098.2819538.2365398.1881332.4211807.4296646.5519276.7235928l6.2548483 14.7663136c.0818424.1961212.1227627.3598022.1227627.4905472 0 .3108978-.1028004.5723915-.306406.784977-.2046013.2120895-.4700851.318882-.7974491.318882-.2295551 0-.4381504-.0613823-.6257858-.1841431s-.3303585-.2899361-.4291649-.5025253l-1.5939045-3.8265648h-8.339798l-1.594902 3.8265648c-.0978107.2125893-.2405329.3797646-.4291668.5025253-.1876354.1227608-.3962307.1841431-.6247864.1841431-.327364 0-.5928479-.1067925-.797451-.318882zm4.3046379-6.2303963h6.6231346l-3.3115673-7.9715157z"/><path d="m33.521431 42.3640022c-.907238-.5149994-1.6428108-1.2670403-2.2067146-2.2566185-.5649033-.9890785-.8463554-2.146328-.8463554-3.4707565 0-1.3244247.2814522-2.4811783.8463554-3.4707565.5639038-.9890785 1.2994766-1.7416172 2.2067146-2.2566166.9082336-.5149994 1.8683701-.7724991 2.8824005-.7724991 1.6028862 0 3.0001717.6217918 4.1948509 1.864378v-6.0098248c0-.3268661.109787-.5968418.3303566-.8094273.2205734-.2120895.4870529-.318882.797451-.318882s.571888.1102867.7844772.331358c.2125854.2205715.3193779.4865532.3193779.7969513v15.9190731c0 .3108978-.1067924.5723915-.3193779.784977-.2125893.2120895-.4740791.318882-.7844772.318882s-.5768776-.1067924-.797451-.318882c-.2205696-.2125854-.3303566-.4740791-.3303566-.784977v-.6377602c-1.1946793 1.2430878-2.5919647 1.8643799-4.1948509 1.8643799-1.0140305 0-1.9741669-.2579994-2.8824005-.7729988zm5.3226585-1.8149757c.6627121-.3348465 1.2475777-.7804832 1.7545929-1.3369026v-5.1509933c-.5070152-.5554199-1.0918808-1.0015526-1.7545929-1.3369026-.6617126-.3348503-1.369339-.5025215-2.1208801-.5025215-1.2106476 0-2.1837578.3842506-2.9193268 1.1527596-.7355728.7690048-1.1038589 1.8558922-1.1038589 3.2621613 0 1.4067688.3682861 2.4941559 1.1038589 3.2621651.735569.7690048 1.7086792 1.1532593 2.9193268 1.1532593.7515411-.0000003 1.4591675-.1676753 2.1208801-.5030253z"/><path d="m44.8596344 42.0331459c-.2784576-.1966209-.4171906-.466095-.4171906-.8094292 0-.2614899.0898285-.4905472.2694778-.6871643.1796494-.1961212.4092064-.2939301.6866646-.2939301.1477165 0 .2944298.0329361.4421425.0978088.5229836.2290573 1.0459671.4092064 1.5699501.5399513.5229836.1307487 1.1118393.1961212 1.7655716.1961212 1.8154716 0 2.7227097-.5803719 2.7227097-1.7416191 0-.3757668-.2085953-.6622124-.6257858-.8583298-.4161911-.1966209-1.0998611-.4171906-2.0480194-.6622162-.965126-.2290535-1.7615776-.466095-2.3913536-.7116165-.6297798-.2450218-1.1697273-.6168022-1.6188583-1.1158333-.4501228-.4985313-.6746864-1.1567497-.6746864-1.9746628 0-1.1442757.4131966-2.0764656 1.2385941-2.7960682.8253937-.7196026 2.0070992-1.0794029 3.5451126-1.0794029 1.2585526 0 2.444252.2046032 3.5560913.613308.2285576.0653744.4052124.1881351.5269775.3677864.1227608.1801491.184639.3677845.184639.5644035 0 .2614918-.0948143.4905453-.2824516.6866665-.1876335.1961174-.4211807.294426-.6986427.294426-.0818405 0-.188633-.016468-.3193779-.0494041-.9481583-.294426-1.8803482-.441143-2.7955704-.441143-.8832817 0-1.5749397.1591911-2.0729713.4780731-.4990311.318882-.7485466.7320786-.7485466 1.2385941 0 .4905472.2295532.8503456.6866646 1.0794029.4581108.2290535 1.1697273.4501266 2.1348534.6622124.9641266.2455254 1.7496033.486557 2.3544273.7235947.6048241.2370415 1.1238174.6093178 1.5569763 1.1158333.4331589.5070152.6507339 1.1861954.6507339 2.0360451 0 1.0464668-.4131966 1.9132805-1.2385941 2.5999489-.8263931.6866646-1.9911308 1.0304985-3.4952087 1.0304985-1.6358224-.0000001-3.123932-.3682862-4.4643289-1.1038552z"/></g><g><g><path d="m34.0039024 60.7050781c-7.1191406.0004883-13.8413086-2.8010254-18.9277344-7.8881836-5.0859375-5.0864258-7.8867188-11.8076172-7.8867188-18.925293 0-14.6638184 12.0297852-26.5939941 26.815918-26.5944824 7.1308594-.0004883 13.8510742 2.7590332 18.9228516 7.7702637 5.0893555 5.0283203 7.8920898 11.7126465 7.8920898 18.8215332-.0004882 14.7856445-12.0302734 26.8154297-26.8164062 26.8161621zm.0014649-51.0080566c-13.4628906.0004883-24.4155274 10.854248-24.4155274 24.1945801-.0004883 6.4768066 2.5507813 12.5952148 7.1835938 17.2282715 4.6328125 4.6337891 10.7524414 7.1855469 17.2304688 7.1853027 13.4628906-.0007324 24.4155273-10.9538574 24.4160156-24.4162598.0004883-6.4624023-2.5488281-12.5402832-7.1782227-17.1142578-4.6196289-4.5644531-10.7412109-7.0778809-17.2363281-7.0776367z" fill="#e9e9ff"/></g><g><path d="m32.805 8.497h2.4v51.008h-2.4z" fill="#e9e9ff" transform="matrix(.707 -.707 .707 .707 -14.082 34.004)"/></g></g></g><g fill="#fff" opacity=".1"><path d="m48.9799767 62.1052246c-4.4799805 2.3999023-9.579834 3.7597656-14.9799805 3.7597656-2.8098145 0-5.5397949-.3701172-8.1398926-1.0600586l-17-50.5400391c4.8898926-6.1396484 11.9899902-10.4399413 20.0800781-11.7197265z"/><path d="m59.1101036 53.6052246c-1.5 1.8999023-3.1999512 3.6298828-5.079834 5.1396484l-19.0502929-56.5898437c2.4702148.0698242 4.8701172.4199219 7.1801758 1.0297852z"/></g></g></svg>