<svg id="Layer_1" height="512" viewBox="0 0 512 512" width="512" xmlns="http://www.w3.org/2000/svg" data-name="Layer 1"><circle cx="256" cy="439.389" fill="#6d92ac" r="63.5"/><path d="m41.347 437.12h429.303l-10.65-12.231-54-55-23.725-78.141-.275-101.859-18-76-75-48-82 5-52 33-32 66 2.132 81.615-7.132 83.385-31 57z" fill="#ff5d7d"/><path d="m474.5 417.476-.822-.469a154.576 154.576 0 0 1 -77.857-134.007v-89.139c0-73.287-55.907-133.762-127.313-141.016v-40.336a12.509 12.509 0 1 0 -25.018 0v40c-73.235 5.432-131.162 66.753-131.162 141.351v91.372a154.994 154.994 0 0 1 -75.171 132.443 19.586 19.586 0 0 0 10.042 36.4h139.825a70.029 70.029 0 0 0 137.95 0h139.826a19.586 19.586 0 0 0 9.7-36.6zm-218.5 69.506a45.109 45.109 0 0 1 -43.372-32.906h86.742a45.107 45.107 0 0 1 -43.37 32.906zm69.942-57.923h-260.856a179.658 179.658 0 0 0 48.9-55.334 179.614 179.614 0 0 0 23.362-88.492v-91.372a116.729 116.729 0 0 1 233.457 0v89.139a179.719 179.719 0 0 0 75.331 146.061z"/><path d="m445.633 203.805a190.088 190.088 0 0 1 -6.879 50.762 12.509 12.509 0 1 0 24.109 6.68 214.925 214.925 0 0 0 -45.218-198.661 12.508 12.508 0 1 0 -18.833 16.466 189.476 189.476 0 0 1 46.821 124.753z"/><path d="m61.183 270.419a12.518 12.518 0 0 0 12.061-15.852 189.908 189.908 0 0 1 39.942-175.515 12.508 12.508 0 1 0 -18.833-16.466 214.916 214.916 0 0 0 -45.218 198.661 12.514 12.514 0 0 0 12.048 9.172z"/></svg>