<svg height="512" viewBox="0 0 480 478.476" width="512" xmlns="http://www.w3.org/2000/svg" xmlns:xlink="http://www.w3.org/1999/xlink"><linearGradient id="linear-gradient" gradientUnits="userSpaceOnUse" x1="240" x2="240" y1="478.472" y2="33.472"><stop offset="0" stop-color="#e6e6e6"/><stop offset=".333" stop-color="#fff"/></linearGradient><linearGradient id="linear-gradient-2" gradientUnits="userSpaceOnUse" x1="240" x2="240" y1="133.472" y2="33.472"><stop offset="0" stop-color="#cc3536"/><stop offset=".5" stop-color="#ff4244"/><stop offset="1" stop-color="#ff9494"/></linearGradient><linearGradient id="linear-gradient-3" x1="375.099" x2="375.099" xlink:href="#linear-gradient" y1="96.28" y2="51.28"/><linearGradient id="linear-gradient-4" gradientUnits="userSpaceOnUse" x1="360.099" x2="390.099" y1="45" y2="45"><stop offset="0" stop-color="#222c30"/><stop offset=".044" stop-color="#283338"/><stop offset=".222" stop-color="#3a4c53"/><stop offset=".38" stop-color="#465b63"/><stop offset=".5" stop-color="#4a6069"/><stop offset=".62" stop-color="#465b63"/><stop offset=".778" stop-color="#3a4c53"/><stop offset=".956" stop-color="#283338"/><stop offset="1" stop-color="#222c30"/></linearGradient><linearGradient id="linear-gradient-5" x1="285.033" x2="285.033" xlink:href="#linear-gradient" y1="96.28" y2="51.28"/><linearGradient id="linear-gradient-6" x1="270.033" x2="300.033" xlink:href="#linear-gradient-4" y1="45" y2="45"/><linearGradient id="linear-gradient-7" x1="194.967" x2="194.967" xlink:href="#linear-gradient" y1="96.28" y2="51.28"/><linearGradient id="linear-gradient-8" x1="179.967" x2="209.967" xlink:href="#linear-gradient-4" y1="45" y2="45"/><linearGradient id="linear-gradient-9" x1="104.901" x2="104.901" xlink:href="#linear-gradient" y1="96.28" y2="51.28"/><linearGradient id="linear-gradient-10" x1="89.901" x2="119.901" xlink:href="#linear-gradient-4" y1="45" y2="45"/><linearGradient id="linear-gradient-11" gradientUnits="userSpaceOnUse" x1="199.305" x2="224.3" y1="352.351" y2="377.346"><stop offset="0" stop-color="#3b4c53" stop-opacity=".35"/><stop offset="1" stop-color="#3b4c53" stop-opacity="0"/></linearGradient><linearGradient id="linear-gradient-12" x1="185.205" x2="298.901" xlink:href="#linear-gradient-11" y1="226.061" y2="339.757"/><linearGradient id="linear-gradient-13" x1="228.727" x2="431.291" xlink:href="#linear-gradient-11" y1="295.329" y2="497.892"/><linearGradient id="linear-gradient-14" xlink:href="#linear-gradient-2" y1="417.706" y2="194.239"/><g id="Layer_2" data-name="Layer 2"><g id="Style04"><g id="_3" data-name="3"><g id="Calendar"><g id="Paper"><rect fill="url(#linear-gradient)" height="445" rx="50" width="480" y="33.472"/><path d="m50 33.472h380a50 50 0 0 1 50 50v50a0 0 0 0 1 0 0h-480a0 0 0 0 1 0 0v-50a50 50 0 0 1 50-50z" fill="url(#linear-gradient-2)"/></g><g id="Holder"><circle cx="375.099" cy="73.78" fill="url(#linear-gradient-3)" r="22.5"/><rect fill="url(#linear-gradient-4)" height="90" rx="15" width="30" x="360.099"/><circle cx="285.033" cy="73.78" fill="url(#linear-gradient-5)" r="22.5"/><rect fill="url(#linear-gradient-6)" height="90" rx="15" width="30" x="270.033"/><circle cx="194.967" cy="73.78" fill="url(#linear-gradient-7)" r="22.5"/><rect fill="url(#linear-gradient-8)" height="90" rx="15" width="30" x="179.967"/><circle cx="104.901" cy="73.78" fill="url(#linear-gradient-9)" r="22.5"/><rect fill="url(#linear-gradient-10)" height="90" rx="15" width="30" x="89.901"/></g></g><g id="Shadow"><path d="m201.15 350.506 25 24.99c-14.48-3.79-22.04-13.04-25-24.99z" fill="url(#linear-gradient-11)"/><path d="m267.49 370.716-113.47-113.47h51.45c2.41-11.34 10.54-23.51 33.06-23.51 22.28 0 30.85 10.79 30.85 24.47 0 15.07-8.75 21.7-34.14 21.7h-13.23v40.18h18.01c25.39 0 37.87 9.22 37.87 28.33 0 10.05-3.76 17.49-10.4 22.3z" fill="url(#linear-gradient-12)"/><path d="m480 389.456v39.02a50.005 50.005 0 0 1 -50 50h-175.27l-83.05-83.05c14.64 13.55 36.7 22.28 67.89 22.28 60.96 0 91.4-29.14 91.4-67.56 0-34.27-23.17-46.92-38.12-52.1v-.64c9.41-3.27 29.61-14.02 29.61-42.34 0-14.57-5.02-27.87-15.16-38.31z" fill="url(#linear-gradient-13)"/></g><g id="_3-2" data-name="3"><path d="m154.022 257.245c3.841-26.78 25.256-63.006 86.241-63.006 55.183 0 82.2 27.058 82.2 60.828 0 28.314-20.2 39.066-29.605 42.343v.639c14.95 5.173 38.116 17.831 38.116 52.1 0 38.426-30.438 67.561-91.4 67.561-59 0-85.343-31.246-90.54-67.2h52.122c3.9 15.817 15.88 26.9 41.273 26.9 21.539 0 35.461-9.649 35.461-28.984 0-19.108-12.477-28.333-37.867-28.333h-18.014v-40.185h13.235c25.39 0 34.131-6.627 34.131-21.7 0-13.682-8.56-24.469-30.841-24.469-22.524 0-30.65 12.171-33.068 23.509z" fill="url(#linear-gradient-14)"/></g></g></g></g></svg>