<svg height="512" viewBox="0 0 480 478.476" width="512" xmlns="http://www.w3.org/2000/svg" xmlns:xlink="http://www.w3.org/1999/xlink"><linearGradient id="linear-gradient" gradientUnits="userSpaceOnUse" x1="240" x2="240" y1="478.472" y2="33.472"><stop offset="0" stop-color="#e6e6e6"/><stop offset=".333" stop-color="#fff"/></linearGradient><linearGradient id="linear-gradient-2" gradientUnits="userSpaceOnUse" x1="240" x2="240" y1="133.472" y2="33.472"><stop offset="0" stop-color="#cc3536"/><stop offset=".5" stop-color="#ff4244"/><stop offset="1" stop-color="#ff9494"/></linearGradient><linearGradient id="linear-gradient-3" x1="375.099" x2="375.099" xlink:href="#linear-gradient" y1="96.28" y2="51.28"/><linearGradient id="linear-gradient-4" gradientUnits="userSpaceOnUse" x1="360.099" x2="390.099" y1="45" y2="45"><stop offset="0" stop-color="#222c30"/><stop offset=".044" stop-color="#283338"/><stop offset=".222" stop-color="#3a4c53"/><stop offset=".38" stop-color="#465b63"/><stop offset=".5" stop-color="#4a6069"/><stop offset=".62" stop-color="#465b63"/><stop offset=".778" stop-color="#3a4c53"/><stop offset=".956" stop-color="#283338"/><stop offset="1" stop-color="#222c30"/></linearGradient><linearGradient id="linear-gradient-5" x1="285.033" x2="285.033" xlink:href="#linear-gradient" y1="96.28" y2="51.28"/><linearGradient id="linear-gradient-6" x1="270.033" x2="300.033" xlink:href="#linear-gradient-4" y1="45" y2="45"/><linearGradient id="linear-gradient-7" x1="194.967" x2="194.967" xlink:href="#linear-gradient" y1="96.28" y2="51.28"/><linearGradient id="linear-gradient-8" x1="179.967" x2="209.967" xlink:href="#linear-gradient-4" y1="45" y2="45"/><linearGradient id="linear-gradient-9" x1="104.901" x2="104.901" xlink:href="#linear-gradient" y1="96.28" y2="51.28"/><linearGradient id="linear-gradient-10" x1="89.901" x2="119.901" xlink:href="#linear-gradient-4" y1="45" y2="45"/><linearGradient id="linear-gradient-11" gradientUnits="userSpaceOnUse" x1="185.576" x2="246.427" y1="235.95" y2="296.801"><stop offset="0" stop-color="#3b4c53" stop-opacity=".35"/><stop offset="1" stop-color="#3b4c53" stop-opacity="0"/></linearGradient><linearGradient id="linear-gradient-12" x1="216.435" x2="419.294" xlink:href="#linear-gradient-11" y1="307.031" y2="509.89"/><linearGradient id="linear-gradient-13" xlink:href="#linear-gradient-2" y1="415.466" y2="196.479"/><g id="Layer_2" data-name="Layer 2"><g id="Style04"><g id="_2" data-name="2"><g id="Calendar"><g id="Paper"><rect fill="url(#linear-gradient)" height="445" rx="50" width="480" y="33.472"/><path d="m50 33.472h380a50 50 0 0 1 50 50v50a0 0 0 0 1 0 0h-480a0 0 0 0 1 0 0v-50a50 50 0 0 1 50-50z" fill="url(#linear-gradient-2)"/></g><g id="Holder"><circle cx="375.099" cy="73.78" fill="url(#linear-gradient-3)" r="22.5"/><rect fill="url(#linear-gradient-4)" height="90" rx="15" width="30" x="360.099"/><circle cx="285.033" cy="73.78" fill="url(#linear-gradient-5)" r="22.5"/><rect fill="url(#linear-gradient-6)" height="90" rx="15" width="30" x="270.033"/><circle cx="194.967" cy="73.78" fill="url(#linear-gradient-7)" r="22.5"/><rect fill="url(#linear-gradient-8)" height="90" rx="15" width="30" x="179.967"/><circle cx="104.901" cy="73.78" fill="url(#linear-gradient-9)" r="22.5"/><rect fill="url(#linear-gradient-10)" height="90" rx="15" width="30" x="89.901"/></g></g><g id="Shadow"><path d="m203.79 321.7-51.98-51.98h50.35c2.99-19.15 11.43-33.18 34.67-33.18 23.92 0 31.6 12.17 31.6 26.74 0 16.98-9.35 22.92-44.58 44.86-7.33 4.586-14 9.086-20.06 13.56z" fill="url(#linear-gradient-11)"/><path d="m480 396.626v31.85a50.005 50.005 0 0 1 -50 50h-216.09l-63.01-63.01h171.86l6.34-40.94h-114.9c6.29-11.69 23.11-23.7 48.53-38.46 44.24-25.61 57.58-41.08 57.58-73.11 0-16.82-5.99-31.59-16.89-42.91z" fill="url(#linear-gradient-12)"/></g><g id="_2-2" data-name="2"><path d="m150.9 415.466v-2.125c0-40.759 17.789-70.7 72.948-105.209 35.236-21.938 44.58-27.876 44.58-44.859 0-14.564-7.678-26.733-31.6-26.733-23.244 0-31.687 14.028-34.668 33.172h-50.352c3.2-43.267 35.228-73.233 86.752-73.233 50.126 0 81.746 27.827 81.746 66.474 0 32.037-13.333 47.5-57.574 73.115-25.417 14.756-42.246 26.772-48.531 38.453h114.899l-6.337 40.945z" fill="url(#linear-gradient-13)"/></g></g></g></g></svg>