<svg height="512" viewBox="0 0 480 478.476" width="512" xmlns="http://www.w3.org/2000/svg" xmlns:xlink="http://www.w3.org/1999/xlink"><linearGradient id="linear-gradient" gradientUnits="userSpaceOnUse" x1="240" x2="240" y1="478.472" y2="33.472"><stop offset="0" stop-color="#e6e6e6"/><stop offset=".333" stop-color="#fff"/></linearGradient><linearGradient id="linear-gradient-2" gradientUnits="userSpaceOnUse" x1="240" x2="240" y1="133.472" y2="33.472"><stop offset="0" stop-color="#cc3536"/><stop offset=".5" stop-color="#ff4244"/><stop offset="1" stop-color="#ff9494"/></linearGradient><linearGradient id="linear-gradient-3" x1="375.099" x2="375.099" xlink:href="#linear-gradient" y1="96.28" y2="51.28"/><linearGradient id="linear-gradient-4" gradientUnits="userSpaceOnUse" x1="360.099" x2="390.099" y1="45" y2="45"><stop offset="0" stop-color="#222c30"/><stop offset=".044" stop-color="#283338"/><stop offset=".222" stop-color="#3a4c53"/><stop offset=".38" stop-color="#465b63"/><stop offset=".5" stop-color="#4a6069"/><stop offset=".62" stop-color="#465b63"/><stop offset=".778" stop-color="#3a4c53"/><stop offset=".956" stop-color="#283338"/><stop offset="1" stop-color="#222c30"/></linearGradient><linearGradient id="linear-gradient-5" x1="285.033" x2="285.033" xlink:href="#linear-gradient" y1="96.28" y2="51.28"/><linearGradient id="linear-gradient-6" x1="270.033" x2="300.033" xlink:href="#linear-gradient-4" y1="45" y2="45"/><linearGradient id="linear-gradient-7" x1="194.967" x2="194.967" xlink:href="#linear-gradient" y1="96.28" y2="51.28"/><linearGradient id="linear-gradient-8" x1="179.967" x2="209.967" xlink:href="#linear-gradient-4" y1="45" y2="45"/><linearGradient id="linear-gradient-9" x1="104.901" x2="104.901" xlink:href="#linear-gradient" y1="96.28" y2="51.28"/><linearGradient id="linear-gradient-10" x1="89.901" x2="119.901" xlink:href="#linear-gradient-4" y1="45" y2="45"/><linearGradient id="linear-gradient-11" gradientUnits="userSpaceOnUse" x1="184.635" x2="252.975" y1="211.171" y2="279.511"><stop offset="0" stop-color="#3b4c53" stop-opacity=".35"/><stop offset="1" stop-color="#3b4c53" stop-opacity="0"/></linearGradient><linearGradient id="linear-gradient-12" x1="235.97" x2="439.239" xlink:href="#linear-gradient-11" y1="286.676" y2="489.945"/><linearGradient id="linear-gradient-13" xlink:href="#linear-gradient-2" y1="413.225" y2="198.719"/><g id="Layer_2" data-name="Layer 2"><g id="Style04"><g id="_7" data-name="7"><g id="Calendar"><g id="Paper"><rect fill="url(#linear-gradient)" height="445" rx="50" width="480" y="33.472"/><path d="m50 33.472h380a50 50 0 0 1 50 50v50a0 0 0 0 1 0 0h-480a0 0 0 0 1 0 0v-50a50 50 0 0 1 50-50z" fill="url(#linear-gradient-2)"/></g><g id="Holder"><circle cx="375.099" cy="73.78" fill="url(#linear-gradient-3)" r="22.5"/><rect fill="url(#linear-gradient-4)" height="90" rx="15" width="30" x="360.099"/><circle cx="285.033" cy="73.78" fill="url(#linear-gradient-5)" r="22.5"/><rect fill="url(#linear-gradient-6)" height="90" rx="15" width="30" x="270.033"/><circle cx="194.967" cy="73.78" fill="url(#linear-gradient-7)" r="22.5"/><rect fill="url(#linear-gradient-8)" height="90" rx="15" width="30" x="179.967"/><circle cx="104.901" cy="73.78" fill="url(#linear-gradient-9)" r="22.5"/><rect fill="url(#linear-gradient-10)" height="90" rx="15" width="30" x="89.901"/></g></g><g id="Shadow"><path d="m224.41 308.076-68.34-68.34h114.26c-14.76 16.29-31.27 40.48-45.92 68.34z" fill="url(#linear-gradient-11)"/><path d="m480 354.786v73.69a50.005 50.005 0 0 1 -50 50h-178.15l-65.25-65.25h56.99c14.64-67.25 44.95-129.06 80.34-174.8v-39.71z" fill="url(#linear-gradient-12)"/></g><g id="_7-2" data-name="7"><path d="m323.928 198.719v39.7c-35.39 45.745-65.7 107.55-80.341 174.8h-56.987c11.84-66.345 51.879-138.317 83.735-173.485h-114.263v-41.015z" fill="url(#linear-gradient-13)"/></g></g></g></g></svg>