<svg height="512" viewBox="0 0 480 478.476" width="512" xmlns="http://www.w3.org/2000/svg" xmlns:xlink="http://www.w3.org/1999/xlink"><linearGradient id="linear-gradient" gradientUnits="userSpaceOnUse" x1="240" x2="240" y1="478.472" y2="33.472"><stop offset="0" stop-color="#e6e6e6"/><stop offset=".333" stop-color="#fff"/></linearGradient><linearGradient id="linear-gradient-2" gradientUnits="userSpaceOnUse" x1="240" x2="240" y1="133.472" y2="33.472"><stop offset="0" stop-color="#cc3536"/><stop offset=".5" stop-color="#ff4244"/><stop offset="1" stop-color="#ff9494"/></linearGradient><linearGradient id="linear-gradient-3" x1="375.099" x2="375.099" xlink:href="#linear-gradient" y1="96.28" y2="51.28"/><linearGradient id="linear-gradient-4" gradientUnits="userSpaceOnUse" x1="360.099" x2="390.099" y1="45" y2="45"><stop offset="0" stop-color="#222c30"/><stop offset=".044" stop-color="#283338"/><stop offset=".222" stop-color="#3a4c53"/><stop offset=".38" stop-color="#465b63"/><stop offset=".5" stop-color="#4a6069"/><stop offset=".62" stop-color="#465b63"/><stop offset=".778" stop-color="#3a4c53"/><stop offset=".956" stop-color="#283338"/><stop offset="1" stop-color="#222c30"/></linearGradient><linearGradient id="linear-gradient-5" x1="285.033" x2="285.033" xlink:href="#linear-gradient" y1="96.28" y2="51.28"/><linearGradient id="linear-gradient-6" x1="270.033" x2="300.033" xlink:href="#linear-gradient-4" y1="45" y2="45"/><linearGradient id="linear-gradient-7" x1="194.967" x2="194.967" xlink:href="#linear-gradient" y1="96.28" y2="51.28"/><linearGradient id="linear-gradient-8" x1="179.967" x2="209.967" xlink:href="#linear-gradient-4" y1="45" y2="45"/><linearGradient id="linear-gradient-9" x1="104.901" x2="104.901" xlink:href="#linear-gradient" y1="96.28" y2="51.28"/><linearGradient id="linear-gradient-10" x1="89.901" x2="119.901" xlink:href="#linear-gradient-4" y1="45" y2="45"/><linearGradient id="linear-gradient-11" gradientUnits="userSpaceOnUse" x1="184.35" x2="264.535" y1="289.876" y2="370.061"><stop offset="0" stop-color="#3b4c53" stop-opacity=".35"/><stop offset="1" stop-color="#3b4c53" stop-opacity="0"/></linearGradient><linearGradient id="linear-gradient-12" x1="202.197" x2="440.756" xlink:href="#linear-gradient-11" y1="249.869" y2="488.427"/><linearGradient id="linear-gradient-13" xlink:href="#linear-gradient-2" y1="415.466" y2="196.479"/><g id="Layer_2" data-name="Layer 2"><g id="Style04"><g id="_5" data-name="5"><g id="Calendar"><g id="Paper"><rect fill="url(#linear-gradient)" height="445" rx="50" width="480" y="33.472"/><path d="m50 33.472h380a50 50 0 0 1 50 50v50a0 0 0 0 1 0 0h-480a0 0 0 0 1 0 0v-50a50 50 0 0 1 50-50z" fill="url(#linear-gradient-2)"/></g><g id="Holder"><circle cx="375.099" cy="73.78" fill="url(#linear-gradient-3)" r="22.5"/><rect fill="url(#linear-gradient-4)" height="90" rx="15" width="30" x="360.099"/><circle cx="285.033" cy="73.78" fill="url(#linear-gradient-5)" r="22.5"/><rect fill="url(#linear-gradient-6)" height="90" rx="15" width="30" x="270.033"/><circle cx="194.967" cy="73.78" fill="url(#linear-gradient-7)" r="22.5"/><rect fill="url(#linear-gradient-8)" height="90" rx="15" width="30" x="179.967"/><circle cx="104.901" cy="73.78" fill="url(#linear-gradient-9)" r="22.5"/><rect fill="url(#linear-gradient-10)" height="90" rx="15" width="30" x="89.901"/></g></g><g id="Shadow"><path d="m182.38 349.416-28.78-28.79 45.3 4.97c5.69-11.35 14.85-22.41 40.52-22.41 27.78 0 39.38 15.63 39.38 35.96 0 23.34-14.36 35.98-37.87 35.98-22.63 0-35.47-9.61-40.12-25.71z" fill="url(#linear-gradient-11)"/><path d="m480 354.736v73.74a50.005 50.005 0 0 1 -50 50h-172.13l-86.04-86.05c15.24 14.24 37.93 23.04 67.41 23.04 59.59 0 90.87-31.76 90.87-79.25 0-45.09-32.42-71.96-75.57-71.96-24.09 0-37.07 5.41-45.9 11.99 1.71-10.17 4.17-26.97 5.96-38.78h101.48l5.66-40.99z" fill="url(#linear-gradient-12)"/></g><g id="_5-2" data-name="5"><path d="m316.081 237.461h-101.481c-1.792 11.811-4.248 28.61-5.963 38.785 8.831-6.578 21.81-11.991 45.9-11.991 43.149 0 75.574 26.867 75.574 71.964 0 47.489-31.285 79.247-90.874 79.247-53.135 0-84.23-28.6-89.35-66.053h50.918c4.659 16.1 17.495 25.71 40.122 25.71 23.509 0 37.868-12.642 37.868-35.973 0-20.338-11.6-35.961-39.38-35.961-25.661 0-34.824 11.058-40.518 22.409l-45.3-4.967c5.837-30 16.6-96 19.726-124.152h148.416z" fill="url(#linear-gradient-13)"/></g></g></g></g></svg>