<svg height="512" viewBox="0 0 480 478.476" width="512" xmlns="http://www.w3.org/2000/svg" xmlns:xlink="http://www.w3.org/1999/xlink"><linearGradient id="linear-gradient" gradientUnits="userSpaceOnUse" x1="240" x2="240" y1="478.472" y2="33.472"><stop offset="0" stop-color="#e6e6e6"/><stop offset=".333" stop-color="#fff"/></linearGradient><linearGradient id="linear-gradient-2" gradientUnits="userSpaceOnUse" x1="240" x2="240" y1="133.472" y2="33.472"><stop offset="0" stop-color="#cc3536"/><stop offset=".5" stop-color="#ff4244"/><stop offset="1" stop-color="#ff9494"/></linearGradient><linearGradient id="linear-gradient-3" x1="375.099" x2="375.099" xlink:href="#linear-gradient" y1="96.28" y2="51.28"/><linearGradient id="linear-gradient-4" gradientUnits="userSpaceOnUse" x1="360.099" x2="390.099" y1="45" y2="45"><stop offset="0" stop-color="#222c30"/><stop offset=".044" stop-color="#283338"/><stop offset=".222" stop-color="#3a4c53"/><stop offset=".38" stop-color="#465b63"/><stop offset=".5" stop-color="#4a6069"/><stop offset=".62" stop-color="#465b63"/><stop offset=".778" stop-color="#3a4c53"/><stop offset=".956" stop-color="#283338"/><stop offset="1" stop-color="#222c30"/></linearGradient><linearGradient id="linear-gradient-5" x1="285.033" x2="285.033" xlink:href="#linear-gradient" y1="96.28" y2="51.28"/><linearGradient id="linear-gradient-6" x1="270.033" x2="300.033" xlink:href="#linear-gradient-4" y1="45" y2="45"/><linearGradient id="linear-gradient-7" x1="194.967" x2="194.967" xlink:href="#linear-gradient" y1="96.28" y2="51.28"/><linearGradient id="linear-gradient-8" x1="179.967" x2="209.967" xlink:href="#linear-gradient-4" y1="45" y2="45"/><linearGradient id="linear-gradient-9" x1="104.901" x2="104.901" xlink:href="#linear-gradient" y1="96.28" y2="51.28"/><linearGradient id="linear-gradient-10" x1="89.901" x2="119.901" xlink:href="#linear-gradient-4" y1="45" y2="45"/><linearGradient id="linear-gradient-11" gradientUnits="userSpaceOnUse" x1="214.763" x2="268.821" y1="313.542" y2="367.6"><stop offset="0" stop-color="#3b4c53" stop-opacity=".35"/><stop offset="1" stop-color="#3b4c53" stop-opacity="0"/></linearGradient><linearGradient id="linear-gradient-12" x1="197.627" x2="432.831" xlink:href="#linear-gradient-11" y1="261.148" y2="496.352"/><linearGradient id="linear-gradient-13" xlink:href="#linear-gradient-2" y1="417.686" y2="194.258"/><g id="Layer_2" data-name="Layer 2"><g id="Style04"><g id="_6" data-name="6"><g id="Calendar"><g id="Paper"><rect fill="url(#linear-gradient)" height="445" rx="50" width="480" y="33.472"/><path d="m50 33.472h380a50 50 0 0 1 50 50v50a0 0 0 0 1 0 0h-480a0 0 0 0 1 0 0v-50a50 50 0 0 1 50-50z" fill="url(#linear-gradient-2)"/></g><g id="Holder"><circle cx="375.099" cy="73.78" fill="url(#linear-gradient-3)" r="22.5"/><rect fill="url(#linear-gradient-4)" height="90" rx="15" width="30" x="360.099"/><circle cx="285.033" cy="73.78" fill="url(#linear-gradient-5)" r="22.5"/><rect fill="url(#linear-gradient-6)" height="90" rx="15" width="30" x="270.033"/><circle cx="194.967" cy="73.78" fill="url(#linear-gradient-7)" r="22.5"/><rect fill="url(#linear-gradient-8)" height="90" rx="15" width="30" x="179.967"/><circle cx="104.901" cy="73.78" fill="url(#linear-gradient-9)" r="22.5"/><rect fill="url(#linear-gradient-10)" height="90" rx="15" width="30" x="89.901"/></g></g><g id="Shadow"><path d="m241.78 377.136c-29.97 0-38.36-24.82-38.36-38.93 0-17.26 12.47-32.35 37.3-32.35 27.5 0 38.74 14.75 38.74 35.16 0 22.47-15.62 36.12-37.68 36.12z" fill="url(#linear-gradient-11)"/><path d="m480 390.036v38.44a50.005 50.005 0 0 1 -50 50h-168.52l-83.93-83.92c15.95 15.43 37.77 23.13 63.91 23.13 48.88 0 90.44-27.74 90.44-80.73 0-43.09-32.03-70.27-74.49-70.27-28.89 0-45.26 9.18-56.62 21.34 1.56-31.22 12.41-54.91 40.45-54.91 19.86 0 28.27 8.23 32.1 18.31h50.39a62.135 62.135 0 0 0 -16.96-34.61z" fill="url(#linear-gradient-12)"/></g><g id="_6-2" data-name="6"><path d="m273.337 251.427c-3.827-10.084-12.234-18.311-32.1-18.311-28.038 0-38.891 23.686-40.452 54.91 11.367-12.157 27.737-21.345 56.625-21.345 42.457 0 74.485 27.188 74.485 70.274 0 53-41.554 80.731-90.439 80.731-56.912 0-93.357-36.5-93.357-109.762 0-56.412 24.233-113.666 96.032-113.666 51.4 0 75.475 28.519 79.6 57.169zm6.118 89.586c0-20.412-11.236-35.154-38.74-35.154-24.827 0-37.29 15.087-37.29 32.351 0 14.105 8.382 38.929 38.354 38.929 22.062 0 37.676-13.654 37.676-36.126z" fill="url(#linear-gradient-13)"/></g></g></g></g></svg>