<svg height="512" viewBox="0 0 480 478.476" width="512" xmlns="http://www.w3.org/2000/svg" xmlns:xlink="http://www.w3.org/1999/xlink"><linearGradient id="linear-gradient" gradientUnits="userSpaceOnUse" x1="240" x2="240" y1="478.472" y2="33.472"><stop offset="0" stop-color="#e6e6e6"/><stop offset=".333" stop-color="#fff"/></linearGradient><linearGradient id="linear-gradient-2" gradientUnits="userSpaceOnUse" x1="240" x2="240" y1="133.472" y2="33.472"><stop offset="0" stop-color="#cc3536"/><stop offset=".5" stop-color="#ff4244"/><stop offset="1" stop-color="#ff9494"/></linearGradient><linearGradient id="linear-gradient-3" x1="375.099" x2="375.099" xlink:href="#linear-gradient" y1="96.28" y2="51.28"/><linearGradient id="linear-gradient-4" gradientUnits="userSpaceOnUse" x1="360.099" x2="390.099" y1="45" y2="45"><stop offset="0" stop-color="#222c30"/><stop offset=".044" stop-color="#283338"/><stop offset=".222" stop-color="#3a4c53"/><stop offset=".38" stop-color="#465b63"/><stop offset=".5" stop-color="#4a6069"/><stop offset=".62" stop-color="#465b63"/><stop offset=".778" stop-color="#3a4c53"/><stop offset=".956" stop-color="#283338"/><stop offset="1" stop-color="#222c30"/></linearGradient><linearGradient id="linear-gradient-5" x1="285.033" x2="285.033" xlink:href="#linear-gradient" y1="96.28" y2="51.28"/><linearGradient id="linear-gradient-6" x1="270.033" x2="300.033" xlink:href="#linear-gradient-4" y1="45" y2="45"/><linearGradient id="linear-gradient-7" x1="194.967" x2="194.967" xlink:href="#linear-gradient" y1="96.28" y2="51.28"/><linearGradient id="linear-gradient-8" x1="179.967" x2="209.967" xlink:href="#linear-gradient-4" y1="45" y2="45"/><linearGradient id="linear-gradient-9" x1="104.901" x2="104.901" xlink:href="#linear-gradient" y1="96.28" y2="51.28"/><linearGradient id="linear-gradient-10" x1="89.901" x2="119.901" xlink:href="#linear-gradient-4" y1="45" y2="45"/><linearGradient id="linear-gradient-11" gradientUnits="userSpaceOnUse" x1="221.452" x2="261.057" y1="279.824" y2="319.429"><stop offset="0" stop-color="#3b4c53" stop-opacity=".35"/><stop offset="1" stop-color="#3b4c53" stop-opacity="0"/></linearGradient><linearGradient id="linear-gradient-12" x1="222.655" x2="435.834" xlink:href="#linear-gradient-11" y1="280.171" y2="493.35"/><linearGradient id="linear-gradient-13" xlink:href="#linear-gradient-2" y1="413.225" y2="198.719"/><g id="Layer_2" data-name="Layer 2"><g id="Style04"><g id="_4" data-name="4"><g id="Calendar"><g id="Paper"><rect fill="url(#linear-gradient)" height="445" rx="50" width="480" y="33.472"/><path d="m50 33.472h380a50 50 0 0 1 50 50v50a0 0 0 0 1 0 0h-480a0 0 0 0 1 0 0v-50a50 50 0 0 1 50-50z" fill="url(#linear-gradient-2)"/></g><g id="Holder"><circle cx="375.099" cy="73.78" fill="url(#linear-gradient-3)" r="22.5"/><rect fill="url(#linear-gradient-4)" height="90" rx="15" width="30" x="360.099"/><circle cx="285.033" cy="73.78" fill="url(#linear-gradient-5)" r="22.5"/><rect fill="url(#linear-gradient-6)" height="90" rx="15" width="30" x="270.033"/><circle cx="194.967" cy="73.78" fill="url(#linear-gradient-7)" r="22.5"/><rect fill="url(#linear-gradient-8)" height="90" rx="15" width="30" x="179.967"/><circle cx="104.901" cy="73.78" fill="url(#linear-gradient-9)" r="22.5"/><rect fill="url(#linear-gradient-10)" height="90" rx="15" width="30" x="89.901"/></g></g><g id="Shadow"><path d="m255.48 325.006h-58.26c31.15-40.38 49.98-66.49 58.94-79.89-.4 11-.68 34.24-.68 46.4z" fill="url(#linear-gradient-11)"/><path d="m480 374.606v53.87a50.005 50.005 0 0 1 -50 50h-171.95l-111.93-111.93h109.36v46.68h48.63v-46.68h25.69l4.08-41.54h-29.77v-126.29z" fill="url(#linear-gradient-12)"/></g><g id="_4-2" data-name="4"><path d="m255.482 413.225v-46.677h-109.363v-42.673l98.71-125.156h59.28v126.281h29.772l-4.081 41.548h-25.691v46.677zm0-121.71c0-12.16.282-35.4.678-46.4-8.96 13.4-27.789 39.512-58.944 79.885h58.266z" fill="url(#linear-gradient-13)"/></g></g></g></g></svg>