<svg height="512" viewBox="0 0 512 512" width="512" xmlns="http://www.w3.org/2000/svg"><g id="_19.Play" data-name="19.Play"><rect fill="#74d1d1" height="490" rx="120.398" width="490" x="11" y="11"/><path d="m379.5633 302.1064-178.0322 102.7869c-35.4927 20.4918-79.8587-5.1229-79.8587-46.1064v-205.5738c0-40.9835 44.366-66.5982 79.8587-46.1064l178.0322 102.7869c35.4927 20.4917 35.4927 71.7211 0 92.2128z" fill="#f2f2f2"/><path d="m314.8 501h-183.4a120.3937 120.3937 0 0 1 -120.4-120.4v-249.2a119.9412 119.9412 0 0 1 32.04-81.78q-.045 3.18-.04 6.38c0 193.93 110.41 362.08 271.8 445z" fill="#6cbcba"/><path d="m189.85 409.94c-32.83 9.77-68.18-14.57-68.18-51.15v-33.46a501.1659 501.1659 0 0 0 68.18 84.61z" fill="#e4e3e8"/><path d="m380.6 507h-249.2a126.5437 126.5437 0 0 1 -126.4-126.4v-215.6a6 6 0 0 1 12 0v215.6a114.5293 114.5293 0 0 0 114.4 114.4h249.2a114.5293 114.5293 0 0 0 114.4-114.4v-249.2a114.53 114.53 0 0 0 -114.4-114.4h-249.2c-55.9947 0-104.6041 41.6616-113.0689 96.9087a6 6 0 1 1 -11.8611-1.8174 126.42 126.42 0 0 1 124.93-107.0913h249.2a126.5437 126.5437 0 0 1 126.4 126.4v249.2a126.5437 126.5437 0 0 1 -126.4 126.4z"/><path d="m11 150a6 6 0 0 1 -6-6v-10a6 6 0 0 1 12 0v10a6 6 0 0 1 -6 6z"/><path d="m174.9121 418.12a59.4633 59.4633 0 0 1 -59.2392-59.333v-205.5741a59.2388 59.2388 0 0 1 88.8584-51.3029l178.0322 102.7873a59.24 59.24 0 0 1 0 102.6054l-178.0322 102.7873a59.1122 59.1122 0 0 1 -29.6192 8.03zm-.001-312.2217a47.4177 47.4177 0 0 0 -47.2382 47.3145v205.5743a47.2388 47.2388 0 0 0 70.8584 40.91l178.0322-102.7871a47.2394 47.2394 0 0 0 0-81.82l-178.0322-102.7873a47.1369 47.1369 0 0 0 -23.6202-6.4043z"/></g></svg>