<svg id="Capa_2" enable-background="new 0 0 453.543 453.543" viewBox="0 0 453.543 453.543" xmlns="http://www.w3.org/2000/svg"><g><circle cx="226.77" cy="226.794" fill="#fcea10" r="222.602"/><ellipse cx="226.77" cy="226.794" fill="#f9b233" rx="163.427" ry="163.427" transform="matrix(.707 -.707 .707 .707 -93.949 226.777)"/><path d="m234.536 113.149 31.189 54.428c1.271 2.219 3.431 3.788 5.934 4.311l61.402 12.844c6.77 1.416 9.445 9.648 4.8 14.773l-42.126 46.482c-1.717 1.895-2.542 4.434-2.266 6.976l6.759 62.366c.745 6.876-6.257 11.964-12.567 9.13l-57.224-25.7c-2.332-1.048-5.002-1.048-7.335 0l-57.224 25.7c-6.31 2.834-13.312-2.254-12.567-9.13l6.759-62.366c.276-2.542-.549-5.081-2.266-6.976l-42.126-46.482c-4.645-5.125-1.97-13.357 4.8-14.773l61.401-12.844c2.503-.524 4.663-2.092 5.934-4.311l31.19-54.428c3.439-6.001 12.095-6.001 15.533 0z" fill="#fcea10"/><path d="m445.165 226.794c-.079 45.425-14.269 89.953-40.648 126.954-25.386 35.609-61.724 63.33-102.833 78.269-43.069 15.651-90.707 17.395-134.792 4.862-42.439-12.065-80.526-37.191-108.653-71.145-28.386-34.266-45.795-77.292-49.202-121.655-3.502-45.598 7.27-91.594 31.052-130.688 22.822-37.516 56.895-67.603 96.868-85.754 41.447-18.82 88.892-23.986 133.464-14.885 43.417 8.865 83.469 31.04 114.121 63.028 30.837 32.182 51.233 73.511 58.103 117.544 1.725 11.066 2.5 22.273 2.52 33.47.009 5.413 8.423 5.423 8.414 0-.082-46.794-14.606-93.061-41.797-131.201-26.6-37.312-64.129-66.077-107.158-81.878-44.573-16.369-94.311-18.1-139.969-5.119-43.969 12.5-83.79 38.579-112.835 73.876-29.63 36.008-47.626 80.529-51.198 127.037-3.607 46.972 7.711 94.677 32.2 134.934 23.646 38.872 59.053 70.397 100.566 89.079 43.477 19.566 92.55 24.966 139.269 15.427 44.855-9.158 86.483-32.367 118.087-65.457 31.723-33.214 53.058-75.947 60.072-121.371 1.805-11.694 2.742-23.494 2.762-35.327.01-5.414-8.404-5.422-8.413 0z"/><path d="m385.99 226.794c-.078 33.089-10.368 65.439-29.537 92.426-18.431 25.948-44.922 46.206-74.829 57.108-31.527 11.492-66.356 12.788-98.635 3.592-30.948-8.817-58.671-27.17-79.178-51.933-20.655-24.943-33.341-56.353-35.787-88.643-2.506-33.081 5.228-66.398 22.396-94.815 16.628-27.523 41.524-49.561 70.773-62.891 30.151-13.741 64.762-17.532 97.208-10.932 31.798 6.468 61.096 22.678 83.52 46.125 22.406 23.429 37.19 53.467 42.226 85.482 1.273 8.093 1.824 16.293 1.843 24.481.013 5.413 8.427 5.423 8.414 0-.082-34.58-10.782-68.793-30.899-96.973-19.711-27.61-47.437-48.851-79.293-60.546-32.938-12.092-69.731-13.33-103.459-3.72-32.476 9.253-61.935 28.557-83.358 54.664-21.818 26.588-35.067 59.335-37.754 93.637-2.718 34.703 5.636 70.006 23.706 99.765 17.383 28.627 43.411 51.92 73.938 65.749 32.142 14.56 68.379 18.662 102.98 11.702 33.257-6.69 64.171-23.861 87.606-48.365 23.519-24.593 39.367-56.286 44.508-89.953 1.312-8.598 2.005-17.261 2.026-25.959.012-5.415-8.402-5.423-8.415-.001z"/><path d="m230.904 115.272c5.754 10.041 11.509 20.083 17.263 30.125 3.597 6.276 7.193 12.552 10.79 18.828 2.889 5.042 5.327 10.141 11.585 11.72 11.19 2.823 22.689 4.746 33.985 7.109 7.08 1.481 14.161 2.962 21.241 4.443 3.448.721 9.466.873 10.163 5.255.563 3.542-3.924 6.957-6.017 9.267-4.987 5.503-9.974 11.005-14.961 16.508-5.203 5.741-10.406 11.482-15.608 17.223-2.65 2.924-5.835 5.796-8.014 9.117-3.073 4.682-1.866 9.944-1.309 15.089.794 7.322 1.587 14.643 2.381 21.965.84 7.748 1.68 15.495 2.519 23.243.279 2.575.558 5.15.838 7.724.134 1.236.446 2.694.306 3.937-.209 1.85-1.523 3.435-3.292 3.998-.91.29-1.67.219-2.581.081-2.013-.304.096.108-.619-.174-1.363-.538-2.688-1.207-4.025-1.808-6.262-2.812-12.524-5.624-18.785-8.437-11.348-5.097-22.653-10.308-34.051-15.293-4.036-1.765-7.86-1.758-11.88 0-1.369.599-2.726 1.225-4.09 1.837-6.262 2.812-12.523 5.624-18.785 8.437-7.337 3.295-14.674 6.59-22.011 9.885-3.993 1.793-7.955 3.831-12.04 5.407-.147.057-.405.11.152-.075-.884.293-1.702.479-2.632.309-2.069-.378-3.711-2.071-3.948-4.169-.145-1.279.181-2.786.319-4.057.658-6.074 1.316-12.149 1.975-18.223 1.464-13.506 3-27.006 4.392-40.52.536-5.201-1.689-9.143-5.032-12.832-4.13-4.557-8.259-9.114-12.39-13.671-9.123-10.066-18.285-20.099-27.37-30.2-3.18-3.535-1.585-7.7 2.982-8.691 5.046-1.095 10.11-2.115 15.164-3.172 14.2-2.97 28.4-5.941 42.6-8.911 4.957-1.037 8.985-2.859 11.715-7.517 2.568-4.384 5.053-8.818 7.579-13.226 7.211-12.584 14.422-25.167 21.633-37.751.526-.918 1.008-1.891 1.591-2.775 2.036-3.098 6.24-3.253 8.267-.005 2.86 4.584 10.142.365 7.265-4.247-5.546-8.89-17.878-8.382-23.087.504-2.644 4.509-5.199 9.072-7.798 13.607-7.294 12.729-14.588 25.458-21.883 38.186-.706 1.232-1.384 2.808-2.559 3.65-1.226.878-3.027 1.057-4.485 1.362-6.194 1.296-12.387 2.591-18.581 3.887-13.262 2.774-26.553 5.435-39.791 8.324-9.692 2.115-14.181 13.53-7.738 21.395 2.485 3.034 5.271 5.855 7.903 8.759 10.376 11.449 20.751 22.898 31.127 34.346 2.447 2.7 4.902 4.578 4.515 8.555-.504 5.182-1.122 10.356-1.683 15.532-1.581 14.585-3.161 29.17-4.742 43.756-.169 1.561-.395 3.084-.237 4.659.627 6.243 5.613 11.194 11.846 11.833 4.853.498 9.812-2.54 14.128-4.479 14.1-6.332 28.2-12.665 42.3-18.997 2.12-.952 4.241-1.905 6.361-2.857 1.692-.76 2.994-1.185 4.601-.631 4.063 1.403 8.006 3.596 11.922 5.355 13.853 6.222 27.707 12.443 41.56 18.665 1.211.544 2.417 1.101 3.633 1.632 5.055 2.204 10.731 1.671 14.862-2.194 4.874-4.559 4.117-10.292 3.483-16.132-1.653-15.251-3.305-30.502-4.958-45.752-.419-3.869-1.306-7.968-1.246-11.873.032-2.096 1.159-3.235 2.433-4.641 1.652-1.823 3.304-3.645 4.955-5.468 10.408-11.484 20.815-22.968 31.223-34.452 3.575-3.945 7.851-7.705 8.139-13.424.291-5.776-3.41-11.184-8.853-13.07-1.285-.445-2.652-.661-3.98-.939-14.443-3.021-28.886-6.042-43.33-9.064-4.973-1.04-9.966-2.012-14.924-3.122-3.759-.841-4.969-4.299-6.723-7.36-7.627-13.31-15.254-26.619-22.881-39.929-1.838-3.208-3.676-6.415-5.514-9.623-2.69-4.696-9.963-.463-7.263 4.247z"/><path d="m26.653 193.492c-2.59 40.874 1.975 83.036 19.053 120.612 16.449 36.195 45.608 65.574 79.436 85.941 18.813 11.327 39.358 19.981 60.732 25.079 5.264 1.255 7.509-6.856 2.237-8.113-36.89-8.798-71.36-28.262-98.32-54.894-13.516-13.351-25.015-28.588-33.602-45.559-8.908-17.604-14.64-36.7-18.027-56.101-3.853-22.069-4.509-44.637-3.094-66.966.342-5.406-8.074-5.385-8.415.001z"/><path d="m209.646 428.97c5.414 0 5.423-8.414 0-8.414-5.414.001-5.422 8.414 0 8.414z"/></g></svg>