<svg id="Layer_1" enable-background="new 0 0 64 64" viewBox="0 0 64 64" xmlns="http://www.w3.org/2000/svg"><g><path d="m60 16.11h-6.14c.11-.2.21-.42.3-.69.78-2.43-.35-7.23-2.37-10.06-.56-.78-1.46-1.3-2.48-1.42-.83-.09-1.67.1-2.37.54l-.92.59c-1.1-.98-5.12-4.4-8.21-5.01-1.46-.29-2.96.49-3.56 1.84-.9 2.03-1.63 4.36-2.25 7.19-.62-2.83-1.35-5.16-2.25-7.19-.6-1.35-2.1-2.13-3.56-1.84-3.09.61-7.11 4.03-8.21 5.01l-.92-.59c-.7-.44-1.54-.63-2.36-.54-1.03.12-1.93.64-2.49 1.42-2.02 2.83-3.14 7.63-2.37 10.06.09.27.19.49.31.69h-6.15c-.37 0-.67.3-.67.67v10.87c0 .37.3.68.67.68h.72v32.27c0 1.87 1.53 3.4 3.41 3.4h47.75c1.87 0 3.39-1.53 3.39-3.4v-32.27h.73c.37 0 .67-.31.67-.68v-10.87c0-.37-.3-.67-.67-.67zm-12.53-10.79c.51-.33 1.12-.47 1.72-.4.75.09 1.4.46 1.8 1.01 1.83 2.58 2.92 7.05 2.23 9.19-.17.52-.42.85-.76.99h-16.27l.07-.92 5.04-1.54c.26-.08.4-.36.32-.62s-.35-.41-.61-.32l-4.67 1.42.03-.47c.03-.41-.05-.81-.22-1.18zm-12.32-3.02c.42-.94 1.45-1.47 2.47-1.27 2.65.52 6.24 3.47 7.53 4.59l-9.6 6.07c-.08-.06-.15-.13-.24-.18l1.91-3.83c.13-.25.03-.54-.22-.66-.24-.12-.54-.02-.66.22l-1.95 3.91c-.13-.02-.25-.04-.38-.04h-1.42c.68-3.61 1.5-6.43 2.56-8.81zm-1.14 9.79c.39 0 .75.16 1.02.45.26.28.39.66.36 1.05l-.19 2.52h-6.4l-.19-2.52c-.03-.39.1-.77.37-1.05.26-.29.62-.45 1.01-.45zm-7.63-11.06c1.02-.2 2.05.34 2.47 1.27 1.06 2.38 1.88 5.2 2.56 8.81h-1.42c-.13 0-.25.02-.38.04l-1.95-3.91c-.12-.25-.42-.34-.66-.22-.25.12-.35.41-.22.66l1.91 3.83c-.09.05-.16.12-.24.18l-9.6-6.07c1.29-1.12 4.89-4.07 7.53-4.59zm-13.37 4.9c.4-.55 1.05-.92 1.8-1.01.6-.07 1.21.07 1.73.4l11.31 7.16c-.17.37-.25.77-.22 1.18l.03.47-4.67-1.42c-.26-.09-.53.06-.61.32s.07.54.33.62l5.03 1.54.07.92h-16.27c-.34-.14-.59-.47-.76-.99-.69-2.14.4-6.61 2.23-9.19zm14.11 30.15c-1.01-.23-1.77-1.13-1.77-2.21s.76-1.98 1.77-2.21zm0-5.41c-1.56.24-2.76 1.58-2.76 3.2s1.2 2.96 2.76 3.2v25.95h-18.99c-1.34 0-2.42-1.09-2.42-2.42v-12.05c.55.41 1.22.65 1.94.65 1.79 0 3.25-1.46 3.25-3.25s-1.46-3.25-3.25-3.25c-.72 0-1.39.24-1.94.65v-15.02h21.41zm-21.41 16.41v-2.25c.4-.71 1.13-1.14 1.94-1.14 1.25 0 2.26 1.01 2.26 2.26s-1.01 2.26-2.26 2.26c-.81 0-1.54-.43-1.94-1.13zm30.2-16.01c0 .01-.01.03-.01.04 0 .02.01.03.01.05v5.42c0 .02-.01.03-.01.05 0 .01.01.03.01.04v26.35h-7.81v-26.39s0 0 0-.01v-5.5s0 0 0-.01v-2.78h7.81zm22.38 16.01c-.4.7-1.13 1.13-1.94 1.13-1.25 0-2.26-1.01-2.26-2.26s1.01-2.26 2.26-2.26c.81 0 1.54.43 1.94 1.13zm0-3.73c-.55-.41-1.22-.65-1.94-.65-1.79 0-3.25 1.46-3.25 3.25s1.46 3.25 3.25 3.25c.72 0 1.39-.24 1.94-.65v12.05c0 1.33-1.08 2.42-2.41 2.42h-18.99v-25.95c1.55-.24 2.75-1.58 2.75-3.2s-1.2-2.95-2.75-3.2v-2.34h21.4zm-21.4-7.28v-4.4c1.01.23 1.76 1.12 1.76 2.2s-.75 1.97-1.76 2.2zm22.8-8.73h-.89c-.01 0-.01 0-.02 0s-.01 0-.02 0h-22.34c-.01 0-.01 0-.02 0s-.01 0-.02 0h-8.75c-.01 0-.01 0-.02 0s-.01 0-.02 0h-22.35c-.01 0-.02 0-.02 0-.01 0-.02 0-.02 0h-.89v-10.25h55.38z"/><g fill="#fd4755"><path d="m45.15 5.62-9.6 6.07c-.08-.06-.15-.13-.24-.18l1.91-3.83c.13-.25.03-.54-.22-.66-.24-.12-.54-.02-.66.22l-1.95 3.91c-.13-.02-.25-.04-.38-.04h-1.42c.68-3.61 1.5-6.43 2.56-8.81.42-.94 1.45-1.47 2.47-1.27 2.65.52 6.24 3.47 7.53 4.59z"/><path d="m31.41 11.11h-1.42c-.13 0-.25.02-.38.04l-1.95-3.91c-.12-.25-.42-.34-.66-.22-.25.12-.35.41-.22.66l1.91 3.83c-.09.05-.16.12-.24.18l-9.6-6.07c1.29-1.12 4.89-4.07 7.53-4.59 1.02-.2 2.05.34 2.47 1.27 1.06 2.38 1.88 5.2 2.56 8.81z"/><path d="m35.39 13.59-.19 2.52h-6.4l-.19-2.52c-.03-.39.1-.77.37-1.05.26-.29.62-.45 1.01-.45h4.02c.39 0 .75.16 1.02.45.26.28.39.66.36 1.05z"/><path d="m53.22 15.12c-.17.52-.42.85-.76.99h-16.27l.07-.92 5.04-1.54c.26-.08.4-.36.32-.62s-.35-.41-.61-.32l-4.67 1.42.03-.47c.03-.41-.05-.81-.22-1.18l11.32-7.16c.51-.33 1.12-.47 1.72-.4.75.09 1.4.46 1.8 1.01 1.83 2.58 2.92 7.05 2.23 9.19z"/><path d="m27.74 15.19.07.92h-16.27c-.34-.14-.59-.47-.76-.99-.69-2.14.4-6.61 2.23-9.19.4-.55 1.05-.92 1.8-1.01.6-.07 1.21.07 1.73.4l11.31 7.16c-.17.37-.25.77-.22 1.18l.03.47-4.67-1.42c-.26-.09-.53.06-.61.32s.07.54.33.62z"/></g><path d="m58.29 44.82v2.26c-.4.7-1.13 1.13-1.94 1.13-1.25 0-2.26-1.01-2.26-2.26s1.01-2.26 2.26-2.26c.81 0 1.54.43 1.94 1.13z" fill="#97d729"/><path d="m38.65 33.87c0 1.08-.75 1.97-1.76 2.2v-4.4c1.01.23 1.76 1.12 1.76 2.2z" fill="#97d729"/><path d="m27.12 31.66v4.42c-1.01-.23-1.77-1.13-1.77-2.21s.76-1.98 1.77-2.21z" fill="#97d729"/><path d="m9.91 45.95c0 1.25-1.01 2.26-2.26 2.26-.81 0-1.54-.43-1.94-1.13v-2.25c.4-.71 1.13-1.14 1.94-1.14 1.25 0 2.26 1.01 2.26 2.26z" fill="#97d729"/><path d="m56.35 42.7c.72 0 1.39.24 1.94.65v-15.02h-21.4v2.34c1.55.25 2.75 1.58 2.75 3.2s-1.2 2.96-2.75 3.2v25.95h18.99c1.33 0 2.41-1.09 2.41-2.42v-12.05c-.55.41-1.22.65-1.94.65-1.79 0-3.25-1.46-3.25-3.25s1.46-3.25 3.25-3.25zm-12.64 6.1c-1.57 0-2.85-1.28-2.85-2.85s1.28-2.85 2.85-2.85 2.84 1.28 2.84 2.85-1.27 2.85-2.84 2.85zm5.95 11.43c-1.57 0-2.85-1.28-2.85-2.85s1.28-2.85 2.85-2.85 2.85 1.28 2.85 2.85-1.28 2.85-2.85 2.85zm0-23.52c-1.57 0-2.85-1.28-2.85-2.85s1.28-2.84 2.85-2.84 2.85 1.27 2.85 2.84-1.28 2.85-2.85 2.85z" fill="#af66da"/><path d="m27.12 30.67v-2.34h-21.41v15.02c.55-.41 1.22-.65 1.94-.65 1.79 0 3.25 1.46 3.25 3.25s-1.46 3.25-3.25 3.25c-.72 0-1.39-.24-1.94-.65v12.05c0 1.33 1.08 2.42 2.42 2.42h18.99v-25.95c-1.56-.24-2.76-1.58-2.76-3.2s1.2-2.96 2.76-3.2zm-12.78 29.56c-1.57 0-2.85-1.28-2.85-2.85s1.28-2.85 2.85-2.85 2.85 1.28 2.85 2.85-1.28 2.85-2.85 2.85zm0-23.52c-1.57 0-2.85-1.28-2.85-2.85s1.28-2.84 2.85-2.84 2.85 1.27 2.85 2.84-1.28 2.85-2.85 2.85zm5.95 12.09c-1.57 0-2.84-1.28-2.84-2.85s1.27-2.85 2.84-2.85 2.85 1.28 2.85 2.85-1.28 2.85-2.85 2.85z" fill="#af66da"/><path d="m35.91 31.07c0 .01-.01.03-.01.04 0 .02.01.03.01.05v5.42c0 .02-.01.03-.01.05 0 .01.01.03.01.04v26.35h-7.81v-26.39s0 0 0-.01v-5.5s0 0 0-.01v-2.78h7.81z" fill="#fed402"/><path d="m59.69 17.09v10.25h-.89c-.01 0-.01 0-.02 0s-.01 0-.02 0h-22.34c-.01 0-.01 0-.02 0s-.01 0-.02 0h-8.75c-.01 0-.01 0-.02 0s-.01 0-.02 0h-22.35c-.01 0-.02 0-.02 0-.01 0-.02 0-.02 0h-.89v-10.25z" fill="#fed402"/><path d="m14.34 31.02c-1.57 0-2.85 1.27-2.85 2.84s1.28 2.85 2.85 2.85 2.85-1.28 2.85-2.85-1.28-2.84-2.85-2.84zm0 4.71c-1.03 0-1.86-.84-1.86-1.87 0-1.02.83-1.86 1.86-1.86s1.86.84 1.86 1.86c0 1.03-.83 1.87-1.86 1.87z"/><path d="m16.2 33.86c0 1.03-.83 1.87-1.86 1.87s-1.86-.84-1.86-1.87c0-1.02.83-1.86 1.86-1.86s1.86.84 1.86 1.86z" fill="#97d729"/><path d="m20.29 43.1c-1.57 0-2.84 1.28-2.84 2.85s1.27 2.85 2.84 2.85 2.85-1.28 2.85-2.85-1.28-2.85-2.85-2.85zm0 4.71c-1.02 0-1.86-.83-1.86-1.86s.84-1.86 1.86-1.86c1.03 0 1.87.83 1.87 1.86s-.84 1.86-1.87 1.86z"/><path d="m22.16 45.95c0 1.03-.84 1.86-1.87 1.86-1.02 0-1.86-.83-1.86-1.86s.84-1.86 1.86-1.86c1.03 0 1.87.83 1.87 1.86z" fill="#97d729"/><path d="m14.34 54.53c-1.57 0-2.85 1.28-2.85 2.85s1.28 2.85 2.85 2.85 2.85-1.28 2.85-2.85-1.28-2.85-2.85-2.85zm0 4.72c-1.03 0-1.86-.84-1.86-1.87s.83-1.86 1.86-1.86 1.86.83 1.86 1.86-.83 1.87-1.86 1.87z"/><path d="m16.2 57.38c0 1.03-.83 1.87-1.86 1.87s-1.86-.84-1.86-1.87.83-1.86 1.86-1.86 1.86.83 1.86 1.86z" fill="#97d729"/><path d="m49.66 31.02c-1.57 0-2.85 1.27-2.85 2.84s1.28 2.85 2.85 2.85 2.85-1.28 2.85-2.85-1.28-2.84-2.85-2.84zm0 4.71c-1.03 0-1.86-.84-1.86-1.87 0-1.02.83-1.86 1.86-1.86s1.86.84 1.86 1.86c0 1.03-.83 1.87-1.86 1.87z"/><path d="m51.52 33.86c0 1.03-.83 1.87-1.86 1.87s-1.86-.84-1.86-1.87c0-1.02.83-1.86 1.86-1.86s1.86.84 1.86 1.86z" fill="#97d729"/><path d="m43.71 43.1c-1.57 0-2.85 1.28-2.85 2.85s1.28 2.85 2.85 2.85 2.84-1.28 2.84-2.85-1.27-2.85-2.84-2.85zm0 4.71c-1.03 0-1.87-.83-1.87-1.86s.84-1.86 1.87-1.86c1.02 0 1.86.83 1.86 1.86s-.84 1.86-1.86 1.86z"/><path d="m45.57 45.95c0 1.03-.84 1.86-1.86 1.86-1.03 0-1.87-.83-1.87-1.86s.84-1.86 1.87-1.86c1.02 0 1.86.83 1.86 1.86z" fill="#97d729"/><path d="m49.66 54.53c-1.57 0-2.85 1.28-2.85 2.85s1.28 2.85 2.85 2.85 2.85-1.28 2.85-2.85-1.28-2.85-2.85-2.85zm0 4.72c-1.03 0-1.86-.84-1.86-1.87s.83-1.86 1.86-1.86 1.86.83 1.86 1.86-.83 1.87-1.86 1.87z"/><path d="m51.52 57.38c0 1.03-.83 1.87-1.86 1.87s-1.86-.84-1.86-1.87.83-1.86 1.86-1.86 1.86.83 1.86 1.86z" fill="#97d729"/></g></svg>