<svg viewBox="0 0 512 512" xmlns="http://www.w3.org/2000/svg"><g id="Outline_Color" data-name="Outline Color"><g id="Color"><path d="m468.725 389.076a153 153 0 1 0 -268.725-100.076c0 82.881 66.624 141.756 148.164 152.916 29.836 4.084 115.348 12.405 115.348 12.405a18 18 0 0 0 17.644-26.64l-13.856-24.934a11.986 11.986 0 0 1 1.425-13.671z" fill="#8bc34a"/><path d="m157.034 58c-77.358.518-140.534 63.7-141.034 141.06a141.359 141.359 0 0 0 16.9 68.155 6.017 6.017 0 0 1 -2 7.92l-14.453 9.365c-14.211 9.208-9 31.159 7.83 33 0 0 49.958 2.232 65.727 7.189 21.954 6.9 43.361 17.312 68 17.312a142 142 0 1 0 -.966-284z" fill="#d32f2f"/><g fill="#fff"><path d="m427.017 255.268a18.362 18.362 0 0 0 -25.96-.7l-49.581 46.985-17.84-17.84a18.359 18.359 0 0 0 -25.964 25.962l30.476 30.481a18.36 18.36 0 0 0 25.612.346l62.556-59.278a18.361 18.361 0 0 0 .701-25.956z"/><path d="m182.333 204 19.8-19.8a18 18 0 0 0 -25.456-25.456l-19.8 19.8-19.553-19.553a18 18 0 1 0 -25.456 25.455l19.553 19.554-19.553 19.554a18 18 0 1 0 25.456 25.455l19.553-19.553 19.8 19.8a18 18 0 0 0 25.455-25.456z"/></g></g><g id="Outline"><path d="m512 288.616a159.052 159.052 0 0 0 -218.04-147.273 148.329 148.329 0 0 0 -135.952-89.343c-.337 0-.677 0-1.014 0-80.529.539-146.47 66.491-146.994 147.021a148.217 148.217 0 0 0 17.638 71.079l-14.453 9.364a23.993 23.993 0 0 0 10.825 44.029c13.678.611 51.873 3.045 64.195 6.918 5.223 1.642 10.566 3.54 15.733 5.376 16.898 6.004 34.372 12.213 54.062 12.213a147.451 147.451 0 0 0 45.1-7.037c10.072 27.384 28.335 51.575 53.113 70.249 25.644 19.325 57.157 32 91.133 36.648 29.609 4.053 114.723 12.35 115.524 12.427a24 24 0 0 0 23.53-35.519l-13.852-24.935a6.012 6.012 0 0 1 .712-6.831 158.913 158.913 0 0 0 38.74-104.386zm-354 47.384c-17.622 0-34.1-5.856-50.045-11.521-5.269-1.872-10.718-3.807-16.152-5.515-15.96-5.017-62.995-7.264-67.046-7.449a12 12 0 0 1 -5.047-21.981l14.452-9.363a11.945 11.945 0 0 0 4.017-15.8 136.146 136.146 0 0 1 -16.179-65.271c.479-74 61.072-134.6 135.071-135.1h.932a136 136 0 0 1 135.997 136c0 74.99-61.01 136-136 136zm304.059 69.661 13.852 24.939a12 12 0 0 1 -11.818 17.754c-.854-.083-85.737-8.357-115.115-12.378-64.266-8.8-115.3-46.561-134.609-99.136a148.263 148.263 0 0 0 83.894-184.29 145.928 145.928 0 0 1 54.737-10.55c80.862 0 146.809 65.782 147 146.645a146.915 146.915 0 0 1 -35.812 96.5 18.052 18.052 0 0 0 -2.129 20.516z"/><path d="m396.93 250.212-45.342 42.967-13.709-13.709c-9.066-9.45-25.382-9.451-34.448 0a24.387 24.387 0 0 0 0 34.447l30.469 30.483a24.23 24.23 0 0 0 33.983.459l62.556-59.278a24.388 24.388 0 0 0 .929-34.435c-8.807-9.689-25.131-10.166-34.438-.934zm25.259 26.656-62.556 59.278a12.293 12.293 0 0 1 -17.242-.233l-30.476-30.48a12.36 12.36 0 1 1 17.479-17.479l17.839 17.84a6 6 0 0 0 8.37.113l49.581-46.985a12.418 12.418 0 0 1 17.476.473 12.374 12.374 0 0 1 -.471 17.473z"/><path d="m206.374 154.5a24.025 24.025 0 0 0 -33.94 0l-15.557 15.556-15.312-15.311c-9.051-9.444-25.4-9.281-34.261.327a24.122 24.122 0 0 0 .321 33.613l15.311 15.315-15.31 15.311c-9.442 9.045-9.285 25.4.327 34.262a24.122 24.122 0 0 0 33.612-.321l15.312-15.311 15.557 15.559a24 24 0 0 0 33.94-33.941l-15.556-15.559 15.556-15.557a24.025 24.025 0 0 0 0-33.943zm-8.484 25.456-19.8 19.8a6 6 0 0 0 0 8.484l19.8 19.8a12 12 0 0 1 -16.972 16.972l-19.8-19.8a6 6 0 0 0 -8.484 0l-19.554 19.556a12 12 0 1 1 -16.969-16.968l19.553-19.554a6 6 0 0 0 0-8.484l-19.554-19.562a12 12 0 0 1 16.971-16.972l19.554 19.554a6 6 0 0 0 8.484 0l19.8-19.8a12 12 0 1 1 16.972 16.971z"/></g></g></svg>