<svg id="Layer_1" enable-background="new 0 0 512 512" height="512" viewBox="0 0 512 512" width="512" xmlns="http://www.w3.org/2000/svg"><g id="Layer_2_00000178883264931252059530000007958251299532241795_"><g id="star"><path d="m390 501.4c-6.4 0-12.6-1.6-18.2-4.6l-106.9-56.2c-5.6-2.9-12.2-2.9-17.8 0l-106.9 56.2c-5.6 3-11.8 4.6-18.2 4.6-11.6 0-22.6-5.2-30-14.1-7.5-8.7-10.6-20.4-8.6-31.7l20.4-119c1.1-6.2-1-12.6-5.5-17l-86.5-84.3c-15.5-15.1-15.7-39.9-.6-55.3 6-6.1 13.8-10.1 22.3-11.4l119.5-17.4c6.2-.9 11.6-4.8 14.4-10.5l53.5-108.4c9.6-19.4 33-27.3 52.4-17.8 7.7 3.8 14 10.1 17.8 17.8l53.5 108.3c2.8 5.7 8.2 9.6 14.5 10.5l119.5 17.4c21.4 3.1 36.2 23 33.1 44.4-1.2 8.5-5.3 16.4-11.4 22.4l-86.5 84.2c-4.5 4.4-6.6 10.7-5.5 16.9l20.4 119c2.1 11.3-1.1 23-8.6 31.8-7.5 9-18.5 14.2-30.1 14.2z"/><path d="m282.1 36.8 53.5 108.3c4.2 8.6 12.4 14.6 21.9 15.9l119.5 17.5c23.9 3.5 33.4 32.8 16.1 49.7l-86.5 84.3c-6.9 6.7-10 16.3-8.4 25.8l20.4 119c4.1 23.8-20.9 42-42.3 30.7l-106.9-56.2c-8.5-4.5-18.6-4.5-27.1 0l-106.9 56.2c-21.4 11.2-46.3-6.9-42.3-30.7l20.4-119c1.6-9.4-1.5-19.1-8.4-25.8l-86.5-84.3c-17.3-16.9-7.8-46.2 16.2-49.7l119.5-17.4c9.5-1.4 17.7-7.3 21.9-15.9l53.4-108.3c11-21.7 41.8-21.7 52.5-.1z" fill="#ffc107"/></g></g></svg>