<svg id="Start_Up" height="512" viewBox="0 0 1000 1000" width="512" xmlns="http://www.w3.org/2000/svg"><g><path d="m137.003 792.963c-4.537-.354-9.678-.752-14.794-.752-6.456 0-11.94.646-16.772 1.975-10.084 2.775-22.105 12.793-22.103 44.752 0 15.922 3.028 43.461 23.292 49.035 5.23 1.439 10.988 2.109 18.127 2.109 4.66 0 9.342-.295 13.473-.551 3.484-.219 6.775-.426 9.637-.426h.006c91.905.352 181.313.398 256.648.398l157.236-.039c31.2 0 62.41.104 93.623.207 31.264.104 62.531.207 93.799.207 53.768 0 97.654-.318 138.185-1.004.967-.02 1.862-.104 2.757-.232.528-.063 1.084-.145 1.486-.219.825-.152 1.612-.344 2.246-.525.904-.254 1.795-.553 2.684-.916.945-.387 1.825-.814 2.768-1.34.689-.389 1.377-.809 2.189-1.375.275-.193.654-.48 1.01-.76.689-.523 1.566-1.262 2.139-1.816 13.467-13.012 14.83-53.166 8.023-70.008-4.654-11.514-14.004-18.391-25.471-18.391 0 0-.006 0-.012 0-8.497.15-17 .186-25.502.207.003-87.783.003-178.539-.422-267.828-.086-17.846-.203-35.69-.369-53.54-.025-2.508.012-5.06.047-7.632.178-13.301.383-28.377-6.182-43.063-10.858-24.299-44.234-24.299-56.799-24.299-10.047 0-19.963.737-27.93 1.329-4.691.349-9.119.679-11.479.679-4.406 0-10.316-.416-16.572-.854-8.113-.569-17.308-1.214-26.5-1.214-8.262 0-18.607.53-28.736 3.137 27.373-30.418 52.539-63.552 75.131-99.191l23.783 14.65c6.587 4.057 14.352 8.388 23.182 8.388 7.225 0 13.801-2.914 18.512-8.208 8.32-9.345 8.047-22.559 6.684-34.251-3-25.733-4.859-52.274-6.656-77.941-1.328-18.949-2.699-38.542-4.529-57.874-.93-9.811-3.396-35.87-29.111-35.87-6.723 0-13.609 2.044-21.879 5.113-28.904 10.724-57.867 22.363-85.875 33.618-13.52 5.432-27.04 10.865-40.593 16.215-7.893 3.116-26.376 10.416-27.966 28.428-1.572 17.798 15.254 28.164 20.788 31.573l22.03 13.568c-121.741 208.756-344.496 296.939-512.018 334.148-32.042 7.115-33.693 24.648-32.914 31.859.782 7.244 6.186 24.107 39.383 24.225 0 0 2.768.004 2.775.004 115.435 0 229.291-26.107 329.242-75.494 59.994-29.645 115.383-69.002 164.777-116.535-1.188 7.684-1.008 15.354-.855 21.599.046 1.825.094 3.503.078 4.949-.223 18.849-.332 37.696-.436 56.549-.469 86.709-.461 174.842-.453 260.076v14.033l-43.734.016c-.021-42.439-.137-89.764-.711-136.213-.031-2.701.102-5.748.232-8.982.762-19.002 2.041-50.801-24.999-64.014-9.399-4.592-21.097-6.73-36.813-6.73-8.416 0-16.975.605-24.527 1.141-6.102.432-11.865.842-16.311.842-6.163-.004-12.406-.146-18.68-.293-6.669-.152-13.373-.307-20.061-.307-13.109 0-23.732.613-33.426 1.928-37.303 5.057-36.301 46.488-35.871 64.184.059 2.424.117 4.672.096 6.641-.604 49.043-.752 98.281-.781 141.813l-43.764-.041c-.074-26.574-.303-52.98-.688-78.74-.041-2.666.08-5.658.197-8.822.688-18.629 1.842-49.805-24.965-62.9-9.398-4.592-21.096-6.73-36.813-6.73-8.416 0-16.975.605-24.527 1.141-6.102.432-11.865.84-16.311.84-6.164-.002-12.406-.145-18.68-.291-6.667-.154-13.373-.307-20.061-.307-13.109 0-23.732.611-33.426 1.928-37.168 5.039-36.25 46.156-35.859 63.713.054 2.383.107 4.594.083 6.539-.425 32.244-.665 58.643-.751 82.893-.546-.047-1.1-.088-1.661-.131z" fill="#fff"/><g><path d="m154.757 609.082c111.895.395 222.6-23.719 323.271-73.463 116.396-57.515 211.078-150.667 277.436-261.534 13.488 8.307 26.973 16.61 40.458 24.917 12.108 7.461 21.722 11.176 18.655-15.131-5.275-45.229-6.939-90.896-11.23-136.237-1.797-18.972-4.266-21.823-24.686-14.245-42.357 15.716-84.07 33.103-126.087 49.688-17.167 6.777-22.633 13.696-4.102 25.113 12.687 7.812 25.37 15.626 38.054 23.438-109.354 201.733-316.464 311.737-534.064 360.067-24.748 5.496-23.162 17.297 2.295 17.387z" fill="#68182b"/><path d="m111.82 869.094c10.594 2.914 25.277.391 36.125.432 136.889.521 273.777.391 410.668.359 109.412-.025 218.945 1.264 328.35-.588.227-.004.424-.049.636-.074.142-.01.28-.023.423-.049.193-.035.377-.084.558-.135.193-.055.384-.117.577-.195.193-.08.371-.172.549-.27.164-.094.328-.189.49-.303.115-.08.223-.168.328-.258.17-.135.345-.242.51-.402 7.008-6.773 10.576-54.988-3.504-54.74-12.793.229-25.595.197-38.387.244-2.363.008-4.727.008-7.09.018.01-.156.045-.293.045-.455 0-95.635.033-191.273-.424-286.91-.085-17.816-.201-35.632-.369-53.451-.132-14.17 1.48-29.665-4.43-42.889-8.752-19.584-62.514-10.695-78.334-10.699-21.725-.005-62.963-7.864-81.203 7.083-9.289 7.611-6.936 27.548-7.055 37.604-.221 18.808-.328 37.615-.432 56.425-.528 97.609-.451 195.225-.451 292.836 0 .264.045.498.074.742-27.684.023-55.365.014-83.047.027.032-.252.077-.494.077-.77 0-51.602-.077-103.189-.713-154.789-.209-16.99 5.12-46.404-13.784-55.643-17.83-8.711-50.018-2.756-69.059-2.762-22.875-.004-46.809-1.932-69.531 1.152-23.092 3.129-18.633 35.723-18.828 51.66-.656 53.465-.782 106.916-.782 160.381 0 .281.048.531.079.789-27.682-.01-55.363-.051-83.043-.078.023-.234.068-.459.068-.711 0-32.455-.229-64.854-.713-97.297-.251-16.838 4.876-45.307-13.783-54.422-17.83-8.711-50.018-2.758-69.059-2.762-22.876-.004-46.809-1.932-69.531 1.152-22.939 3.109-18.619 35.213-18.828 51.107-.449 34.088-.783 68.123-.783 102.221 0 .16.035.297.045.451-3.885-.014-7.768-.016-11.652-.031-10.658-.041-25.574-2.893-35.974-.033-11.063 3.048-9.849 52.996 1.187 56.033z" fill="#68182b"/><path d="m699.194 232.514c2.512-4.744 2.001-5.371-2.063-7.875-11.365-7-22.73-14-34.098-21.002-8.979-5.529-11.059-8.008 1.66-13.061 38.162-15.172 76.137-30.831 114.623-45.169 10.939-4.072 12.379 1.073 12.898 6.704 3.807 41.399 5.743 83.016 10.146 124.353 1.484 13.922-4.666 10.11-12.879 5.053-11.004-6.779-22.01-13.557-33.018-20.332-2.94-1.813-5.654-1.714-7.877 2.063-66.009 112.283-159.951 203.486-276.371 262.429-90.615 45.877-191.602 68.701-292.871 71.533 213.358-52.046 413.848-164.745 519.85-364.696z" fill="#d5d5d5"/><path d="m681.182 563.441c.108-33.344.252-66.684.614-100.025.082-7.68-.025-15.406 1.086-23.026 1.631-11.188 14.242-10.034 22.83-10.077 15.748-.078 77.719-.063 92.955-.023 4.115.008 8.229.026 12.344.053 16.73.111 18.047 8.543 18.543 22.805 1.195 34.541.611 69.234.736 103.791.289 78.211.295 156.422.293 234.633 0 20.18-2.521 21.602-24.953 21.662-29.935.07-59.869.111-89.803.143-21.648.025-34.916 2.633-34.916-19.117 0-76.944.019-153.881.271-230.819z" fill="#73ffd8"/><path d="m428.97 615.994c4.895-10.951 58.916-4.994 68.393-4.996 19.352-.004 38.704-.027 58.057.102 22.079.146 18.516 18.725 18.717 35.238.143 11.66.289 23.318.428 34.979.445 37.52.441 75.037.428 112.555 0 17.73.283 19.576-19.195 19.59-33.518.014-67.035.025-100.551.023-22.465 0-29.926 1.105-29.926-20.381-.014-35.934-.018-71.873.383-107.807.225-20.383-5.066-50.652 3.266-69.303z" fill="#fac135"/><path d="m170.111 734.357c.42-18.047-4.098-43.168 3.268-59.65 4.895-10.951 58.916-4.994 68.393-4.996 19.352-.004 38.703-.027 58.057.102 22.033.145 18.51 18.605 18.717 35.096.113 9.107.246 18.215.428 27.322.387 19.523.436 39.045.436 58.57 0 19.693 1.391 22.582-21.893 22.559-26.115-.018-52.232-.027-78.35-.074-9.188-.016-18.379-.039-27.566-.064-21-.059-21.855 1.352-21.893-17.428-.039-20.48-.074-40.962.403-61.437z" fill="#ff5671"/><path d="m132.567 824.547c52.048.281 731.302.025 736.384-.004 13.617-.07 14.962.281 15.609 11.939.155 2.816.281 5.865.311 8.801.131 13.537-1.851 12.563-14.012 12.754-240.848 3.771-732.191-.063-736.828-.084-9.811-.047-17.004 2.512-17.629-10.723-.133-2.813-.184-5.635-.189-8.453-.018-11.666 3.185-14.3 16.354-14.23z" fill="#d5d5d5"/><path d="m258.044 590.867c74.344-9.938 147.102-31.232 214.172-65.189 116.42-58.943 210.362-150.146 276.371-262.429 2.223-3.777 4.937-3.876 7.877-2.063 11.008 6.775 22.014 13.553 33.018 20.332 8.213 5.058 14.363 8.869 12.879-5.053-4.115-38.63-6.125-77.5-9.475-116.213-.955 21.958-2.014 43.912-3.206 65.861-.423 7.773.86 32.771-12.026 30.44-11.031-1.997-18.168-14.835-29.279-16.057-9.275-1.018-12.299 7.637-16.643 14.401-6.815 10.616-13.818 21.11-20.955 31.513-54.566 79.521-120.352 151.247-201.051 204.781-76.781 50.932-162.666 80.936-251.682 99.676z" fill="#bebebe"/><path d="m116.292 842.377c.029 1.619.032 3.24.109 4.854.625 13.234 7.818 10.676 17.629 10.723 4.637.021 495.98 3.855 736.828.084 12.161-.191 14.143.783 14.012-12.754-.01-.99-.043-1.998-.072-3.002-10.705 4.145-22.697 4.604-35.902 4.611-14.125.006-28.25-.031-42.373-.061-36.354-.078-72.709-.104-109.063-.133-87.902-.074-175.805-.131-263.707-.223-71.324-.074-142.645-.158-213.968-.139-21.864.008-43.726.004-65.589.064-5.508.016-11.014.021-16.521.064-1.295.01-2.588.02-3.881.035-3.742.045-6.906-.217-10.715-.912-2.95-.537-5.088-1.692-6.787-3.211z" fill="#bebebe"/><path d="m387.552 522.861c133.182-49.294 242.951-159.227 315.995-278.933 10.206-16.725 8.493-21.182-7.575-29.887-4.629-2.51-9.049-5.336-12.805-9.06-9.24-9.161 14.193-18.5 19.121-21.014 22.766-11.619 46.195-21.97 68.656-34.187 2.234-1.217 4.756-2.451 7.125-3.899-38.059 14.212-75.629 29.687-113.377 44.694-12.719 5.053-10.639 7.531-1.66 13.061 11.367 7.002 22.732 14.002 34.098 21.002 4.064 2.504 4.575 3.131 2.063 7.875-70.274 132.56-182.094 226.734-311.641 290.348z" fill="#efefef"/><path d="m425.32 793.104c0 21.486 7.461 20.381 29.926 20.381 33.516.002 67.033-.01 100.551-.023 19.479-.014 19.195-1.859 19.195-19.59.002-5.15-.012-10.301-.012-15.453-4.395 9.67-11.551 17.344-23.945 20.541-19.188 4.951-40.541 2.459-60.156 2.451-9.213-.002-18.412-.16-27.619-.447-14.038-.441-23.608-4.746-27.101-18.98-3.337-13.604-.54-28.516-.009-42.293.754-19.58.057-39.258.545-58.855.37-14.92-.066-30.197 2.488-44.936 1.604-9.252 5.338-17.193 13.328-22.496 2.896-1.924 6.211-3.145 9.703-4-15.572-.17-30.756 1.027-33.244 6.592-8.332 18.65-3.041 48.92-3.268 69.303-.4 35.931-.396 71.871-.382 107.805z" fill="#ee9e2b"/><path d="m525.53 626.961c-12.356-1.863-25.774-1.059-35.69.572-14.835 2.434-25.352 8.672-30.971 23.799-4.77 12.836-5.965 59.271-1.645 89.592 4.863 34.152 23.852 37.838 43.332 39.883 22.572 2.365 50.205-3.662 57.852-34.904 4.955-20.25 3.32-57.967 1.914-76.635-2.11-27.926-10.539-38.641-34.792-42.307z" fill="#fbe134"/><path d="m319.407 790.801c0-5.053-.027-10.105-.037-15.158-.138.432-.25.871-.393 1.303-5.885 17.834-17.686 24.566-35.692 26.361-11.595 1.154-23.319.061-34.944.467-15.355.537-30.453.563-45.587-2.533-10.028-2.051-16.78-6.338-19.618-16.535-3.797-13.643-2.43-29.582-2.25-43.586.154-12.229.68-24.447 1.217-36.664.527-12.104.215-25.73 6.926-35.705-8.03.84-14.15 2.602-15.65 5.957-7.365 16.482-2.848 41.604-3.268 59.65-.477 20.475-.441 40.957-.404 61.436.037 18.779.893 17.369 21.893 17.428 9.188.025 18.378.049 27.566.064 26.117.047 52.234.057 78.35.074 23.282.023 21.891-2.866 21.891-22.559z" fill="#df3f58"/><path d="m302.63 713.816c-.104-24.285-6.995-28.219-29.055-30.01-13.154-1.061-26.327-2.295-39.469-2.246-12.979.053-24.465 4.154-29.554 16.758-3.389 8.385-4.364 50.504-2.655 61.559 2.963 19.164 13.24 21.707 31.061 24.021 10.895 1.414 21.871 2 32.851 1.877 26.06-.289 34.67-8.225 36.156-33.6.749-12.784.72-25.558.665-38.359z" fill="#ff9780"/><path d="m805.63 813.232c22.432-.061 24.953-1.482 24.953-21.662 0-3.818-.004-7.635-.004-11.453-4.939 14.217-24.398 17.941-32.053 18.74-21.178 2.215-42.857 1.715-64.072.273-7.121-.484-14.42-.994-21.354-2.775-16.996-4.365-18.351-20.045-19.031-34.857-3.521-76.508-.951-264.19-.97-281.266-.017-15.153-1.567-37.684 9.035-49.932-8.149-.032-17.839.38-19.253 10.09-1.111 7.62-1.004 15.347-1.086 23.026-.362 33.341-.506 66.681-.614 100.025-.252 76.938-.271 153.875-.271 230.816 0 21.75 13.268 19.143 34.916 19.117 29.935-.03 59.87-.071 89.804-.142z" fill="#6db4a6"/><path d="m814.941 494.76c-.863-27.472-5.033-42.996-27.686-45.837-2.705-.337-7.76-.897-16.811-.823-17.643.148-35.219 5.736-35.902 29.232-1.693 58.363-2.152 242.695-1.72 259.998.452 18.109 2.521 35.766 19.19 41.031 7.572 2.395 17.033 3.465 26.184 2.658 22.904-2.023 35.393-6.975 35.977-41.352.826-48.94 1.27-228.997.768-244.907z" fill="#d3ffeb"/></g></g></svg>